<svg id="svg" version="1.1" xmlns="http://www.w3.org/2000/svg" xmlns:xlink="http://www.w3.org/1999/xlink" width="400" height="362.94536817102136" viewBox="0, 0, 400,362.94536817102136"><g id="svgg"><path id="path0" d="M190.380 2.060 C 83.640 7.330,7.748 106.341,30.668 210.426 C 48.707 292.342,124.759 349.741,208.199 344.413 C 313.332 337.700,387.169 240.650,365.649 137.465 C 348.705 56.219,273.303 -2.033,190.380 2.060 M208.789 13.782 C 300.973 20.148,368.589 102.775,356.528 194.319 C 344.698 284.109,260.180 346.243,170.784 330.871 C 85.520 316.209,27.476 236.103,39.813 150.119 C 51.599 67.969,125.858 8.055,208.789 13.782 M187.411 23.768 C 94.116 30.696,29.892 119.579,52.716 210.179 C 70.810 282.005,139.657 330.132,213.302 322.435 C 304.306 312.924,365.657 225.251,343.359 136.580 C 325.713 66.408,259.381 18.424,187.411 23.768 M205.819 35.156 C 279.261 39.429,336.337 99.830,336.337 173.278 C 336.337 257.523,262.134 321.943,178.504 310.302 C 106.337 300.257,53.903 234.527,60.101 161.876 C 66.490 86.994,131.098 30.810,205.819 35.156 M152.257 58.454 C 147.246 59.439,145.974 61.476,142.626 73.872 C 141.373 78.510,137.569 92.618,134.173 105.223 C 130.776 117.828,127.831 128.493,127.627 128.921 C 126.718 130.838,127.450 130.744,112.233 130.888 C 96.117 131.040,96.161 131.032,93.160 134.315 C 90.051 137.717,90.047 137.550,93.795 161.520 C 103.197 221.648,108.627 256.410,109.497 262.055 C 110.987 271.713,112.207 274.176,116.274 275.732 C 118.935 276.750,118.611 276.747,203.682 276.674 L 285.392 276.603 286.916 276.053 C 292.016 274.212,292.824 272.574,294.782 260.101 C 297.533 242.580,312.848 144.268,313.072 142.696 C 313.909 136.813,310.477 132.042,304.751 131.129 C 303.832 130.982,298.267 130.882,291.010 130.881 C 277.395 130.879,277.698 130.913,276.588 129.236 C 276.201 128.650,274.965 124.440,272.679 115.912 C 264.192 84.255,259.350 66.579,258.692 64.846 C 257.619 62.024,255.625 59.815,253.306 58.880 L 251.900 58.314 202.613 58.279 C 174.839 58.259,152.859 58.336,152.257 58.454 M241.117 78.449 C 242.470 79.354,242.785 80.359,249.151 104.157 C 254.855 125.479,255.819 129.280,255.819 130.447 C 255.819 130.863,253.840 130.879,201.781 130.879 C 165.841 130.879,147.743 130.799,147.743 130.641 C 147.743 130.510,149.410 124.230,151.447 116.686 C 153.484 109.142,156.426 98.213,157.986 92.399 C 161.683 78.619,161.466 79.199,163.302 78.186 C 163.642 77.998,174.599 77.922,202.043 77.917 L 240.310 77.910 241.117 78.449 M291.589 152.316 C 291.009 157.724,289.909 164.975,285.052 195.404 C 282.052 214.197,278.728 235.238,277.665 242.162 C 275.605 255.579,275.533 255.868,274.101 256.592 C 273.321 256.986,269.513 257.005,202.019 256.948 L 130.760 256.888 129.886 256.345 C 128.391 255.415,128.205 254.709,126.488 243.468 C 123.151 221.621,118.909 194.629,116.973 182.931 C 115.458 173.773,112.114 151.746,112.114 150.923 C 112.114 150.873,152.532 150.831,201.931 150.831 L 291.748 150.831 291.589 152.316 M159.976 162.579 C 156.958 163.662,154.600 165.817,153.908 168.128 C 153.132 170.720,152.823 230.254,153.571 233.127 C 155.538 240.680,164.942 243.157,170.177 237.502 C 173.014 234.438,172.956 235.256,172.871 199.644 L 172.801 170.428 172.251 168.765 C 170.445 163.306,165.248 160.688,159.976 162.579 M198.954 162.455 C 195.627 163.550,193.449 165.940,192.517 169.520 C 191.975 171.601,191.983 230.806,192.526 232.890 C 195.207 243.185,209.719 242.842,211.619 232.439 C 212.160 229.477,211.960 171.661,211.401 169.476 C 209.959 163.838,204.356 160.677,198.954 162.455 M238.005 162.372 C 235.388 163.064,232.912 165.366,231.768 168.171 L 231.235 169.477 231.170 200.594 C 231.102 233.344,231.091 232.974,232.213 235.265 C 236.808 244.651,249.938 241.204,250.619 230.433 C 250.852 226.758,250.858 183.106,250.628 175.059 L 250.461 169.240 249.716 167.653 C 247.644 163.237,242.872 161.085,238.005 162.372 " stroke="none" fill="#b41444" fill-rule="evenodd"></path><path id="path1" d="M0.000 181.473 L 0.000 362.945 200.000 362.945 L 400.000 362.945 400.000 181.473 L 400.000 0.000 200.000 0.000 L 0.000 0.000 0.000 181.473 M209.304 2.147 C 294.418 7.924,362.218 74.785,368.989 159.620 C 377.509 266.371,287.110 354.777,180.523 343.930 C 83.642 334.071,14.439 245.329,28.267 148.687 C 39.736 68.536,106.812 6.830,187.648 2.065 C 190.977 1.869,206.045 1.926,209.304 2.147 M188.955 13.798 C 111.862 18.176,48.683 77.388,39.446 153.919 C 28.069 248.180,100.324 331.268,195.131 332.945 C 291.772 334.654,367.516 251.368,356.749 155.234 C 347.346 71.276,273.465 9.000,188.955 13.798 M206.328 23.524 C 286.275 28.152,347.880 93.387,347.860 173.397 C 347.841 248.968,292.270 312.324,217.458 322.068 C 210.333 322.996,207.410 323.159,197.981 323.158 C 97.249 323.140,25.510 226.521,54.422 129.810 C 74.096 63.997,137.627 19.546,206.328 23.524 M189.192 35.316 C 108.395 40.519,49.266 113.922,61.316 194.062 C 70.619 255.939,121.329 304.435,183.383 310.801 C 271.655 319.855,345.401 245.484,335.370 157.525 C 327.044 84.518,262.543 30.593,189.192 35.316 M251.611 58.307 C 254.783 58.979,256.764 60.588,258.325 63.760 C 259.173 65.482,262.818 78.590,271.970 112.827 C 274.740 123.186,276.249 128.434,276.631 129.031 C 277.773 130.820,277.151 130.746,292.162 130.879 C 307.975 131.020,308.641 131.150,311.287 134.614 C 313.789 137.891,313.797 139.222,311.410 154.394 C 310.351 161.122,306.014 188.913,301.771 216.152 C 297.529 243.391,293.890 266.586,293.686 267.696 C 292.789 272.567,290.101 275.552,285.796 276.457 C 284.034 276.828,120.421 276.835,118.393 276.465 C 112.265 275.345,111.047 273.122,108.909 259.145 C 108.179 254.376,104.331 229.685,100.357 204.276 C 96.382 178.866,92.530 154.228,91.796 149.525 C 90.151 138.993,90.243 137.611,92.796 134.495 C 95.637 131.028,95.681 131.020,111.919 130.879 C 127.250 130.746,126.317 130.858,127.393 129.021 C 127.631 128.614,130.267 119.219,133.250 108.143 C 144.163 67.623,144.847 65.162,145.621 63.616 C 147.192 60.481,149.247 58.913,152.577 58.308 C 155.235 57.826,249.335 57.825,251.611 58.307 M163.745 78.167 C 161.945 78.692,161.572 79.502,159.429 87.530 C 158.349 91.580,155.300 102.910,152.654 112.708 L 147.844 130.523 201.752 130.582 C 231.401 130.615,255.685 130.615,255.715 130.582 C 255.937 130.342,254.364 124.115,249.760 107.007 C 246.842 96.164,244.051 85.753,243.557 83.871 C 242.632 80.348,242.173 79.383,241.016 78.525 L 240.345 78.029 202.417 77.989 C 180.132 77.966,164.183 78.040,163.745 78.167 M112.352 151.280 C 112.352 152.341,115.346 172.381,116.859 181.443 C 118.657 192.212,121.545 210.515,125.652 237.169 C 128.398 254.986,128.435 255.157,129.768 256.151 L 130.439 256.651 202.136 256.711 L 273.833 256.772 274.560 256.160 C 275.532 255.341,275.450 255.745,277.888 239.905 C 279.065 232.262,282.334 211.580,285.153 193.943 C 287.973 176.306,290.539 159.792,290.857 157.245 C 291.175 154.697,291.493 152.212,291.563 151.722 L 291.692 150.831 202.022 150.831 C 114.303 150.831,112.352 150.841,112.352 151.280 M167.184 162.709 C 170.217 164.124,171.995 166.513,172.687 170.102 C 173.119 172.346,173.021 231.768,172.582 233.355 C 170.152 242.149,158.244 243.350,154.220 235.207 L 153.325 233.397 153.325 201.319 L 153.325 169.240 153.897 167.821 C 155.844 162.985,162.384 160.469,167.184 162.709 M204.072 162.100 C 207.878 162.907,210.732 165.749,211.625 169.623 C 212.149 171.897,211.945 232.032,211.407 233.774 C 208.309 243.803,193.850 242.341,192.174 231.829 C 191.835 229.707,191.835 172.668,192.174 170.546 C 193.125 164.582,198.334 160.884,204.072 162.100 M245.131 162.862 C 248.126 164.292,250.028 166.806,250.586 170.074 C 250.772 171.163,250.830 180.641,250.781 202.375 L 250.713 233.135 249.861 234.918 C 245.508 244.034,232.325 241.812,231.095 231.756 C 230.633 227.975,230.934 170.191,231.423 168.729 C 233.324 163.054,239.763 160.298,245.131 162.862 " stroke="none" fill="#fcfcfc" fill-rule="evenodd"></path><path id="path2" d="M190.558 2.064 C 190.787 2.124,191.161 2.124,191.390 2.064 C 191.618 2.004,191.431 1.955,190.974 1.955 C 190.517 1.955,190.330 2.004,190.558 2.064 M204.694 2.068 C 204.989 2.125,205.417 2.123,205.644 2.063 C 205.871 2.004,205.629 1.958,205.107 1.960 C 204.584 1.963,204.399 2.011,204.694 2.068 M189.608 13.703 C 189.837 13.763,190.211 13.763,190.439 13.703 C 190.668 13.643,190.481 13.594,190.024 13.594 C 189.567 13.594,189.379 13.643,189.608 13.703 M196.033 23.455 C 197.183 23.499,199.000 23.498,200.071 23.454 C 201.142 23.411,200.202 23.375,197.981 23.375 C 195.760 23.375,194.884 23.411,196.033 23.455 M193.174 35.087 C 193.535 35.142,194.070 35.140,194.362 35.084 C 194.654 35.028,194.359 34.983,193.705 34.985 C 193.052 34.987,192.813 35.033,193.174 35.087 M201.841 35.084 C 202.135 35.141,202.616 35.141,202.910 35.084 C 203.204 35.028,202.963 34.982,202.375 34.982 C 201.787 34.982,201.547 35.028,201.841 35.084 M79.914 48.990 L 79.216 49.762 79.988 49.065 C 80.708 48.415,80.869 48.219,80.686 48.219 C 80.645 48.219,80.298 48.566,79.914 48.990 M73.500 55.404 L 72.803 56.176 73.575 55.478 C 73.999 55.094,74.347 54.747,74.347 54.706 C 74.347 54.523,74.151 54.684,73.500 55.404 M178.425 58.135 C 191.446 58.169,212.824 58.169,225.931 58.135 C 239.038 58.101,228.385 58.074,202.257 58.074 C 176.128 58.074,165.404 58.101,178.425 58.135 M174.781 130.819 C 189.718 130.853,214.088 130.853,228.938 130.819 C 243.788 130.786,231.568 130.758,201.781 130.758 C 171.995 130.758,159.845 130.786,174.781 130.819 M163.005 161.921 C 163.233 161.981,163.607 161.981,163.836 161.921 C 164.065 161.862,163.878 161.813,163.420 161.813 C 162.963 161.813,162.776 161.862,163.005 161.921 M369.176 164.608 C 369.176 165.065,369.225 165.252,369.285 165.024 C 369.345 164.795,369.345 164.421,369.285 164.192 C 369.225 163.964,369.176 164.151,369.176 164.608 M38.297 165.558 C 38.297 166.015,38.346 166.202,38.406 165.974 C 38.466 165.745,38.466 165.371,38.406 165.143 C 38.346 164.914,38.297 165.101,38.297 165.558 M26.663 166.390 C 26.666 166.912,26.715 167.098,26.771 166.802 C 26.828 166.507,26.826 166.079,26.767 165.852 C 26.707 165.625,26.661 165.867,26.663 166.390 M336.160 166.983 C 336.160 167.441,336.209 167.628,336.268 167.399 C 336.328 167.170,336.328 166.796,336.268 166.568 C 336.209 166.339,336.160 166.526,336.160 166.983 M347.808 168.171 C 347.808 168.759,347.854 168.999,347.911 168.705 C 347.968 168.412,347.968 167.931,347.911 167.637 C 347.854 167.343,347.808 167.583,347.808 168.171 M59.688 169.240 C 59.690 169.893,59.736 170.132,59.790 169.771 C 59.845 169.410,59.844 168.876,59.787 168.583 C 59.731 168.291,59.686 168.587,59.688 169.240 M357.819 173.278 C 357.819 175.760,357.854 176.743,357.897 175.463 C 357.940 174.182,357.940 172.151,357.897 170.950 C 357.854 169.748,357.818 170.796,357.819 173.278 M48.076 173.278 C 48.076 175.238,48.113 176.008,48.158 174.989 C 48.202 173.971,48.202 172.367,48.157 171.426 C 48.112 170.485,48.076 171.318,48.076 173.278 M369.440 173.278 C 369.441 174.323,369.483 174.721,369.533 174.162 C 369.583 173.604,369.582 172.749,369.531 172.262 C 369.480 171.776,369.439 172.233,369.440 173.278 M250.690 175.416 C 250.690 177.506,250.727 178.329,250.771 177.245 C 250.815 176.161,250.815 174.451,250.770 173.445 C 250.726 172.439,250.690 173.325,250.690 175.416 M153.275 174.228 C 153.276 174.881,153.323 175.120,153.377 174.759 C 153.432 174.398,153.430 173.864,153.374 173.572 C 153.317 173.279,153.273 173.575,153.275 174.228 M59.688 177.316 C 59.690 177.969,59.736 178.208,59.790 177.847 C 59.845 177.486,59.844 176.952,59.787 176.659 C 59.731 176.367,59.686 176.663,59.688 177.316 M347.808 178.385 C 347.808 178.973,347.854 179.213,347.911 178.919 C 347.968 178.625,347.968 178.144,347.911 177.850 C 347.854 177.556,347.808 177.797,347.808 178.385 M336.160 179.572 C 336.160 180.030,336.209 180.217,336.268 179.988 C 336.328 179.760,336.328 179.385,336.268 179.157 C 336.209 178.928,336.160 179.115,336.160 179.572 M26.663 180.166 C 26.666 180.689,26.715 180.875,26.771 180.579 C 26.828 180.284,26.826 179.856,26.767 179.629 C 26.707 179.402,26.661 179.644,26.663 180.166 M369.176 181.948 C 369.176 182.405,369.225 182.592,369.285 182.363 C 369.345 182.135,369.345 181.761,369.285 181.532 C 369.225 181.303,369.176 181.490,369.176 181.948 M250.674 230.166 C 250.674 231.146,250.716 231.547,250.767 231.057 C 250.818 230.567,250.818 229.765,250.767 229.276 C 250.716 228.786,250.674 229.186,250.674 230.166 M172.739 230.879 C 172.739 231.336,172.788 231.523,172.848 231.295 C 172.908 231.066,172.908 230.692,172.848 230.463 C 172.788 230.235,172.739 230.422,172.739 230.879 M233.254 237.129 C 233.254 237.170,233.602 237.517,234.026 237.901 L 234.798 238.599 234.100 237.827 C 233.450 237.107,233.254 236.945,233.254 237.129 M151.366 256.948 C 160.870 256.982,176.422 256.982,185.926 256.948 C 195.431 256.913,187.654 256.885,168.646 256.885 C 149.638 256.885,141.862 256.913,151.366 256.948 M259.086 256.947 C 261.731 256.986,266.060 256.986,268.705 256.947 C 271.351 256.909,269.186 256.878,263.895 256.878 C 258.605 256.878,256.440 256.909,259.086 256.947 M295.724 271.140 C 294.751 272.120,294.008 272.922,294.074 272.922 C 294.139 272.922,294.989 272.120,295.962 271.140 C 296.935 270.160,297.678 269.359,297.613 269.359 C 297.547 269.359,296.698 270.160,295.724 271.140 M303.908 279.394 L 302.969 280.404 303.979 279.465 C 304.917 278.592,305.097 278.385,304.918 278.385 C 304.879 278.385,304.424 278.839,303.908 279.394 M310.921 286.401 L 308.907 288.480 310.986 286.466 C 312.129 285.358,313.064 284.423,313.064 284.388 C 313.064 284.215,312.791 284.471,310.921 286.401 M319.114 294.596 L 317.696 296.081 319.181 294.663 C 319.997 293.883,320.665 293.215,320.665 293.178 C 320.665 293.003,320.431 293.217,319.114 294.596 M191.508 311.565 C 191.737 311.625,192.111 311.625,192.340 311.565 C 192.568 311.505,192.381 311.457,191.924 311.457 C 191.467 311.457,191.280 311.505,191.508 311.565 M203.622 311.565 C 203.851 311.625,204.225 311.625,204.454 311.565 C 204.682 311.505,204.495 311.457,204.038 311.457 C 203.581 311.457,203.394 311.505,203.622 311.565 M192.577 323.208 C 192.871 323.265,193.352 323.265,193.646 323.208 C 193.940 323.151,193.700 323.105,193.112 323.105 C 192.524 323.105,192.283 323.151,192.577 323.208 M202.316 323.208 C 202.610 323.265,203.091 323.265,203.385 323.208 C 203.679 323.151,203.438 323.105,202.850 323.105 C 202.262 323.105,202.022 323.151,202.316 323.208 M196.021 333.193 C 197.164 333.237,199.035 333.237,200.178 333.193 C 201.321 333.150,200.386 333.114,198.100 333.114 C 195.814 333.114,194.878 333.150,196.021 333.193 M189.133 344.582 C 189.362 344.642,189.736 344.642,189.964 344.582 C 190.193 344.522,190.006 344.473,189.549 344.473 C 189.091 344.473,188.904 344.522,189.133 344.582 " stroke="none" fill="#d48ca4" fill-rule="evenodd"></path><path id="path3" d="M319.121 52.019 C 319.897 52.803,320.585 53.444,320.650 53.444 C 320.716 53.444,320.134 52.803,319.359 52.019 C 318.583 51.235,317.895 50.594,317.830 50.594 C 317.764 50.594,318.345 51.235,319.121 52.019 M87.040 58.254 L 86.342 59.026 87.114 58.328 C 87.834 57.678,87.995 57.482,87.812 57.482 C 87.771 57.482,87.423 57.830,87.040 58.254 M82.764 62.530 L 82.067 63.302 82.838 62.604 C 83.263 62.220,83.610 61.873,83.610 61.832 C 83.610 61.649,83.414 61.810,82.764 62.530 M304.038 67.340 C 304.481 67.797,304.897 68.171,304.963 68.171 C 305.028 68.171,304.719 67.797,304.276 67.340 C 303.832 66.882,303.416 66.508,303.351 66.508 C 303.286 66.508,303.595 66.882,304.038 67.340 M101.887 73.812 L 101.069 74.703 101.960 73.885 C 102.450 73.434,102.850 73.033,102.850 72.994 C 102.850 72.812,102.649 72.983,101.887 73.812 M98.325 77.375 L 97.506 78.266 98.397 77.447 C 99.226 76.686,99.397 76.485,99.215 76.485 C 99.176 76.485,98.775 76.885,98.325 77.375 M305.688 277.613 L 304.869 278.504 305.760 277.685 C 306.250 277.235,306.651 276.834,306.651 276.794 C 306.651 276.613,306.450 276.784,305.688 277.613 M302.125 281.176 L 301.306 282.067 302.197 281.248 C 303.026 280.486,303.197 280.285,303.016 280.285 C 302.976 280.285,302.575 280.686,302.125 281.176 M321.365 292.340 L 320.546 293.230 321.437 292.412 C 321.927 291.962,322.328 291.561,322.328 291.521 C 322.328 291.340,322.127 291.511,321.365 292.340 M316.852 296.853 L 316.033 297.743 316.924 296.925 C 317.753 296.163,317.924 295.962,317.743 295.962 C 317.703 295.962,317.302 296.363,316.852 296.853 " stroke="none" fill="#e1a6ba" fill-rule="evenodd"></path><path id="path4" d="M191.033 13.703 C 191.262 13.763,191.636 13.763,191.865 13.703 C 192.093 13.643,191.906 13.594,191.449 13.594 C 190.992 13.594,190.805 13.643,191.033 13.703 M204.097 13.703 C 204.326 13.763,204.700 13.763,204.929 13.703 C 205.157 13.643,204.970 13.594,204.513 13.594 C 204.056 13.594,203.869 13.643,204.097 13.703 M192.577 23.446 C 192.871 23.502,193.352 23.502,193.646 23.446 C 193.940 23.389,193.700 23.343,193.112 23.343 C 192.524 23.343,192.283 23.389,192.577 23.446 M202.556 23.446 C 202.852 23.503,203.279 23.501,203.506 23.441 C 203.733 23.382,203.492 23.335,202.969 23.338 C 202.447 23.340,202.261 23.389,202.556 23.446 M196.249 35.093 C 197.125 35.138,198.621 35.139,199.574 35.093 C 200.527 35.048,199.810 35.011,197.981 35.011 C 196.152 35.010,195.372 35.047,196.249 35.093 M316.390 49.243 C 316.390 49.284,316.737 49.631,317.162 50.015 L 317.933 50.713 317.236 49.941 C 316.586 49.221,316.390 49.059,316.390 49.243 M321.378 54.276 C 321.821 54.733,322.237 55.107,322.302 55.107 C 322.368 55.107,322.058 54.733,321.615 54.276 C 321.172 53.818,320.756 53.444,320.691 53.444 C 320.625 53.444,320.934 53.818,321.378 54.276 M84.909 60.392 L 83.492 61.876 84.976 60.459 C 86.355 59.142,86.570 58.907,86.394 58.907 C 86.357 58.907,85.689 59.575,84.909 60.392 M302.257 65.558 C 302.767 66.081,303.238 66.508,303.303 66.508 C 303.368 66.508,303.004 66.081,302.494 65.558 C 301.984 65.036,301.513 64.608,301.448 64.608 C 301.382 64.608,301.746 65.036,302.257 65.558 M305.701 69.002 C 306.144 69.460,306.560 69.834,306.625 69.834 C 306.691 69.834,306.381 69.460,305.938 69.002 C 305.495 68.545,305.079 68.171,305.014 68.171 C 304.948 68.171,305.258 68.545,305.701 69.002 M100.108 75.594 L 99.169 76.603 100.178 75.664 C 101.117 74.791,101.297 74.584,101.117 74.584 C 101.078 74.584,100.624 75.039,100.108 75.594 M90.564 140.855 C 90.564 141.443,90.610 141.683,90.666 141.390 C 90.723 141.096,90.723 140.615,90.666 140.321 C 90.610 140.027,90.564 140.267,90.564 140.855 M201.606 161.926 C 201.902 161.983,202.329 161.980,202.556 161.921 C 202.783 161.861,202.542 161.815,202.019 161.818 C 201.496 161.820,201.311 161.869,201.606 161.926 M347.799 166.508 C 347.799 166.966,347.847 167.153,347.907 166.924 C 347.967 166.695,347.967 166.321,347.907 166.093 C 347.847 165.864,347.799 166.051,347.799 166.508 M38.297 166.983 C 38.297 167.441,38.346 167.628,38.406 167.399 C 38.466 167.170,38.466 166.796,38.406 166.568 C 38.346 166.339,38.297 166.526,38.297 166.983 M48.046 168.646 C 48.046 169.234,48.092 169.474,48.149 169.181 C 48.205 168.887,48.205 168.406,48.149 168.112 C 48.092 167.818,48.046 168.058,48.046 168.646 M336.164 168.765 C 336.167 169.287,336.216 169.473,336.273 169.178 C 336.329 168.882,336.327 168.455,336.268 168.228 C 336.208 168.001,336.162 168.242,336.164 168.765 M369.437 169.952 C 369.438 170.867,369.481 171.212,369.532 170.719 C 369.583 170.226,369.583 169.478,369.530 169.056 C 369.478 168.635,369.436 169.038,369.437 169.952 M59.711 173.278 C 59.711 174.846,59.750 175.456,59.796 174.634 C 59.843 173.813,59.842 172.530,59.795 171.784 C 59.748 171.038,59.710 171.710,59.711 173.278 M192.039 200.000 C 192.039 215.742,192.067 222.182,192.102 214.311 C 192.137 206.440,192.137 193.560,192.102 185.689 C 192.067 177.818,192.039 184.258,192.039 200.000 M153.262 172.447 C 153.262 172.904,153.311 173.091,153.370 172.862 C 153.430 172.634,153.430 172.260,153.370 172.031 C 153.311 171.802,153.262 171.989,153.262 172.447 M230.994 201.900 C 230.994 217.904,231.022 224.451,231.057 216.449 C 231.092 208.447,231.092 195.353,231.057 187.352 C 231.022 179.350,230.994 185.897,230.994 201.900 M369.437 176.603 C 369.438 177.518,369.481 177.863,369.532 177.370 C 369.583 176.877,369.583 176.129,369.530 175.707 C 369.478 175.286,369.436 175.689,369.437 176.603 M48.046 177.910 C 48.046 178.498,48.092 178.738,48.149 178.444 C 48.205 178.150,48.205 177.669,48.149 177.375 C 48.092 177.081,48.046 177.322,48.046 177.910 M336.169 177.910 C 336.169 178.498,336.216 178.738,336.272 178.444 C 336.329 178.150,336.329 177.669,336.272 177.375 C 336.216 177.081,336.169 177.322,336.169 177.910 M38.297 179.572 C 38.297 180.030,38.346 180.217,38.406 179.988 C 38.466 179.760,38.466 179.385,38.406 179.157 C 38.346 178.928,38.297 179.115,38.297 179.572 M173.021 218.646 C 173.021 221.128,173.056 222.111,173.099 220.831 C 173.142 219.550,173.141 217.519,173.098 216.318 C 173.055 215.116,173.020 216.164,173.021 218.646 M132.722 256.938 C 133.018 256.994,133.446 256.992,133.673 256.933 C 133.900 256.873,133.658 256.827,133.135 256.829 C 132.613 256.832,132.427 256.881,132.722 256.938 M215.974 256.948 C 222.996 256.983,234.486 256.983,241.508 256.948 C 248.530 256.913,242.785 256.884,228.741 256.884 C 214.697 256.884,208.952 256.913,215.974 256.948 M98.337 269.240 C 98.780 269.697,99.197 270.071,99.262 270.071 C 99.327 270.071,99.018 269.697,98.575 269.240 C 98.132 268.783,97.716 268.409,97.650 268.409 C 97.585 268.409,97.894 268.783,98.337 269.240 M101.425 272.283 C 101.425 272.324,101.773 272.672,102.197 273.055 L 102.969 273.753 102.271 272.981 C 101.621 272.261,101.425 272.100,101.425 272.283 M91.924 279.454 C 93.160 280.695,94.225 281.710,94.290 281.710 C 94.355 281.710,93.397 280.695,92.162 279.454 C 90.926 278.213,89.861 277.197,89.796 277.197 C 89.730 277.197,90.688 278.213,91.924 279.454 M82.660 283.967 C 83.104 284.424,83.520 284.798,83.585 284.798 C 83.650 284.798,83.341 284.424,82.898 283.967 C 82.455 283.510,82.039 283.135,81.973 283.135 C 81.908 283.135,82.217 283.510,82.660 283.967 M86.698 287.960 C 86.698 288.001,87.046 288.349,87.470 288.732 L 88.242 289.430 87.545 288.658 C 86.894 287.938,86.698 287.777,86.698 287.960 M76.603 294.537 C 78.036 295.974,79.261 297.150,79.327 297.150 C 79.392 297.150,78.273 295.974,76.841 294.537 C 75.408 293.100,74.183 291.924,74.117 291.924 C 74.052 291.924,75.171 293.100,76.603 294.537 M193.293 311.569 C 193.588 311.626,194.016 311.624,194.243 311.565 C 194.470 311.505,194.228 311.459,193.705 311.461 C 193.183 311.464,192.997 311.513,193.293 311.569 M201.841 311.569 C 202.135 311.626,202.616 311.626,202.910 311.569 C 203.204 311.512,202.963 311.466,202.375 311.466 C 201.787 311.466,201.547 311.512,201.841 311.569 M191.033 323.204 C 191.262 323.264,191.636 323.264,191.865 323.204 C 192.093 323.144,191.906 323.095,191.449 323.095 C 190.992 323.095,190.805 323.144,191.033 323.204 M195.784 344.833 C 197.058 344.875,199.142 344.875,200.416 344.833 C 201.689 344.790,200.647 344.755,198.100 344.755 C 195.552 344.755,194.510 344.790,195.784 344.833 " stroke="none" fill="#ecc4d4" fill-rule="evenodd"></path></g></svg>