<svg id="svg" version="1.1" xmlns="http://www.w3.org/2000/svg" xmlns:xlink="http://www.w3.org/1999/xlink" width="400" height="363.4615384615385" viewBox="0, 0, 400,363.4615384615385"><g id="svgg"><path id="path0" d="M178.691 0.473 C 174.131 1.455,172.710 4.074,171.767 13.233 C 171.094 19.776,172.019 22.830,175.378 25.143 C 177.150 26.363,177.254 27.015,176.421 31.682 C 175.871 34.767,175.600 35.254,174.306 35.476 C 173.828 35.558,170.246 36.258,166.346 37.031 C 162.446 37.805,158.029 38.606,156.530 38.812 C 148.348 39.936,144.382 42.961,142.583 49.451 C 142.320 50.401,141.707 52.021,141.221 53.053 C 137.106 61.782,138.896 70.384,146.610 78.949 C 150.420 83.180,151.333 86.356,151.815 97.075 C 151.900 98.970,152.049 101.100,152.145 101.809 L 152.320 103.097 150.926 104.709 C 147.477 108.697,148.023 112.473,152.557 115.989 C 159.888 121.674,165.001 126.298,165.289 127.504 C 165.399 127.962,165.272 128.841,164.925 130.029 C 163.089 136.323,161.297 137.443,152.847 137.579 L 148.918 137.642 147.223 138.538 C 145.355 139.524,143.456 141.243,142.786 142.555 C 141.773 144.537,140.798 153.062,141.029 157.906 C 141.231 162.125,140.797 164.389,138.421 171.514 C 137.363 174.688,136.426 177.356,136.338 177.443 C 136.250 177.531,135.381 176.687,134.407 175.567 C 130.801 171.420,108.106 153.211,103.946 151.127 C 98.362 148.330,93.154 149.032,86.676 153.456 C 83.480 155.638,82.872 155.776,80.314 154.899 C 75.903 153.386,72.747 154.122,70.461 157.197 C 69.048 159.096,67.480 160.509,63.221 163.720 C 55.734 169.364,52.709 173.567,51.777 179.617 C 51.166 183.582,51.053 183.881,49.640 185.259 C 47.558 187.289,43.633 188.221,37.162 188.221 C 25.750 188.221,19.342 190.691,15.012 196.758 L 13.942 198.258 13.942 201.008 L 13.942 203.759 16.316 207.156 C 22.390 215.851,24.175 219.963,25.367 228.005 C 28.050 246.108,35.465 261.229,48.142 274.444 C 54.228 280.789,56.753 284.497,59.065 290.484 C 63.542 302.075,69.025 307.729,76.563 308.527 C 79.076 308.792,78.963 308.715,78.997 310.190 C 79.066 313.148,80.974 315.400,84.856 317.106 C 91.373 319.970,97.392 322.379,98.583 322.599 C 101.977 323.226,104.745 321.528,106.422 317.788 C 106.749 317.061,107.040 316.441,107.070 316.410 C 107.100 316.379,107.545 316.568,108.060 316.831 C 109.844 317.740,110.982 317.547,120.129 314.778 C 124.725 313.386,131.839 311.270,135.938 310.076 C 146.514 306.993,148.090 306.284,150.003 303.750 C 150.930 302.521,151.923 300.505,151.923 299.852 C 151.923 298.960,154.561 299.796,157.692 301.682 C 165.421 306.337,172.331 306.498,180.993 302.226 L 183.741 300.870 184.839 302.097 C 189.643 307.462,190.977 314.580,188.974 324.159 C 188.060 328.529,188.026 329.751,188.392 344.511 L 188.582 352.122 189.904 351.344 C 190.631 350.915,193.876 349.075,197.115 347.253 C 200.355 345.431,203.953 343.346,205.112 342.619 C 207.561 341.084,207.574 341.085,208.919 343.065 C 209.482 343.894,211.449 346.443,213.289 348.729 L 216.636 352.885 220.079 352.885 L 223.522 352.885 225.390 350.115 L 227.258 347.345 229.825 345.915 C 237.619 341.571,241.874 338.123,249.056 330.332 C 251.779 327.378,252.794 327.097,259.255 327.509 C 265.575 327.912,270.596 325.346,274.201 319.872 C 274.825 318.924,275.920 317.500,276.633 316.707 C 279.560 313.453,280.317 309.915,278.994 305.672 C 277.385 300.511,274.892 298.730,268.600 298.247 L 265.205 297.987 265.083 294.967 C 264.936 291.325,264.448 289.626,261.972 284.143 C 260.261 280.356,258.894 276.637,258.894 275.771 C 258.894 275.081,260.134 274.093,262.716 272.726 L 264.968 271.533 264.811 269.120 C 264.366 262.276,261.784 259.091,255.161 257.212 C 247.305 254.984,243.029 253.522,243.029 253.064 C 243.029 251.969,244.565 248.965,245.816 247.613 C 247.565 245.725,249.181 245.016,252.445 244.707 C 259.942 243.997,262.418 243.689,265.098 243.133 C 271.880 241.725,278.845 239.250,286.001 235.706 C 290.955 233.253,290.445 233.338,300.361 233.306 C 316.001 233.255,324.504 229.425,331.414 219.320 C 336.682 211.616,337.709 206.130,334.897 200.719 C 330.944 193.112,331.459 188.857,337.256 181.239 C 342.838 173.904,345.093 170.830,347.853 166.794 C 355.497 155.620,360.469 151.154,368.159 148.554 C 373.979 146.587,375.984 141.276,373.229 135.120 C 371.795 131.913,369.952 126.197,369.952 124.952 C 369.952 123.840,372.358 114.153,373.254 111.659 C 374.702 107.627,376.486 104.931,379.515 102.196 C 384.835 97.392,383.501 92.527,376.317 90.534 C 371.488 89.194,369.152 87.612,365.036 82.890 C 358.746 75.675,353.326 73.920,347.051 77.070 C 344.838 78.181,335.820 86.234,321.751 99.664 C 315.317 105.805,315.579 105.699,310.886 104.057 C 303.053 101.316,285.521 95.636,284.164 95.399 C 276.693 94.098,270.495 99.409,268.990 108.399 C 268.161 113.357,270.078 116.910,275.206 119.919 C 276.415 120.628,277.404 121.256,277.404 121.315 C 277.404 121.763,274.003 129.672,273.028 131.490 C 271.023 135.230,270.554 135.817,269.567 135.817 C 266.837 135.817,262.201 137.669,259.138 139.983 C 258.148 140.731,257.175 141.296,256.975 141.239 C 255.663 140.866,251.174 140.344,249.142 140.329 C 243.243 140.283,241.223 142.894,239.661 152.584 C 239.506 153.543,239.303 154.327,239.210 154.327 C 239.116 154.327,238.017 154.094,236.768 153.810 C 232.829 152.915,229.523 153.042,226.683 154.197 C 222.765 155.792,221.592 155.534,218.535 152.409 C 216.091 149.909,214.098 148.960,210.216 148.444 C 205.787 147.856,203.054 146.489,199.432 143.050 C 196.028 139.819,194.425 138.947,191.476 138.723 C 190.413 138.642,189.561 138.469,189.583 138.339 C 189.605 138.208,190.015 135.613,190.495 132.572 C 192.006 122.988,192.168 122.336,193.579 120.144 C 195.459 117.222,197.876 115.640,200.481 115.628 C 207.849 115.595,209.752 113.692,211.182 104.928 C 212.744 95.349,215.707 90.024,221.875 85.706 C 228.903 80.787,232.639 79.665,236.977 81.169 C 240.658 82.445,243.332 81.733,246.366 78.668 C 250.428 74.564,251.906 70.093,250.264 66.874 L 249.744 65.853 251.804 62.258 C 257.336 52.605,256.351 49.527,246.521 45.738 C 245.327 45.278,244.285 44.862,244.204 44.813 C 244.123 44.764,244.211 44.154,244.400 43.456 C 245.688 38.680,245.080 37.870,233.460 28.874 L 228.099 24.723 226.971 25.643 C 219.633 31.627,218.081 36.596,221.548 43.009 C 223.555 46.720,223.195 48.416,219.612 52.124 C 216.134 55.726,213.598 57.211,210.610 57.398 L 208.577 57.524 208.726 55.505 C 208.808 54.394,209.812 47.969,210.958 41.226 C 213.621 25.557,213.630 24.734,211.180 21.396 C 209.124 18.597,203.372 15.625,200.008 15.625 C 199.210 15.625,198.558 15.573,198.558 15.510 C 198.558 15.447,199.585 13.267,200.841 10.666 C 202.097 8.064,203.125 5.865,203.125 5.778 C 203.125 5.626,194.997 2.108,192.788 1.304 C 191.108 0.693,180.559 0.071,178.691 0.473 M186.899 8.037 C 190.441 8.353,193.029 9.043,193.029 9.672 C 193.029 10.432,191.110 13.361,189.561 14.966 C 186.713 17.918,186.453 18.676,185.836 25.841 C 185.699 27.428,185.197 31.214,184.720 34.255 C 183.467 42.238,183.528 43.109,185.775 49.375 C 186.719 52.005,187.533 54.199,187.583 54.250 C 187.676 54.343,188.327 52.829,194.789 37.500 C 198.246 29.299,200.728 23.517,200.862 23.353 C 200.985 23.201,203.685 24.523,204.462 25.115 C 205.971 26.266,205.981 25.993,203.992 37.763 C 200.704 57.214,200.565 59.600,202.534 62.933 C 203.996 65.408,212.646 65.652,217.193 63.346 C 221.448 61.188,226.986 55.984,228.941 52.308 C 230.764 48.879,230.395 43.253,228.096 39.438 C 226.888 37.433,226.930 35.948,228.225 34.873 C 228.572 34.584,232.312 37.272,236.477 40.805 L 237.257 41.466 236.898 42.646 C 235.507 47.216,237.205 50.083,242.548 52.190 C 243.936 52.737,245.644 53.438,246.343 53.747 L 247.614 54.308 246.973 55.580 C 246.621 56.279,245.600 58.098,244.703 59.622 C 242.200 63.878,241.759 66.295,242.979 69.054 L 243.461 70.144 242.977 70.950 C 241.197 73.912,240.414 74.395,238.441 73.745 C 232.830 71.897,225.878 73.778,218.029 79.268 C 209.623 85.147,205.850 91.646,203.853 103.687 C 203.092 108.275,203.165 108.162,200.962 108.174 C 191.813 108.224,185.900 114.521,184.009 126.227 C 183.658 128.395,183.095 131.737,182.756 133.654 C 181.106 143.001,182.555 145.919,188.904 146.033 C 191.723 146.084,192.102 146.260,194.351 148.560 C 198.195 152.491,202.699 154.768,208.403 155.664 C 211.640 156.172,211.899 156.294,213.675 158.140 C 218.108 162.747,223.148 163.737,229.308 161.210 C 231.224 160.424,231.773 160.424,235.547 161.201 C 242.931 162.722,245.705 161.043,246.902 154.328 C 248.252 146.756,247.641 147.337,253.366 148.178 C 259.401 149.065,259.884 148.981,262.941 146.506 C 265.617 144.340,268.818 143.059,271.635 143.028 C 274.425 142.996,277.009 140.238,280.159 133.925 C 281.447 131.346,286.538 118.933,286.538 118.374 C 286.538 118.232,284.889 117.106,282.873 115.873 C 280.856 114.640,278.688 113.309,278.055 112.914 C 274.304 110.578,277.424 102.650,282.091 102.656 C 282.986 102.657,297.833 107.415,307.918 110.933 C 315.667 113.636,318.442 113.069,324.270 107.594 C 325.971 105.995,329.617 102.564,332.372 99.968 C 347.485 85.726,350.593 83.169,352.780 83.178 C 355.040 83.188,355.486 83.538,361.081 89.682 C 364.249 93.162,367.479 95.393,371.366 96.784 C 372.373 97.144,373.241 97.473,373.295 97.515 C 373.348 97.557,372.856 98.160,372.200 98.856 C 368.477 102.804,366.503 107.218,363.937 117.328 C 361.876 125.448,362.277 129.157,366.119 137.522 C 367.501 140.532,367.384 140.839,364.423 141.940 C 355.988 145.076,349.420 151.054,341.570 162.740 C 340.460 164.393,336.946 169.207,333.761 173.438 C 327.319 181.996,326.967 182.533,326.115 185.096 C 324.142 191.034,325.074 198.662,328.493 204.567 C 331.064 209.008,322.899 220.404,314.701 223.817 C 310.323 225.640,309.295 225.779,298.918 225.964 C 288.045 226.157,288.399 226.097,283.617 228.551 C 273.481 233.753,264.869 236.236,253.846 237.135 C 244.698 237.880,240.662 240.254,237.492 246.755 C 234.305 253.288,234.634 257.810,238.433 259.715 C 239.530 260.265,248.382 263.077,252.968 264.332 C 256.788 265.378,257.924 266.825,255.919 268.092 C 250.398 271.580,250.179 276.162,255.021 286.855 C 257.367 292.036,257.757 293.380,257.684 296.034 C 257.540 301.310,257.731 302.057,259.635 303.687 C 261.125 304.962,262.371 305.293,266.563 305.525 C 270.970 305.769,271.283 305.916,271.931 308.043 C 272.471 309.816,272.326 310.319,270.802 311.979 C 270.114 312.728,269.001 314.162,268.329 315.164 C 265.334 319.631,262.790 320.701,256.971 319.942 C 252.056 319.302,246.941 321.330,243.448 325.305 C 237.685 331.862,233.142 335.530,225.548 339.757 C 222.612 341.392,221.963 341.912,220.889 343.494 C 220.440 344.157,219.964 344.696,219.832 344.691 C 219.553 344.682,217.251 341.839,215.275 339.063 C 210.682 332.609,207.863 332.258,199.750 337.130 C 197.616 338.412,195.810 339.400,195.736 339.326 C 195.238 338.827,195.601 328.362,196.218 325.460 C 198.821 313.214,196.846 304.044,190.015 296.667 C 186.588 292.964,183.657 292.699,177.644 295.545 C 170.999 298.690,167.237 298.664,161.834 295.435 C 159.654 294.132,154.312 291.771,152.526 291.322 C 148.978 290.428,145.676 292.629,145.077 296.285 C 144.522 299.675,144.238 299.857,135.577 302.378 C 131.941 303.437,124.912 305.535,119.957 307.041 L 110.947 309.779 109.721 309.217 C 105.342 307.212,101.919 309.155,99.401 315.074 C 99.389 315.101,96.680 313.984,93.380 312.592 C 90.080 311.199,87.205 310.005,86.992 309.939 C 86.700 309.847,86.572 309.387,86.473 308.067 C 86.151 303.816,84.142 302.088,78.606 301.305 C 72.582 300.453,70.068 297.720,65.955 287.554 C 63.156 280.635,60.238 276.288,53.977 269.712 C 41.590 256.700,35.114 243.496,32.580 226.082 C 31.461 218.389,29.277 213.062,24.000 205.154 C 20.958 200.595,21.025 200.900,22.714 199.302 C 25.520 196.649,28.112 195.976,36.734 195.662 C 51.979 195.107,57.434 191.875,58.793 182.592 C 59.651 176.728,61.091 174.731,68.528 169.091 C 71.808 166.604,75.041 163.674,76.152 162.184 L 76.657 161.507 78.412 162.147 C 82.474 163.627,85.906 162.952,90.763 159.719 C 97.777 155.050,97.945 155.103,112.210 166.526 C 125.406 177.094,126.964 178.443,130.001 181.937 C 133.290 185.721,134.269 186.629,135.485 187.023 C 135.998 187.188,137.489 187.748,138.798 188.266 C 141.628 189.386,141.350 189.618,142.152 185.457 C 142.586 183.207,143.482 180.059,144.855 175.962 C 148.139 166.165,148.576 163.827,148.495 156.490 C 148.378 145.961,148.839 145.087,154.616 144.879 C 165.178 144.499,169.320 141.402,172.165 131.759 C 174.169 124.966,171.840 121.425,158.714 111.307 C 156.367 109.498,156.472 109.935,157.929 108.035 C 159.581 105.879,159.979 104.440,159.639 101.850 C 159.496 100.766,159.269 97.770,159.133 95.192 C 158.518 83.508,157.115 79.399,151.638 73.243 C 146.069 66.985,145.183 62.464,148.211 55.769 C 148.779 54.513,149.423 52.787,149.642 51.934 C 150.657 47.966,152.240 46.903,158.413 46.041 C 159.934 45.829,163.567 45.172,166.487 44.581 C 169.406 43.991,172.957 43.294,174.378 43.033 C 180.646 41.881,182.569 39.791,183.761 32.835 C 185.058 25.263,184.242 22.398,179.829 19.040 C 178.722 18.197,178.718 14.081,179.818 8.951 L 180.088 7.692 181.691 7.704 C 182.572 7.711,184.916 7.861,186.899 8.037 " stroke="none" fill="#54351d" fill-rule="evenodd"></path><path id="path1" d="M0.000 181.731 L 0.000 363.462 200.000 363.462 L 400.000 363.462 400.000 181.731 L 400.000 0.000 291.166 0.038 C 231.307 0.060,182.656 0.112,183.053 0.155 C 183.450 0.198,185.516 0.335,187.644 0.460 C 191.210 0.669,191.683 0.752,193.654 1.522 C 196.133 2.490,203.147 5.471,203.295 5.619 C 203.350 5.674,202.847 6.812,202.176 8.148 C 201.506 9.483,200.478 11.658,199.891 12.981 L 198.826 15.385 199.850 15.385 C 202.842 15.385,208.041 17.894,210.554 20.551 C 213.839 24.024,213.866 24.900,211.182 40.745 C 210.040 47.488,209.042 53.951,208.964 55.108 L 208.823 57.212 210.623 57.212 C 212.857 57.212,214.322 56.543,217.273 54.179 C 222.409 50.064,223.721 46.863,221.650 43.497 C 217.833 37.294,219.089 32.564,226.253 26.152 L 228.042 24.550 233.793 29.010 C 245.156 37.822,245.473 38.219,244.679 42.621 C 244.507 43.572,244.363 44.444,244.359 44.558 C 244.354 44.672,244.784 44.929,245.313 45.129 C 256.430 49.343,257.633 52.319,252.115 61.958 C 249.722 66.137,249.828 65.792,250.521 67.137 C 251.995 70.003,250.372 74.803,246.666 78.538 C 243.356 81.873,240.907 82.611,237.260 81.370 C 233.653 80.143,230.289 80.657,226.191 83.059 C 216.246 88.890,213.089 93.740,211.081 106.277 C 209.894 113.683,207.387 115.814,199.810 115.858 C 197.422 115.872,194.885 117.873,193.225 121.051 C 192.248 122.922,191.973 124.131,190.756 131.895 C 190.297 134.828,189.851 137.505,189.766 137.844 C 189.615 138.445,189.643 138.462,190.814 138.462 C 193.721 138.462,196.264 139.777,199.542 142.975 C 202.796 146.150,205.819 147.714,209.615 148.188 C 213.809 148.711,216.008 149.719,218.510 152.266 C 221.504 155.315,223.069 155.673,226.609 154.119 C 229.623 152.796,232.407 152.692,236.970 153.731 C 239.191 154.236,239.327 154.174,239.530 152.551 C 240.893 141.639,244.044 139.083,254.219 140.636 L 257.439 141.127 259.188 139.814 C 262.196 137.558,265.790 136.040,268.980 135.679 C 271.003 135.450,272.683 132.829,275.797 125.047 C 277.468 120.872,277.526 121.405,275.258 120.097 C 268.250 116.055,266.883 110.292,270.975 102.043 C 273.358 97.241,278.657 94.374,283.670 95.176 C 285.360 95.447,298.070 99.505,307.559 102.803 C 316.021 105.745,315.175 105.931,321.584 99.718 C 326.103 95.336,333.809 88.193,341.160 81.572 C 350.065 73.550,356.614 73.365,363.378 80.944 C 369.029 87.276,371.204 88.906,375.761 90.223 C 383.518 92.465,385.175 97.075,379.934 101.839 C 375.356 106.001,373.811 109.113,371.248 119.334 C 370.286 123.172,369.962 124.860,370.075 125.459 C 370.371 127.040,372.315 132.823,373.152 134.615 C 375.142 138.878,375.198 140.626,373.452 144.143 C 372.088 146.892,371.360 147.537,368.493 148.535 C 360.346 151.372,355.361 155.840,347.820 167.067 C 346.710 168.720,343.153 173.588,339.917 177.885 C 333.068 186.977,332.900 187.289,332.750 191.226 C 332.608 194.932,333.032 196.745,334.910 200.455 L 336.418 203.435 336.418 206.465 C 336.418 214.304,329.369 224.544,320.642 229.381 C 314.764 232.638,308.803 233.785,299.159 233.513 C 291.626 233.301,290.820 233.432,286.575 235.559 C 276.086 240.813,266.270 243.727,256.558 244.471 C 248.640 245.077,246.970 245.705,244.946 248.837 C 243.968 250.350,242.910 253.117,243.209 253.379 C 243.418 253.562,252.803 256.454,255.641 257.210 C 261.785 258.845,264.904 262.973,264.904 269.470 L 264.904 271.772 263.306 272.560 C 258.163 275.096,258.128 275.399,261.998 283.848 C 264.533 289.381,265.385 292.407,265.385 295.875 C 265.385 298.113,265.321 298.066,268.389 298.077 C 274.368 298.098,277.757 300.643,279.320 306.284 C 280.412 310.226,279.452 314.152,276.800 316.587 C 276.440 316.917,275.489 318.161,274.686 319.351 C 270.622 325.377,266.429 327.785,260.216 327.662 C 252.441 327.508,253.130 327.461,251.705 328.246 C 250.879 328.702,249.743 329.708,248.585 331.008 C 242.822 337.479,237.527 341.747,230.094 345.909 L 227.377 347.431 225.707 349.857 C 224.789 351.192,223.891 352.473,223.711 352.704 C 223.428 353.069,222.940 353.125,220.037 353.125 L 216.689 353.125 213.546 349.219 C 211.818 347.070,209.785 344.447,209.028 343.389 C 207.434 341.160,207.645 341.180,204.741 343.001 C 203.522 343.766,200.901 345.292,198.918 346.392 C 196.935 347.492,193.829 349.240,192.017 350.278 C 190.204 351.315,188.625 352.163,188.508 352.163 C 188.186 352.163,187.905 329.566,188.201 327.524 C 188.335 326.599,188.656 324.814,188.914 323.558 C 190.850 314.115,189.473 307.182,184.652 302.103 C 183.595 300.990,183.767 300.980,181.214 302.289 C 172.952 306.525,165.268 306.466,158.231 302.115 C 157.340 301.564,155.639 300.709,154.452 300.214 L 152.294 299.315 151.793 300.698 C 150.123 305.312,148.017 306.666,137.970 309.592 C 134.340 310.648,127.043 312.824,121.755 314.427 C 110.243 317.916,110.218 317.920,107.425 316.726 C 107.123 316.597,106.917 316.857,106.492 317.905 C 104.819 322.027,100.888 323.800,96.826 322.265 C 94.739 321.476,87.660 318.496,84.666 317.146 C 80.861 315.429,78.846 312.943,78.846 309.964 L 78.846 308.956 77.344 308.791 C 69.072 307.881,63.832 302.792,59.260 291.228 C 56.510 284.271,54.132 280.766,47.391 273.734 C 35.586 261.420,28.294 246.749,25.499 229.688 C 24.227 221.919,23.846 220.530,21.879 216.466 C 20.531 213.682,18.855 210.967,15.845 206.691 L 13.702 203.646 13.702 201.018 C 13.702 198.455,13.721 198.363,14.457 197.332 C 19.430 190.369,23.950 188.538,37.500 187.994 C 48.204 187.565,50.558 186.395,51.335 181.120 C 52.475 173.382,54.926 169.882,64.081 162.928 C 67.224 160.541,69.242 158.633,71.110 156.284 C 72.980 153.934,77.027 153.287,80.434 154.794 C 82.505 155.710,83.688 155.423,86.758 153.260 C 93.507 148.504,99.589 148.100,105.816 151.993 C 110.055 154.644,130.794 171.626,134.122 175.172 C 135.540 176.683,136.326 177.361,136.405 177.140 C 140.581 165.384,140.655 165.049,140.875 156.731 C 141.296 140.851,143.316 137.727,153.365 137.419 C 161.444 137.171,162.943 136.198,164.800 129.995 L 165.385 128.038 164.903 127.041 C 164.328 125.854,161.534 123.301,156.130 119.027 C 149.402 113.707,148.335 112.301,148.621 109.144 C 148.775 107.442,149.394 106.208,150.943 104.513 L 152.150 103.193 151.934 101.176 C 151.816 100.066,151.653 97.644,151.571 95.793 C 151.152 86.258,150.071 82.797,146.192 78.572 C 138.862 70.586,137.118 62.620,140.780 53.846 C 141.249 52.722,142.054 50.582,142.569 49.090 C 144.903 42.329,148.385 39.789,156.971 38.585 C 159.095 38.287,168.351 36.544,174.913 35.205 C 175.724 35.040,176.671 31.090,176.679 27.836 L 176.683 26.225 175.627 25.499 C 171.833 22.889,170.857 19.473,171.739 11.902 C 172.695 3.708,174.472 0.965,179.285 0.259 C 180.035 0.149,140.003 0.045,90.325 0.029 L 0.000 0.000 0.000 181.731 M179.943 8.954 C 178.613 17.111,178.736 18.376,180.999 19.796 C 186.115 23.007,185.365 37.210,179.868 41.211 C 178.161 42.453,166.882 45.050,157.813 46.288 C 152.311 47.040,150.746 48.102,149.866 51.683 C 149.654 52.542,149.001 54.285,148.413 55.556 C 145.271 62.352,146.234 67.224,151.959 73.492 C 156.873 78.872,158.600 83.564,159.142 93.009 C 159.275 95.333,159.490 98.432,159.620 99.894 C 160.069 104.957,159.820 106.059,157.679 108.492 L 156.726 109.575 160.755 112.811 C 172.747 122.444,174.435 125.337,172.142 132.332 C 169.075 141.690,164.949 144.669,154.447 145.107 C 152.226 145.200,150.600 145.380,150.212 145.575 C 149.200 146.086,148.721 149.594,148.656 156.971 C 148.591 164.454,148.324 165.883,145.294 174.937 C 143.662 179.815,142.813 182.790,142.278 185.514 C 141.867 187.598,141.506 189.332,141.474 189.368 C 141.414 189.435,136.475 187.571,134.757 186.834 C 134.080 186.543,132.921 185.409,130.619 182.783 C 126.543 178.132,126.270 177.897,108.534 163.714 C 98.606 155.776,97.390 155.494,91.089 159.666 C 85.966 163.058,82.883 163.739,78.748 162.394 L 76.740 161.741 74.513 164.043 C 73.285 165.313,70.497 167.717,68.295 169.405 C 61.311 174.759,59.761 176.871,59.024 182.036 C 57.591 192.078,52.246 195.256,35.697 195.902 C 27.704 196.214,25.243 196.904,22.550 199.591 C 21.115 201.023,21.078 200.737,23.063 203.553 C 28.711 211.566,31.333 217.517,32.564 225.120 C 35.700 244.486,41.325 256.271,53.538 269.059 C 60.434 276.281,63.307 280.521,66.114 287.620 C 70.033 297.535,72.763 300.449,78.822 301.186 C 84.002 301.816,86.548 304.172,86.612 308.394 L 86.630 309.603 88.808 310.550 C 92.979 312.364,99.311 314.951,99.376 314.868 C 99.412 314.821,99.770 314.081,100.171 313.221 C 102.166 308.954,105.820 307.330,109.605 309.029 L 110.976 309.644 121.293 306.516 C 126.968 304.795,133.882 302.731,136.659 301.929 C 144.103 299.780,144.190 299.720,145.056 296.034 C 146.523 289.788,152.183 289.549,161.899 295.321 C 167.427 298.605,171.011 298.587,178.005 295.240 L 181.370 293.630 183.654 293.631 C 187.332 293.633,189.599 295.252,192.929 300.254 C 197.494 307.111,198.628 314.950,196.492 324.880 C 195.813 328.038,195.459 335.064,195.840 337.820 L 196.034 339.221 199.519 337.120 C 207.681 332.201,210.721 332.452,214.918 338.393 C 218.332 343.225,219.782 344.821,220.186 344.192 C 221.245 342.542,223.174 340.894,225.590 339.577 C 231.282 336.475,236.382 332.717,239.784 329.121 C 247.964 320.471,249.839 319.430,256.490 319.846 C 263.615 320.291,265.261 319.639,268.173 315.217 C 268.925 314.076,270.132 312.498,270.857 311.709 C 272.143 310.310,272.172 310.248,272.041 309.147 C 271.695 306.218,271.165 305.897,266.346 305.684 C 259.510 305.383,257.274 303.358,257.551 297.716 C 257.738 293.903,257.444 292.634,255.206 287.597 C 249.837 275.514,250.080 271.702,256.485 267.524 C 257.937 266.578,256.191 265.408,251.122 263.930 C 245.012 262.150,239.541 260.415,238.547 259.943 C 235.196 258.353,234.329 254.920,236.024 249.957 C 238.949 241.394,243.932 237.668,253.336 237.012 C 264.387 236.241,272.471 233.965,283.158 228.613 C 288.616 225.880,288.310 225.935,299.399 225.730 C 309.782 225.538,310.524 225.438,314.717 223.670 C 323.668 219.895,330.930 208.922,327.916 203.726 C 325.827 200.125,324.853 195.649,325.071 190.662 C 325.310 185.211,326.156 183.287,331.266 176.563 C 337.326 168.588,338.756 166.639,341.587 162.500 C 349.754 150.561,356.038 144.860,364.371 141.835 C 367.141 140.829,367.327 140.394,366.102 137.791 C 364.278 133.914,362.272 127.069,362.264 124.692 C 362.259 123.414,364.717 113.321,365.873 109.870 C 367.356 105.445,369.229 102.045,371.814 99.088 C 372.541 98.256,373.096 97.549,373.046 97.517 C 372.997 97.485,372.362 97.257,371.635 97.010 C 366.939 95.416,363.894 93.107,358.722 87.221 C 355.365 83.400,353.284 82.517,350.617 83.783 C 349.347 84.385,335.671 96.788,325.976 106.130 C 320.268 111.630,318.576 112.584,314.543 112.575 L 312.380 112.570 297.912 107.727 C 278.992 101.394,279.132 101.393,276.891 107.905 C 275.757 111.201,276.035 111.595,282.091 115.296 C 284.339 116.669,286.328 117.885,286.511 117.999 C 287.183 118.414,280.531 134.127,277.949 138.221 C 276.037 141.254,273.361 143.262,271.226 143.267 C 268.549 143.273,265.749 144.404,263.073 146.560 C 260.054 148.992,258.763 149.222,253.245 148.312 C 247.848 147.422,248.390 146.968,247.238 153.344 C 245.827 161.155,243.332 162.928,235.907 161.398 C 232.244 160.643,230.949 160.705,228.012 161.775 C 222.617 163.740,218.467 162.815,214.115 158.679 C 211.571 156.262,211.799 156.378,208.603 155.870 C 202.764 154.941,198.111 152.601,194.347 148.699 C 192.132 146.403,191.900 146.295,188.834 146.137 C 183.157 145.843,180.947 142.802,182.095 136.860 C 182.295 135.824,182.830 132.596,183.285 129.688 C 184.801 119.984,185.435 118.110,188.508 114.246 C 191.742 110.179,195.232 108.342,200.297 108.040 L 202.878 107.887 203.106 107.008 C 203.231 106.525,203.512 104.940,203.730 103.486 C 205.460 91.956,210.038 84.425,218.870 78.581 C 227.130 73.115,231.888 71.899,238.327 73.609 L 240.236 74.116 241.398 72.852 C 243.229 70.860,243.389 70.422,242.830 68.918 C 241.605 65.625,241.908 64.247,245.075 58.714 C 247.765 54.011,247.777 54.460,244.935 53.304 C 243.688 52.797,241.995 52.105,241.172 51.767 C 237.279 50.169,235.525 46.773,236.629 42.974 C 236.844 42.237,237.019 41.569,237.019 41.490 C 237.019 41.363,231.511 36.917,229.292 35.254 L 228.416 34.597 227.910 35.416 C 227.134 36.671,227.251 37.814,228.340 39.649 C 232.702 46.999,229.629 55.191,220.072 61.687 C 215.861 64.549,214.410 64.975,208.978 64.948 C 202.619 64.916,201.504 63.816,201.261 57.332 C 201.131 53.848,201.166 53.582,203.984 36.899 C 204.833 31.875,205.527 27.475,205.528 27.122 C 205.530 25.416,201.025 22.657,200.591 24.099 C 200.501 24.396,200.045 25.505,199.578 26.563 C 199.111 27.620,196.265 34.327,193.254 41.466 C 190.242 48.606,187.704 54.447,187.613 54.447 C 187.425 54.447,184.572 46.502,184.018 44.436 C 183.469 42.391,183.571 40.603,184.618 33.894 C 185.145 30.523,185.687 26.250,185.823 24.399 C 186.225 18.929,186.593 17.954,189.313 15.144 C 190.965 13.438,192.788 10.630,192.788 9.793 C 192.788 8.851,187.418 7.930,181.942 7.932 L 180.110 7.933 179.943 8.954 " stroke="none" fill="#fbfbfb" fill-rule="evenodd"></path><path id="path2" d="M352.347 75.651 C 352.646 75.708,353.078 75.706,353.308 75.646 C 353.538 75.586,353.293 75.539,352.764 75.541 C 352.236 75.544,352.048 75.593,352.347 75.651 M362.328 124.639 C 362.330 125.300,362.377 125.542,362.432 125.177 C 362.487 124.812,362.486 124.271,362.429 123.975 C 362.372 123.679,362.327 123.978,362.328 124.639 M181.791 139.543 C 181.794 140.072,181.843 140.260,181.901 139.961 C 181.958 139.662,181.956 139.229,181.896 139.000 C 181.836 138.770,181.789 139.014,181.791 139.543 M148.386 155.168 C 148.388 155.829,148.435 156.071,148.490 155.706 C 148.545 155.340,148.544 154.800,148.487 154.504 C 148.429 154.208,148.384 154.507,148.386 155.168 M239.366 161.949 C 239.665 162.006,240.097 162.004,240.327 161.944 C 240.557 161.884,240.313 161.837,239.784 161.839 C 239.255 161.842,239.067 161.891,239.366 161.949 M38.404 188.151 C 38.703 188.208,39.136 188.206,39.366 188.146 C 39.596 188.086,39.351 188.039,38.822 188.041 C 38.293 188.044,38.105 188.093,38.404 188.151 M332.526 191.947 C 332.528 192.740,332.573 193.036,332.626 192.604 C 332.680 192.172,332.679 191.523,332.624 191.162 C 332.569 190.800,332.525 191.154,332.526 191.947 M33.954 195.839 C 34.186 195.899,34.564 195.899,34.796 195.839 C 35.027 195.778,34.838 195.729,34.375 195.729 C 33.912 195.729,33.723 195.778,33.954 195.839 M13.792 201.082 C 13.792 202.536,13.832 203.100,13.880 202.335 C 13.928 201.570,13.927 200.380,13.879 199.691 C 13.830 199.001,13.791 199.627,13.792 201.082 M298.738 225.891 C 299.035 225.948,299.522 225.948,299.820 225.891 C 300.117 225.834,299.874 225.787,299.279 225.787 C 298.684 225.787,298.441 225.834,298.738 225.891 M169.050 305.454 C 169.282 305.515,169.660 305.515,169.892 305.454 C 170.123 305.394,169.934 305.344,169.471 305.344 C 169.008 305.344,168.819 305.394,169.050 305.454 M266.526 305.698 C 266.824 305.756,267.311 305.756,267.608 305.698 C 267.906 305.641,267.662 305.594,267.067 305.594 C 266.472 305.594,266.229 305.641,266.526 305.698 M197.416 315.745 C 197.419 316.274,197.468 316.462,197.526 316.163 C 197.583 315.864,197.581 315.431,197.521 315.202 C 197.461 314.972,197.414 315.216,197.416 315.745 M109.916 317.473 C 110.147 317.534,110.526 317.534,110.757 317.473 C 110.989 317.413,110.799 317.363,110.337 317.363 C 109.874 317.363,109.684 317.413,109.916 317.473 M260.039 327.814 C 260.338 327.872,260.771 327.870,261.000 327.809 C 261.230 327.749,260.986 327.702,260.457 327.705 C 259.928 327.708,259.740 327.757,260.039 327.814 M195.510 332.692 C 195.510 333.552,195.553 333.903,195.607 333.474 C 195.660 333.044,195.660 332.341,195.607 331.911 C 195.553 331.481,195.510 331.833,195.510 332.692 M207.154 333.824 C 207.453 333.881,207.886 333.879,208.116 333.819 C 208.346 333.759,208.101 333.712,207.572 333.714 C 207.043 333.717,206.855 333.766,207.154 333.824 M188.277 342.308 C 188.277 342.770,188.326 342.960,188.387 342.728 C 188.447 342.497,188.447 342.118,188.387 341.887 C 188.326 341.656,188.277 341.845,188.277 342.308 " stroke="none" fill="#ac9c8c" fill-rule="evenodd"></path><path id="path3" d="M199.339 15.550 C 199.570 15.611,199.949 15.611,200.180 15.550 C 200.412 15.490,200.222 15.440,199.760 15.440 C 199.297 15.440,199.108 15.490,199.339 15.550 M183.726 41.587 C 183.726 42.314,183.771 42.611,183.826 42.248 C 183.881 41.884,183.881 41.289,183.826 40.925 C 183.771 40.562,183.726 40.859,183.726 41.587 M236.359 45.313 C 236.361 45.841,236.411 46.029,236.468 45.730 C 236.526 45.431,236.523 44.999,236.463 44.769 C 236.403 44.539,236.356 44.784,236.359 45.313 M230.117 46.755 C 230.119 47.416,230.165 47.658,230.221 47.292 C 230.276 46.927,230.274 46.386,230.217 46.090 C 230.160 45.795,230.115 46.094,230.117 46.755 M139.019 62.260 C 139.019 63.119,139.063 63.471,139.116 63.041 C 139.170 62.611,139.170 61.908,139.116 61.478 C 139.063 61.049,139.019 61.400,139.019 62.260 M146.455 62.380 C 146.458 62.909,146.507 63.097,146.564 62.798 C 146.622 62.499,146.620 62.066,146.559 61.836 C 146.499 61.606,146.452 61.851,146.455 62.380 M218.374 88.522 L 217.668 89.303 218.450 88.597 C 218.879 88.209,219.231 87.857,219.231 87.816 C 219.231 87.630,219.032 87.793,218.374 88.522 M322.343 98.978 L 321.514 99.880 322.416 99.051 C 322.912 98.596,323.317 98.190,323.317 98.150 C 323.317 97.966,323.114 98.139,322.343 98.978 M324.150 107.752 L 322.957 109.014 324.219 107.822 C 324.913 107.165,325.481 106.598,325.481 106.560 C 325.481 106.380,325.258 106.580,324.150 107.752 M148.618 109.736 C 148.621 110.264,148.670 110.452,148.728 110.153 C 148.785 109.854,148.783 109.422,148.723 109.192 C 148.663 108.962,148.616 109.207,148.618 109.736 M168.750 119.787 C 168.750 119.828,169.102 120.180,169.531 120.568 L 170.313 121.274 169.606 120.493 C 168.948 119.765,168.750 119.601,168.750 119.787 M152.945 137.666 C 153.176 137.726,153.555 137.726,153.786 137.666 C 154.017 137.605,153.828 137.556,153.365 137.556 C 152.903 137.556,152.713 137.605,152.945 137.666 M189.643 138.537 C 189.752 138.646,190.260 138.698,190.774 138.653 L 191.707 138.572 190.576 138.456 C 189.954 138.392,189.534 138.429,189.643 138.537 M152.708 145.124 C 153.073 145.180,153.614 145.178,153.910 145.121 C 154.205 145.064,153.906 145.019,153.245 145.021 C 152.584 145.022,152.342 145.069,152.708 145.124 M96.935 149.445 C 97.166 149.505,97.545 149.505,97.776 149.445 C 98.008 149.384,97.819 149.335,97.356 149.335 C 96.893 149.335,96.704 149.384,96.935 149.445 M350.832 150.781 L 349.639 152.043 350.901 150.850 C 351.596 150.194,352.163 149.626,352.163 149.588 C 352.163 149.409,351.941 149.609,350.832 150.781 M222.416 162.672 C 222.779 162.727,223.374 162.727,223.738 162.672 C 224.102 162.617,223.804 162.572,223.077 162.572 C 222.350 162.572,222.052 162.617,222.416 162.672 M127.163 178.966 C 127.612 179.429,128.033 179.808,128.099 179.808 C 128.165 179.808,127.852 179.429,127.404 178.966 C 126.955 178.504,126.534 178.125,126.468 178.125 C 126.402 178.125,126.715 178.504,127.163 178.966 M294.900 225.899 C 295.598 225.947,296.680 225.947,297.304 225.898 C 297.927 225.848,297.356 225.808,296.034 225.809 C 294.712 225.810,294.201 225.850,294.900 225.899 M294.892 233.349 C 295.454 233.400,296.373 233.400,296.935 233.349 C 297.497 233.298,297.037 233.257,295.913 233.257 C 294.790 233.257,294.330 233.298,294.892 233.349 M53.245 268.990 C 54.030 269.784,54.727 270.433,54.793 270.433 C 54.859 270.433,54.271 269.784,53.486 268.990 C 52.701 268.197,52.004 267.548,51.938 267.548 C 51.872 267.548,52.460 268.197,53.245 268.990 M265.213 295.793 C 265.215 296.454,265.261 296.696,265.317 296.331 C 265.372 295.965,265.371 295.425,265.313 295.129 C 265.256 294.833,265.211 295.132,265.213 295.793 M268.570 298.243 C 268.801 298.303,269.180 298.303,269.411 298.243 C 269.642 298.182,269.453 298.133,268.990 298.133 C 268.528 298.133,268.338 298.182,268.570 298.243 M279.628 309.495 C 279.631 310.024,279.680 310.212,279.737 309.913 C 279.795 309.614,279.793 309.181,279.732 308.952 C 279.672 308.722,279.625 308.966,279.628 309.495 M270.778 311.839 L 270.072 312.620 270.853 311.914 C 271.582 311.256,271.745 311.058,271.559 311.058 C 271.518 311.058,271.166 311.409,270.778 311.839 M271.622 323.017 L 270.793 323.918 271.695 323.090 C 272.191 322.634,272.596 322.229,272.596 322.188 C 272.596 322.005,272.393 322.178,271.622 323.017 M188.037 330.288 C 188.037 330.751,188.086 330.941,188.146 330.709 C 188.207 330.478,188.207 330.099,188.146 329.868 C 188.086 329.636,188.037 329.826,188.037 330.288 M244.712 334.976 C 244.128 335.571,243.704 336.058,243.770 336.058 C 243.836 336.058,244.368 335.571,244.952 334.976 C 245.536 334.381,245.959 333.894,245.893 333.894 C 245.827 333.894,245.295 334.381,244.712 334.976 M195.493 334.976 C 195.496 335.505,195.545 335.693,195.603 335.394 C 195.660 335.095,195.658 334.662,195.598 334.432 C 195.538 334.202,195.491 334.447,195.493 334.976 M188.046 335.337 C 188.046 335.931,188.093 336.175,188.150 335.877 C 188.208 335.580,188.208 335.093,188.150 334.796 C 188.093 334.498,188.046 334.742,188.046 335.337 M188.277 340.865 C 188.277 341.328,188.326 341.517,188.387 341.286 C 188.447 341.055,188.447 340.676,188.387 340.445 C 188.326 340.213,188.277 340.403,188.277 340.865 M216.557 352.952 C 216.660 353.055,218.251 353.109,220.091 353.071 L 223.438 353.003 219.903 352.884 C 217.959 352.818,216.453 352.849,216.557 352.952 " stroke="none" fill="#9c8c7c" fill-rule="evenodd"></path><path id="path4" d="M180.950 0.170 C 181.247 0.227,181.734 0.227,182.031 0.170 C 182.329 0.112,182.085 0.065,181.490 0.065 C 180.895 0.065,180.652 0.112,180.950 0.170 M188.522 0.653 C 188.885 0.708,189.480 0.708,189.844 0.653 C 190.207 0.598,189.910 0.553,189.183 0.553 C 188.456 0.553,188.158 0.598,188.522 0.653 M181.073 7.865 C 181.438 7.920,181.979 7.919,182.275 7.862 C 182.571 7.804,182.272 7.759,181.611 7.761 C 180.950 7.763,180.708 7.810,181.073 7.865 M188.401 8.343 C 188.699 8.400,189.186 8.400,189.483 8.343 C 189.781 8.285,189.537 8.239,188.942 8.239 C 188.347 8.239,188.104 8.285,188.401 8.343 M184.444 27.764 C 184.446 28.425,184.492 28.667,184.547 28.302 C 184.603 27.937,184.601 27.396,184.544 27.100 C 184.487 26.804,184.442 27.103,184.444 27.764 M176.738 27.885 C 176.738 28.347,176.788 28.537,176.848 28.305 C 176.909 28.074,176.909 27.695,176.848 27.464 C 176.788 27.233,176.738 27.422,176.738 27.885 M219.527 37.019 C 219.527 37.482,219.576 37.671,219.637 37.440 C 219.697 37.209,219.697 36.830,219.637 36.599 C 219.576 36.367,219.527 36.556,219.527 37.019 M244.772 40.986 C 244.775 41.514,244.824 41.702,244.882 41.403 C 244.939 41.104,244.937 40.672,244.877 40.442 C 244.817 40.212,244.769 40.457,244.772 40.986 M208.710 56.010 C 208.710 56.472,208.759 56.662,208.820 56.430 C 208.880 56.199,208.880 55.820,208.820 55.589 C 208.759 55.358,208.710 55.547,208.710 56.010 M209.318 57.382 C 209.617 57.439,210.049 57.437,210.279 57.377 C 210.509 57.317,210.264 57.269,209.736 57.272 C 209.207 57.275,209.019 57.324,209.318 57.382 M209.318 65.074 C 209.617 65.131,210.049 65.129,210.279 65.069 C 210.509 65.009,210.264 64.962,209.736 64.964 C 209.207 64.967,209.019 65.016,209.318 65.074 M242.123 65.865 C 242.123 66.328,242.173 66.517,242.233 66.286 C 242.293 66.055,242.293 65.676,242.233 65.445 C 242.173 65.213,242.123 65.403,242.123 65.865 M251.017 69.712 C 251.017 70.174,251.067 70.364,251.127 70.132 C 251.188 69.901,251.188 69.522,251.127 69.291 C 251.067 69.059,251.017 69.249,251.017 69.712 M232.996 80.701 C 233.361 80.757,233.902 80.755,234.198 80.698 C 234.494 80.641,234.195 80.596,233.534 80.598 C 232.873 80.599,232.631 80.646,232.996 80.701 M159.190 94.952 C 159.190 95.415,159.240 95.604,159.300 95.373 C 159.361 95.141,159.361 94.763,159.300 94.531 C 159.240 94.300,159.190 94.489,159.190 94.952 M281.673 95.122 C 281.972 95.179,282.405 95.177,282.635 95.117 C 282.865 95.057,282.620 95.010,282.091 95.013 C 281.563 95.015,281.374 95.064,281.673 95.122 M314.006 112.672 C 314.371 112.728,314.912 112.726,315.208 112.669 C 315.503 112.612,315.204 112.567,314.543 112.569 C 313.882 112.571,313.640 112.617,314.006 112.672 M194.952 149.399 C 195.400 149.862,195.821 150.240,195.888 150.240 C 195.954 150.240,195.641 149.862,195.192 149.399 C 194.744 148.936,194.323 148.558,194.257 148.558 C 194.191 148.558,194.503 148.936,194.952 149.399 M231.070 153.050 C 231.301 153.111,231.680 153.111,231.911 153.050 C 232.142 152.990,231.953 152.940,231.490 152.940 C 231.028 152.940,230.838 152.990,231.070 153.050 M148.632 159.495 C 148.634 160.288,148.678 160.584,148.732 160.152 C 148.785 159.720,148.784 159.071,148.729 158.710 C 148.675 158.348,148.631 158.702,148.632 159.495 M140.934 159.495 C 140.936 160.156,140.983 160.398,141.038 160.033 C 141.093 159.667,141.092 159.126,141.035 158.831 C 140.978 158.535,140.932 158.834,140.934 159.495 M231.070 160.743 C 231.301 160.803,231.680 160.803,231.911 160.743 C 232.142 160.682,231.953 160.633,231.490 160.633 C 231.028 160.633,230.838 160.682,231.070 160.743 M35.511 188.154 C 35.938 188.207,36.695 188.208,37.194 188.156 C 37.693 188.104,37.344 188.061,36.418 188.060 C 35.493 188.059,35.085 188.101,35.511 188.154 M35.757 195.847 C 36.187 195.900,36.890 195.900,37.320 195.847 C 37.749 195.794,37.398 195.750,36.538 195.750 C 35.679 195.750,35.328 195.794,35.757 195.847 M322.102 218.690 L 321.274 219.591 322.175 218.763 C 323.015 217.992,323.187 217.788,323.004 217.788 C 322.964 217.788,322.558 218.194,322.102 218.690 M327.513 224.099 L 326.563 225.120 327.584 224.170 C 328.534 223.286,328.716 223.077,328.534 223.077 C 328.495 223.077,328.035 223.537,327.513 224.099 M301.632 225.899 C 302.464 225.946,303.762 225.946,304.517 225.899 C 305.272 225.851,304.591 225.812,303.005 225.813 C 301.418 225.813,300.801 225.852,301.632 225.899 M301.632 233.592 C 302.464 233.639,303.762 233.638,304.517 233.591 C 305.272 233.543,304.591 233.505,303.005 233.505 C 301.418 233.506,300.801 233.545,301.632 233.592 M197.412 314.183 C 197.412 314.645,197.461 314.835,197.521 314.603 C 197.582 314.372,197.582 313.993,197.521 313.762 C 197.461 313.531,197.412 313.720,197.412 314.183 M197.412 317.308 C 197.412 317.770,197.461 317.960,197.521 317.728 C 197.582 317.497,197.582 317.118,197.521 316.887 C 197.461 316.656,197.412 316.845,197.412 317.308 M195.729 337.981 C 195.729 338.444,195.778 338.633,195.839 338.401 C 195.899 338.170,195.899 337.791,195.839 337.560 C 195.778 337.329,195.729 337.518,195.729 337.981 M188.322 347.596 C 188.322 350.174,188.357 351.229,188.400 349.940 C 188.444 348.651,188.444 346.541,188.400 345.252 C 188.357 343.963,188.322 345.018,188.322 347.596 " stroke="none" fill="#b4a49c" fill-rule="evenodd"></path></g></svg>