<svg id="svg" version="1.1" xmlns="http://www.w3.org/2000/svg" xmlns:xlink="http://www.w3.org/1999/xlink" width="400" height="347.1698113207547" viewBox="0, 0, 400,347.1698113207547"><g id="svgg"><path id="path0" d="M138.679 1.093 C 69.491 7.119,21.210 68.439,32.206 136.321 C 45.505 218.419,138.965 260.460,209.518 216.080 L 212.315 214.321 226.787 228.792 L 241.259 243.262 239.263 245.302 C 236.496 248.130,235.822 250.416,237.009 252.948 C 237.776 254.585,310.239 326.780,311.439 327.102 C 315.372 328.159,314.109 329.187,336.833 306.434 L 356.567 286.675 356.966 285.283 C 357.455 283.579,357.309 282.214,356.472 280.677 C 355.337 278.591,283.881 207.459,282.446 206.986 C 279.678 206.075,277.902 206.679,275.057 209.501 L 273.109 211.433 258.632 196.958 L 244.156 182.483 245.448 180.480 C 275.770 133.477,267.965 70.455,227.107 32.381 C 208.335 14.887,186.359 4.722,160.377 1.513 C 157.348 1.138,141.646 0.835,138.679 1.093 M157.429 12.737 C 221.911 19.679,264.803 80.551,249.246 143.042 C 239.166 183.533,205.346 214.601,164.151 221.213 C 94.263 232.430,33.396 172.856,43.162 102.795 C 49.563 56.870,85.816 20.272,131.671 13.442 C 134.279 13.054,136.126 12.859,141.509 12.402 C 143.464 12.237,155.043 12.480,157.429 12.737 M142.089 30.191 C 74.535 34.141,37.064 110.366,75.020 166.627 C 113.078 223.041,199.780 215.181,227.215 152.830 C 253.557 92.963,207.337 26.376,142.089 30.191 M157.547 42.192 C 222.470 51.811,246.234 132.447,196.698 175.040 C 152.137 213.355,81.953 187.956,72.439 130.071 C 71.754 125.900,71.707 125.467,71.487 121.303 C 69.313 80.131,100.012 45.328,141.745 41.653 C 144.609 41.400,154.478 41.737,157.547 42.192 M140.566 54.830 C 140.566 59.406,140.564 59.425,140.035 59.531 C 139.744 59.590,138.496 59.764,137.264 59.918 C 118.890 62.213,106.840 74.289,106.840 90.407 C 106.840 106.691,115.979 116.255,137.344 122.330 L 141.274 123.447 141.274 139.200 C 141.274 147.864,141.207 154.953,141.125 154.953 C 135.930 154.953,124.127 149.558,115.902 143.423 C 113.422 141.573,112.886 141.263,112.637 141.536 C 111.985 142.253,102.830 155.436,102.830 155.659 C 102.830 155.998,106.898 158.972,109.981 160.885 C 118.324 166.065,127.402 169.462,137.203 171.072 L 140.448 171.605 140.510 179.553 L 140.572 187.500 147.527 187.500 L 154.481 187.500 154.481 179.618 L 154.481 171.736 156.073 171.575 C 176.423 169.523,189.424 156.472,188.607 138.915 C 187.878 123.249,177.829 113.699,156.014 107.943 L 153.892 107.383 153.831 92.114 L 153.770 76.845 154.772 77.014 C 159.607 77.831,167.656 81.484,173.524 85.525 L 175.703 87.026 176.257 86.142 C 176.704 85.429,184.275 72.692,184.586 72.130 C 184.634 72.044,184.001 71.503,183.180 70.929 C 175.037 65.237,165.844 61.521,156.427 60.115 L 154.481 59.824 154.481 55.030 L 154.481 50.236 147.524 50.236 L 140.566 50.236 140.566 54.830 M141.274 89.858 C 141.274 97.642,141.232 104.009,141.182 104.009 C 138.880 104.009,130.658 99.835,128.768 97.707 C 121.233 89.221,128.299 75.988,140.507 75.724 L 141.274 75.708 141.274 89.858 M156.015 127.136 C 164.575 130.158,168.402 133.364,169.472 138.412 C 171.009 145.665,167.334 151.921,160.115 154.341 C 158.308 154.947,154.279 155.708,153.950 155.506 C 153.770 155.394,153.692 126.415,153.873 126.415 C 153.927 126.415,154.891 126.740,156.015 127.136 M257.194 227.358 L 249.412 235.142 235.555 221.286 C 227.934 213.666,221.704 207.377,221.710 207.312 C 221.717 207.247,222.374 206.663,223.171 206.014 C 225.512 204.107,232.726 196.952,235.024 194.257 L 237.146 191.768 251.061 205.671 L 264.975 219.574 257.194 227.358 M274.176 244.338 L 259.199 259.315 254.777 254.893 L 250.355 250.472 265.329 235.496 L 280.304 220.520 284.728 224.941 L 289.153 229.361 274.176 244.338 M291.274 261.439 L 276.299 276.415 271.817 271.934 L 267.336 267.453 282.311 252.476 L 297.286 237.500 301.767 241.981 L 306.249 246.462 291.274 261.439 M328.892 269.104 L 343.277 283.491 328.302 298.467 L 313.327 313.443 298.880 298.998 L 284.434 284.553 299.351 269.635 C 307.555 261.430,314.321 254.717,314.387 254.717 C 314.452 254.717,320.980 261.191,328.892 269.104 " stroke="none" fill="#ec942c" fill-rule="evenodd"></path><path id="path1" d="M0.000 173.585 L 0.000 347.170 200.000 347.170 L 400.000 347.170 400.000 173.585 L 400.000 0.000 200.000 0.000 L 0.000 0.000 0.000 173.585 M155.542 0.952 C 221.853 5.819,270.580 64.355,263.319 130.425 C 261.388 147.994,255.104 165.819,245.824 180.050 L 244.300 182.389 258.697 196.787 L 273.095 211.184 274.932 209.399 C 277.762 206.649,279.481 205.998,282.008 206.719 L 283.373 207.109 319.876 243.590 C 344.805 268.504,356.526 280.375,356.845 281.030 C 357.418 282.207,357.469 284.540,356.949 285.798 C 356.491 286.908,317.312 326.213,315.963 326.916 C 314.629 327.610,313.032 327.728,311.528 327.244 C 310.141 326.797,238.469 255.646,237.115 253.372 C 235.577 250.789,236.163 248.339,239.041 245.315 L 241.008 243.248 226.665 228.906 C 218.776 221.018,212.227 214.604,212.111 214.652 C 211.995 214.701,210.523 215.600,208.839 216.651 C 150.624 252.992,73.191 230.887,42.699 169.222 C 5.783 94.563,56.518 6.547,139.741 0.873 C 142.565 0.680,152.521 0.730,155.542 0.952 M138.797 12.756 C 89.439 16.742,49.456 54.841,43.161 103.886 C 33.721 177.438,101.156 237.242,173.180 219.191 C 224.025 206.448,257.919 157.011,251.523 104.922 C 244.625 48.754,195.043 8.215,138.797 12.756 M158.019 30.523 C 213.240 37.796,247.795 92.680,230.273 145.283 C 214.713 191.993,163.013 216.688,116.787 199.490 C 57.108 177.286,40.384 100.713,85.370 55.646 C 100.503 40.485,118.051 32.381,140.684 30.100 C 143.088 29.858,155.213 30.154,158.019 30.523 M139.623 42.000 C 83.658 48.114,53.465 109.695,82.970 157.547 C 105.540 194.152,155.274 204.341,190.669 179.612 C 233.586 149.629,233.776 85.693,191.038 55.493 C 176.517 45.232,156.975 40.104,139.623 42.000 M154.663 54.891 C 154.726 59.617,154.732 59.664,155.253 59.762 C 165.251 61.633,168.635 62.697,175.211 66.033 C 178.580 67.743,184.670 71.597,184.670 72.020 C 184.670 72.360,175.929 87.028,175.726 87.028 C 175.635 87.028,174.240 86.147,172.627 85.070 C 167.574 81.697,161.795 79.006,156.641 77.625 L 154.009 76.920 154.009 92.107 L 154.009 107.293 155.012 107.552 C 177.597 113.376,187.713 122.730,188.800 138.797 C 189.941 155.656,176.543 169.504,157.075 171.588 C 156.362 171.664,155.541 171.775,155.251 171.834 L 154.723 171.941 154.661 179.780 L 154.599 187.618 147.524 187.618 L 140.448 187.618 140.386 179.672 L 140.324 171.726 139.207 171.570 C 126.827 169.845,114.794 164.903,104.658 157.380 C 103.523 156.538,102.594 155.791,102.594 155.721 C 102.594 155.618,111.380 143.013,112.553 141.434 C 112.850 141.034,113.087 141.165,115.967 143.320 C 124.253 149.522,132.385 153.331,140.035 154.593 L 141.038 154.758 141.038 139.106 L 141.038 123.454 139.328 123.017 C 116.812 117.270,106.768 107.222,106.770 90.448 C 106.771 73.709,119.403 61.496,138.738 59.540 L 140.330 59.379 140.330 54.847 C 140.330 52.354,140.402 50.242,140.491 50.154 C 140.579 50.065,143.790 50.021,147.625 50.056 L 154.599 50.118 154.663 54.891 M137.736 76.280 C 128.939 78.232,124.265 84.966,126.295 92.761 C 127.595 97.753,132.772 101.757,140.389 103.662 L 141.038 103.825 141.038 89.884 L 141.038 75.943 140.035 75.968 C 139.484 75.981,138.449 76.121,137.736 76.280 M154.009 141.055 L 154.009 155.458 155.366 155.294 C 164.709 154.159,169.870 148.866,169.522 140.773 C 169.289 135.378,167.158 132.416,161.439 129.538 C 159.739 128.683,154.586 126.651,154.117 126.651 C 154.058 126.651,154.009 133.133,154.009 141.055 M236.066 193.219 C 232.822 197.094,227.752 202.173,223.115 206.193 L 221.821 207.314 235.614 221.110 L 249.408 234.905 257.134 227.182 L 264.859 219.460 251.121 205.720 C 243.566 198.164,237.320 191.981,237.243 191.981 C 237.165 191.981,236.636 192.538,236.066 193.219 M265.388 235.674 L 250.470 250.593 254.835 254.953 L 259.200 259.313 274.057 244.457 C 282.229 236.286,288.915 229.493,288.915 229.361 C 288.915 229.128,280.652 220.755,280.421 220.755 C 280.358 220.755,273.592 227.468,265.388 235.674 M282.369 252.655 L 267.451 267.574 271.816 271.934 L 276.181 276.294 291.156 261.321 L 306.130 246.347 301.829 242.042 C 299.464 239.673,297.474 237.736,297.407 237.736 C 297.341 237.736,290.573 244.449,282.369 252.655 M299.469 269.517 C 291.329 277.657,284.670 284.424,284.670 284.553 C 284.670 284.862,313.019 313.208,313.327 313.208 C 313.457 313.208,320.248 306.521,328.420 298.349 L 343.277 283.491 328.892 269.104 C 320.980 261.191,314.452 254.717,314.387 254.717 C 314.321 254.717,307.608 261.377,299.469 269.517 " stroke="none" fill="#fcfcfc" fill-rule="evenodd"></path><path id="path2" d="M142.397 0.874 C 142.690 0.931,143.115 0.929,143.340 0.870 C 143.566 0.811,143.325 0.764,142.807 0.767 C 142.288 0.770,142.103 0.818,142.397 0.874 M151.359 0.874 C 151.652 0.931,152.077 0.929,152.302 0.870 C 152.528 0.811,152.288 0.764,151.769 0.767 C 151.250 0.770,151.066 0.818,151.359 0.874 M144.511 12.434 C 144.930 12.486,145.673 12.487,146.162 12.436 C 146.652 12.385,146.309 12.343,145.401 12.342 C 144.493 12.340,144.093 12.382,144.511 12.434 M148.285 12.434 C 148.704 12.486,149.446 12.487,149.936 12.436 C 150.425 12.385,150.083 12.343,149.175 12.342 C 148.267 12.340,147.866 12.382,148.285 12.434 M143.927 41.672 C 144.154 41.731,144.525 41.731,144.752 41.672 C 144.979 41.613,144.794 41.564,144.340 41.564 C 143.886 41.564,143.700 41.613,143.927 41.672 M149.823 41.672 C 150.050 41.731,150.422 41.731,150.649 41.672 C 150.876 41.613,150.690 41.564,150.236 41.564 C 149.782 41.564,149.596 41.613,149.823 41.672 M144.059 50.176 C 146.046 50.216,149.230 50.216,151.135 50.176 C 153.040 50.137,151.415 50.104,147.524 50.104 C 143.632 50.105,142.073 50.137,144.059 50.176 M141.148 89.858 C 141.148 97.577,141.178 100.734,141.214 96.875 C 141.251 93.016,141.251 86.701,141.214 82.842 C 141.178 78.983,141.148 82.140,141.148 89.858 M153.885 92.099 C 153.885 100.531,153.914 103.946,153.950 99.688 C 153.986 95.430,153.986 88.532,153.950 84.358 C 153.914 80.184,153.885 83.667,153.885 92.099 M141.038 139.198 C 140.973 147.850,141.000 154.849,141.098 154.751 C 141.197 154.652,141.250 147.573,141.216 139.020 L 141.156 123.467 141.038 139.198 M153.884 141.038 C 153.884 149.015,153.914 152.279,153.950 148.290 C 153.987 144.301,153.987 137.774,153.950 133.785 C 153.914 129.797,153.884 133.060,153.884 141.038 M146.292 193.334 C 146.913 193.383,147.868 193.382,148.415 193.333 C 148.963 193.283,148.455 193.243,147.288 193.244 C 146.120 193.245,145.672 193.285,146.292 193.334 M144.048 204.884 C 144.341 204.940,144.765 204.938,144.991 204.879 C 145.216 204.820,144.976 204.774,144.458 204.776 C 143.939 204.779,143.754 204.827,144.048 204.884 M149.708 204.884 C 150.001 204.940,150.426 204.938,150.651 204.879 C 150.877 204.820,150.637 204.774,150.118 204.776 C 149.599 204.779,149.415 204.827,149.708 204.884 M145.471 234.138 C 146.547 234.182,148.246 234.181,149.245 234.137 C 150.244 234.093,149.363 234.057,147.288 234.058 C 145.212 234.058,144.395 234.094,145.471 234.138 " stroke="none" fill="#f4cc94" fill-rule="evenodd"></path><path id="path3" d="M146.175 41.684 C 146.861 41.731,147.922 41.731,148.534 41.682 C 149.146 41.634,148.585 41.595,147.288 41.596 C 145.991 41.596,145.490 41.636,146.175 41.684 M140.429 54.835 C 140.429 57.429,140.464 58.523,140.506 57.265 C 140.548 56.007,140.548 53.884,140.506 52.548 C 140.464 51.211,140.429 52.241,140.429 54.835 M154.581 54.953 C 154.581 57.612,154.615 58.700,154.657 57.370 C 154.699 56.041,154.699 53.865,154.657 52.535 C 154.615 51.206,154.581 52.294,154.581 54.953 M114.726 70.106 L 114.033 70.873 114.800 70.180 C 115.221 69.799,115.566 69.454,115.566 69.413 C 115.566 69.231,115.371 69.392,114.726 70.106 M106.685 90.448 C 106.685 91.486,106.727 91.881,106.777 91.326 C 106.827 90.772,106.826 89.923,106.775 89.440 C 106.725 88.957,106.684 89.410,106.685 90.448 M42.276 113.797 C 42.279 114.316,42.327 114.501,42.384 114.207 C 42.440 113.914,42.438 113.489,42.379 113.264 C 42.320 113.038,42.274 113.278,42.276 113.797 M252.187 114.151 C 252.187 114.735,252.233 114.973,252.289 114.682 C 252.345 114.390,252.345 113.912,252.289 113.620 C 252.233 113.328,252.187 113.567,252.187 114.151 M59.762 117.453 C 59.762 119.204,59.799 119.920,59.845 119.045 C 59.890 118.169,59.890 116.736,59.845 115.861 C 59.799 114.985,59.762 115.702,59.762 117.453 M30.515 117.335 C 30.515 118.892,30.553 119.498,30.599 118.682 C 30.646 117.866,30.645 116.592,30.599 115.852 C 30.552 115.111,30.514 115.778,30.515 117.335 M234.761 117.453 C 234.761 119.074,234.798 119.738,234.844 118.927 C 234.890 118.116,234.890 116.790,234.844 115.979 C 234.798 115.168,234.761 115.831,234.761 117.453 M264.000 117.453 C 264.000 118.685,264.040 119.189,264.088 118.573 C 264.137 117.957,264.137 116.949,264.088 116.333 C 264.040 115.716,264.000 116.221,264.000 117.453 M252.190 120.637 C 252.192 121.285,252.238 121.523,252.292 121.164 C 252.346 120.806,252.345 120.275,252.289 119.985 C 252.233 119.695,252.188 119.988,252.190 120.637 M42.276 121.108 C 42.279 121.627,42.327 121.812,42.384 121.518 C 42.440 121.225,42.438 120.801,42.379 120.575 C 42.320 120.350,42.274 120.590,42.276 121.108 M222.932 120.991 C 222.932 121.445,222.981 121.630,223.040 121.403 C 223.099 121.176,223.099 120.805,223.040 120.578 C 222.981 120.351,222.932 120.537,222.932 120.991 M188.762 140.566 C 188.762 141.669,188.802 142.120,188.852 141.568 C 188.902 141.017,188.902 140.115,188.852 139.564 C 188.802 139.012,188.762 139.463,188.762 140.566 M169.635 141.627 C 169.638 142.146,169.686 142.331,169.742 142.037 C 169.799 141.744,169.797 141.319,169.738 141.094 C 169.678 140.868,169.632 141.108,169.635 141.627 M180.298 161.144 L 179.127 162.382 180.366 161.212 C 181.516 160.124,181.712 159.906,181.536 159.906 C 181.499 159.906,180.941 160.463,180.298 161.144 M140.436 179.599 C 140.436 184.009,140.468 185.780,140.507 183.534 C 140.546 181.289,140.545 177.680,140.507 175.516 C 140.468 173.351,140.436 175.189,140.436 179.599 M154.588 171.995 C 154.526 172.158,154.504 175.740,154.540 179.955 L 154.606 187.618 154.661 179.796 C 154.704 173.801,154.786 171.945,155.012 171.854 C 155.243 171.761,155.241 171.731,155.004 171.717 C 154.838 171.706,154.651 171.832,154.588 171.995 M222.980 190.153 L 222.288 190.920 223.054 190.227 C 223.769 189.581,223.929 189.387,223.747 189.387 C 223.706 189.387,223.361 189.732,222.980 190.153 M227.697 201.946 L 227.005 202.712 227.771 202.020 C 228.193 201.639,228.538 201.294,228.538 201.253 C 228.538 201.071,228.343 201.231,227.697 201.946 M280.012 206.531 C 280.239 206.590,280.610 206.590,280.837 206.531 C 281.064 206.471,280.879 206.423,280.425 206.423 C 279.971 206.423,279.785 206.471,280.012 206.531 M235.377 221.108 C 242.965 228.697,249.226 234.906,249.291 234.906 C 249.356 234.906,243.201 228.697,235.613 221.108 C 228.026 213.520,221.764 207.311,221.700 207.311 C 221.635 207.311,227.790 213.520,235.377 221.108 M274.764 209.552 C 273.798 210.525,273.060 211.321,273.125 211.321 C 273.190 211.321,274.034 210.525,275.000 209.552 C 275.966 208.579,276.704 207.783,276.639 207.783 C 276.574 207.783,275.731 208.579,274.764 209.552 M212.057 214.446 C 212.117 214.478,218.688 220.979,226.660 228.892 L 241.156 243.278 226.770 228.833 C 218.857 220.887,212.286 214.387,212.167 214.387 C 212.047 214.387,211.998 214.413,212.057 214.446 M257.074 227.300 L 249.410 235.024 257.134 227.360 C 264.313 220.237,264.965 219.575,264.798 219.575 C 264.765 219.575,261.289 223.051,257.074 227.300 M265.212 235.672 L 250.354 250.590 265.271 235.732 C 279.138 221.920,280.295 220.755,280.129 220.755 C 280.096 220.755,273.383 227.468,265.212 235.672 M142.512 234.125 C 142.739 234.184,143.110 234.184,143.337 234.125 C 143.564 234.066,143.379 234.017,142.925 234.017 C 142.471 234.017,142.285 234.066,142.512 234.125 M151.238 234.125 C 151.465 234.184,151.837 234.184,152.064 234.125 C 152.291 234.066,152.105 234.017,151.651 234.017 C 151.197 234.017,151.011 234.066,151.238 234.125 M239.263 245.106 L 237.618 246.816 239.328 245.171 C 240.916 243.644,241.145 243.396,240.972 243.396 C 240.937 243.396,240.167 244.166,239.263 245.106 " stroke="none" fill="#f6d6ae" fill-rule="evenodd"></path><path id="path4" d="M145.471 0.883 C 146.547 0.927,148.246 0.927,149.245 0.883 C 150.244 0.839,149.363 0.803,147.288 0.803 C 145.212 0.803,144.395 0.839,145.471 0.883 M142.748 12.427 C 142.975 12.486,143.346 12.486,143.573 12.427 C 143.800 12.367,143.614 12.319,143.160 12.319 C 142.706 12.319,142.521 12.367,142.748 12.427 M151.002 12.427 C 151.229 12.486,151.601 12.486,151.828 12.427 C 152.055 12.367,151.869 12.319,151.415 12.319 C 150.961 12.319,150.775 12.367,151.002 12.427 M143.809 30.119 C 144.101 30.175,144.578 30.175,144.870 30.119 C 145.162 30.063,144.923 30.017,144.340 30.017 C 143.756 30.017,143.517 30.063,143.809 30.119 M149.705 30.119 C 149.997 30.175,150.475 30.175,150.767 30.119 C 151.058 30.063,150.820 30.017,150.236 30.017 C 149.652 30.017,149.413 30.063,149.705 30.119 M227.123 32.385 C 227.123 32.426,227.468 32.771,227.889 33.152 L 228.656 33.844 227.963 33.078 C 227.317 32.363,227.123 32.203,227.123 32.385 M230.896 36.159 C 230.896 36.199,231.241 36.544,231.663 36.925 L 232.429 37.618 231.737 36.851 C 231.091 36.137,230.896 35.976,230.896 36.159 M30.715 112.028 C 30.715 112.482,30.764 112.668,30.823 112.441 C 30.882 112.214,30.882 111.843,30.823 111.616 C 30.764 111.389,30.715 111.574,30.715 112.028 M263.734 112.264 C 263.734 112.718,263.782 112.904,263.842 112.677 C 263.901 112.450,263.901 112.078,263.842 111.851 C 263.782 111.624,263.734 111.810,263.734 112.264 M71.291 117.453 C 71.291 118.037,71.337 118.275,71.393 117.983 C 71.449 117.692,71.449 117.214,71.393 116.922 C 71.337 116.630,71.291 116.869,71.291 117.453 M263.734 122.642 C 263.734 123.096,263.782 123.281,263.842 123.054 C 263.901 122.827,263.901 122.456,263.842 122.229 C 263.782 122.002,263.734 122.188,263.734 122.642 M30.715 122.877 C 30.715 123.331,30.764 123.517,30.823 123.290 C 30.882 123.063,30.882 122.692,30.823 122.465 C 30.764 122.238,30.715 122.423,30.715 122.877 M85.377 179.363 C 86.213 180.206,86.950 180.896,87.015 180.896 C 87.080 180.896,86.449 180.206,85.613 179.363 C 84.778 178.520,84.041 177.830,83.976 177.830 C 83.911 177.830,84.542 178.520,85.377 179.363 M208.954 179.422 L 207.665 180.778 209.021 179.489 C 210.281 178.292,210.485 178.066,210.310 178.066 C 210.273 178.066,209.663 178.676,208.954 179.422 M258.491 196.816 C 266.467 204.794,273.047 211.321,273.112 211.321 C 273.177 211.321,266.703 204.794,258.726 196.816 C 250.750 188.838,244.170 182.311,244.105 182.311 C 244.040 182.311,250.514 188.838,258.491 196.816 M144.059 187.676 C 146.046 187.716,149.230 187.716,151.135 187.676 C 153.040 187.637,151.415 187.604,147.524 187.604 C 143.632 187.605,142.073 187.637,144.059 187.676 M144.048 193.327 C 144.341 193.384,144.765 193.381,144.991 193.322 C 145.216 193.263,144.976 193.217,144.458 193.220 C 143.939 193.222,143.754 193.271,144.048 193.327 M149.708 193.327 C 150.001 193.384,150.426 193.381,150.651 193.322 C 150.877 193.263,150.637 193.217,150.118 193.220 C 149.599 193.222,149.415 193.271,149.708 193.327 M64.623 199.882 C 65.458 200.725,66.195 201.415,66.260 201.415 C 66.325 201.415,65.694 200.725,64.858 199.882 C 64.023 199.039,63.286 198.349,63.221 198.349 C 63.156 198.349,63.787 199.039,64.623 199.882 M229.590 200.059 L 228.420 201.297 229.658 200.127 C 230.809 199.039,231.004 198.821,230.828 198.821 C 230.791 198.821,230.234 199.378,229.590 200.059 M146.292 204.891 C 146.913 204.939,147.868 204.939,148.415 204.889 C 148.963 204.840,148.455 204.800,147.288 204.801 C 146.120 204.801,145.672 204.842,146.292 204.891 M145.589 222.581 C 146.600 222.625,148.192 222.625,149.126 222.581 C 150.061 222.536,149.233 222.500,147.288 222.500 C 145.342 222.500,144.577 222.537,145.589 222.581 M282.311 252.535 L 267.335 267.571 282.370 252.595 C 296.347 238.674,297.511 237.500,297.346 237.500 C 297.313 237.500,290.547 244.266,282.311 252.535 M291.037 261.498 L 276.061 276.533 291.097 261.557 C 305.073 247.636,306.238 246.462,306.072 246.462 C 306.040 246.462,299.274 253.228,291.037 261.498 M236.375 250.472 C 236.375 250.926,236.424 251.111,236.483 250.884 C 236.543 250.657,236.543 250.286,236.483 250.059 C 236.424 249.832,236.375 250.018,236.375 250.472 M273.585 290.212 C 293.366 309.994,309.604 326.179,309.669 326.179 C 309.734 326.179,293.602 309.994,273.821 290.212 C 254.039 270.430,237.801 254.245,237.736 254.245 C 237.672 254.245,253.803 270.430,273.585 290.212 " stroke="none" fill="#f4c484" fill-rule="evenodd"></path></g></svg>