<svg id="svg" version="1.1" xmlns="http://www.w3.org/2000/svg" xmlns:xlink="http://www.w3.org/1999/xlink" width="400" height="353.2219570405728" viewBox="0, 0, 400,353.2219570405728"><g id="svgg"><path id="path0" d="M29.199 1.203 C 25.960 1.844,23.072 4.848,22.455 8.218 C 22.103 10.141,22.086 235.392,22.438 237.259 C 22.957 240.014,24.808 242.428,27.379 243.705 L 28.520 244.272 197.733 244.272 L 366.945 244.272 368.219 243.601 C 369.918 242.706,371.366 241.215,372.215 239.486 L 372.912 238.067 372.912 122.792 L 372.912 7.518 372.291 6.194 C 371.121 3.701,369.100 2.008,366.475 1.325 C 364.894 0.913,31.273 0.793,29.199 1.203 M333.516 35.866 C 336.331 37.184,338.082 39.195,338.776 41.906 C 339.105 43.189,339.138 51.914,339.083 123.402 L 339.021 203.461 338.330 204.958 C 337.435 206.896,335.202 209.034,333.250 209.822 L 331.862 210.382 198.449 210.444 C 103.884 210.489,64.673 210.432,63.790 210.250 C 60.810 209.635,58.352 207.721,57.067 205.012 L 56.444 203.699 56.444 122.792 L 56.444 41.885 57.079 40.531 C 58.234 38.066,60.163 36.363,62.729 35.541 C 64.029 35.125,69.256 35.110,198.091 35.155 L 332.100 35.203 333.516 35.866 M195.649 46.112 L 195.585 51.651 193.079 51.958 C 169.563 54.842,155.472 68.700,155.514 88.902 C 155.555 108.441,166.017 119.382,191.766 126.815 L 196.301 128.124 196.362 146.992 L 196.423 165.860 195.646 165.722 C 185.273 163.890,175.128 159.076,165.071 151.215 C 163.797 150.219,162.712 149.403,162.660 149.403 C 162.609 149.403,159.910 153.189,156.663 157.816 C 153.416 162.443,150.663 166.355,150.545 166.509 C 150.130 167.051,157.105 171.961,162.844 175.167 C 172.143 180.362,184.783 184.558,194.212 185.580 L 195.704 185.742 195.704 195.377 L 195.704 205.012 204.057 205.012 L 212.411 205.012 212.411 195.502 L 212.411 185.993 214.857 185.704 C 238.420 182.918,253.216 168.642,253.220 148.687 C 253.224 131.294,244.756 120.672,224.810 113.044 C 221.561 111.802,212.776 109.069,212.030 109.069 C 211.745 109.069,211.695 106.328,211.695 90.714 L 211.695 72.360 212.232 72.480 C 219.956 74.211,227.497 77.592,234.913 82.648 C 236.549 83.763,237.809 84.474,237.926 84.347 C 238.151 84.101,248.449 66.820,248.449 66.687 C 248.449 66.306,242.493 62.460,238.716 60.403 C 230.837 56.112,224.047 53.913,213.186 52.134 L 212.411 52.007 212.411 46.290 L 212.411 40.573 204.062 40.573 L 195.713 40.573 195.649 46.112 M196.420 87.966 L 196.420 104.811 195.644 104.646 C 184.694 102.312,178.050 95.781,178.050 87.351 C 178.050 78.556,185.759 71.357,195.406 71.144 L 196.420 71.122 196.420 87.966 M219.962 134.952 C 228.987 139.267,232.377 145.688,230.163 154.277 C 228.440 160.960,220.203 166.587,212.141 166.587 C 211.709 166.587,211.695 166.021,211.695 149.174 L 211.695 131.761 214.499 132.721 C 216.041 133.249,218.499 134.253,219.962 134.952 M167.064 273.747 L 167.064 291.408 197.613 291.408 L 228.162 291.408 228.162 273.747 L 228.162 256.086 197.613 256.086 L 167.064 256.086 167.064 273.747 M138.641 302.032 C 116.399 305.068,99.674 323.252,98.198 346.002 L 98.039 348.449 197.588 348.449 L 297.136 348.449 297.136 346.548 C 297.136 324.683,278.702 304.756,255.854 301.922 C 252.621 301.521,141.622 301.625,138.641 302.032 " stroke="none" fill="#045c6c" fill-rule="evenodd"></path><path id="path1" d="M0.000 176.611 L 0.000 353.222 200.000 353.222 L 400.000 353.222 400.000 176.611 L 400.000 0.000 200.000 0.000 L 0.000 0.000 0.000 176.611 M368.076 1.747 C 369.895 2.640,371.514 4.303,372.415 6.205 L 373.150 7.757 373.223 121.957 C 373.277 207.717,373.226 236.484,373.019 237.470 C 372.443 240.208,370.481 242.630,367.832 243.871 L 366.468 244.511 197.613 244.511 L 28.759 244.511 27.383 243.835 C 25.574 242.948,23.888 241.272,23.018 239.499 L 22.315 238.067 22.315 122.792 L 22.315 7.518 22.936 6.194 C 24.013 3.898,25.486 2.509,27.898 1.516 L 29.236 0.965 197.971 1.020 L 366.706 1.074 368.076 1.747 M62.344 35.792 C 59.141 36.946,57.085 39.466,56.563 42.880 C 56.392 43.997,56.334 69.515,56.378 123.866 L 56.444 203.222 56.998 204.593 C 57.771 206.508,59.563 208.394,61.529 209.362 L 63.116 210.143 197.131 210.206 C 330.334 210.268,331.155 210.266,332.697 209.794 C 334.572 209.220,336.361 207.912,337.413 206.348 C 339.033 203.937,338.912 211.050,338.844 122.188 L 338.783 41.647 337.974 40.155 C 336.991 38.342,335.503 36.925,333.693 36.076 L 332.339 35.442 197.971 35.390 C 66.467 35.340,63.577 35.348,62.344 35.792 M212.594 46.192 L 212.657 51.931 215.338 52.348 C 223.649 53.641,232.543 56.735,239.857 60.878 C 243.060 62.691,248.585 66.419,248.528 66.728 C 248.483 66.976,238.226 84.258,237.936 84.576 C 237.831 84.691,236.851 84.145,235.758 83.363 C 228.879 78.441,215.846 72.554,211.830 72.554 C 211.756 72.554,211.695 80.712,211.695 90.683 L 211.695 108.812 212.709 109.078 C 241.801 116.699,254.239 129.274,253.392 150.207 C 252.637 168.863,237.981 182.852,216.229 185.677 C 215.113 185.821,213.853 185.994,213.428 186.059 L 212.655 186.178 212.592 195.655 L 212.530 205.131 204.057 205.131 L 195.585 205.131 195.522 195.535 L 195.460 185.939 194.687 185.816 C 179.097 183.328,166.327 178.450,155.728 170.935 C 152.886 168.919,150.358 166.960,150.358 166.773 C 150.358 166.614,160.980 151.366,162.333 149.583 C 162.624 149.199,162.782 149.272,164.320 150.501 C 174.213 158.406,189.358 165.632,196.031 165.632 C 196.387 165.632,196.420 164.057,196.420 146.934 L 196.420 128.235 194.332 127.691 C 168.520 120.974,156.868 110.258,155.345 91.836 C 153.573 70.403,168.924 54.440,193.974 51.669 L 195.465 51.504 195.465 46.078 C 195.465 43.094,195.538 40.579,195.628 40.490 C 195.717 40.401,199.556 40.356,204.160 40.391 L 212.530 40.453 212.594 46.192 M193.914 71.473 C 183.204 73.181,177.202 79.920,178.247 89.064 C 178.921 94.954,181.490 98.370,187.462 101.315 C 189.856 102.495,195.695 104.773,196.327 104.773 C 196.378 104.773,196.420 97.202,196.420 87.947 C 196.420 74.633,196.358 71.127,196.122 71.145 C 195.958 71.158,194.964 71.306,193.914 71.473 M211.695 149.199 L 211.695 166.417 213.327 166.265 C 225.328 165.150,232.350 156.749,230.172 146.112 C 229.231 141.510,226.538 138.409,221.042 135.598 C 218.925 134.515,212.557 131.981,211.952 131.981 C 211.770 131.981,211.695 137.040,211.695 149.199 M228.401 273.748 L 228.401 291.649 197.673 291.588 L 166.945 291.527 166.883 273.986 C 166.849 264.338,166.873 256.310,166.936 256.146 C 167.026 255.909,173.404 255.847,197.725 255.847 L 228.401 255.847 228.401 273.748 M255.081 301.684 C 278.518 304.237,297.343 324.496,297.373 347.196 L 297.375 348.687 197.747 348.687 C 142.951 348.687,98.077 348.607,98.026 348.508 C 97.792 348.058,98.386 341.906,98.915 339.297 C 102.882 319.752,119.280 304.291,138.544 301.932 C 139.726 301.788,140.961 301.631,141.289 301.583 C 142.884 301.353,252.935 301.451,255.081 301.684 " stroke="none" fill="#fbfbfb" fill-rule="evenodd"></path><path id="path2" d="M373.149 122.792 C 373.149 185.406,373.177 210.985,373.210 179.634 C 373.243 148.284,373.243 97.055,373.210 65.792 C 373.177 34.529,373.149 60.179,373.149 122.792 M130.967 35.263 C 167.622 35.296,227.604 35.296,264.260 35.263 C 300.916 35.229,270.925 35.202,197.613 35.202 C 124.302 35.202,94.311 35.229,130.967 35.263 M199.821 40.513 C 202.151 40.552,205.964 40.552,208.294 40.513 C 210.624 40.474,208.717 40.442,204.057 40.442 C 199.397 40.442,197.491 40.474,199.821 40.513 M339.020 122.792 C 339.020 166.504,339.048 184.350,339.081 162.451 C 339.115 140.552,339.115 104.788,339.081 82.976 C 339.048 61.164,339.020 79.081,339.020 122.792 M143.019 301.596 C 143.249 301.657,143.625 301.657,143.854 301.596 C 144.084 301.536,143.896 301.487,143.437 301.487 C 142.977 301.487,142.789 301.536,143.019 301.596 M251.611 301.596 C 251.841 301.657,252.217 301.657,252.446 301.596 C 252.676 301.536,252.488 301.487,252.029 301.487 C 251.569 301.487,251.381 301.536,251.611 301.596 M147.792 348.628 C 175.194 348.661,220.033 348.661,247.434 348.628 C 274.836 348.594,252.416 348.567,197.613 348.567 C 142.810 348.567,120.391 348.594,147.792 348.628 " stroke="none" fill="#84acb4" fill-rule="evenodd"></path><path id="path3" d="M164.916 64.320 C 164.337 64.911,163.916 65.394,163.982 65.394 C 164.047 65.394,164.575 64.911,165.155 64.320 C 165.735 63.729,166.155 63.246,166.090 63.246 C 166.024 63.246,165.496 63.729,164.916 64.320 M164.429 112.947 C 165.418 114.001,165.632 114.191,165.632 114.012 C 165.632 113.973,165.122 113.463,164.499 112.878 L 163.365 111.814 164.429 112.947 M253.298 148.687 C 253.298 149.541,253.342 149.890,253.395 149.463 C 253.448 149.036,253.448 148.338,253.395 147.912 C 253.342 147.485,253.298 147.834,253.298 148.687 M130.967 210.442 C 167.622 210.475,227.604 210.475,264.260 210.442 C 300.916 210.408,270.925 210.381,197.613 210.381 C 124.302 210.381,94.311 210.408,130.967 210.442 M113.922 244.570 C 160.105 244.604,235.606 244.604,281.702 244.570 C 327.798 244.537,290.012 244.510,197.733 244.510 C 105.453 244.510,67.739 244.537,113.922 244.570 M197.554 256.026 L 228.162 256.088 228.162 273.747 L 228.162 291.406 197.554 291.468 L 166.945 291.529 197.673 291.588 L 228.401 291.647 228.401 273.747 L 228.401 255.847 197.673 255.906 L 166.945 255.965 197.554 256.026 M170.962 301.611 C 185.772 301.645,209.937 301.645,224.661 301.611 C 239.385 301.577,227.267 301.549,197.733 301.549 C 168.198 301.549,156.151 301.577,170.962 301.611 M297.196 347.613 C 297.199 348.138,297.248 348.325,297.305 348.028 C 297.362 347.731,297.360 347.302,297.300 347.074 C 297.240 346.845,297.194 347.088,297.196 347.613 " stroke="none" fill="#74a4ac" fill-rule="evenodd"></path><path id="path4" d="M195.568 46.062 C 195.568 49.147,195.602 50.409,195.644 48.866 C 195.685 47.324,195.685 44.800,195.644 43.258 C 195.602 41.715,195.568 42.977,195.568 46.062 M212.514 46.301 C 212.514 49.517,212.547 50.832,212.589 49.224 C 212.630 47.616,212.630 44.985,212.589 43.377 C 212.547 41.769,212.514 43.085,212.514 46.301 M155.216 88.663 C 155.215 89.845,155.256 90.358,155.306 89.804 C 155.356 89.250,155.356 88.284,155.307 87.656 C 155.258 87.029,155.217 87.482,155.216 88.663 M195.581 195.465 L 195.585 205.131 204.057 205.131 L 212.530 205.131 212.592 195.661 C 212.640 188.390,212.723 186.168,212.950 186.092 C 213.116 186.036,213.088 186.004,212.888 186.018 C 212.577 186.041,212.522 187.299,212.467 195.528 L 212.405 205.012 204.057 205.012 L 195.709 205.012 195.643 195.406 L 195.576 185.800 195.581 195.465 M166.939 273.747 C 166.939 283.526,166.969 287.527,167.005 282.637 C 167.041 277.748,167.041 269.746,167.005 264.857 C 166.969 259.967,166.939 263.968,166.939 273.747 " stroke="none" fill="#94bcbc" fill-rule="evenodd"></path></g></svg>