<svg id="svg" version="1.1" xmlns="http://www.w3.org/2000/svg" xmlns:xlink="http://www.w3.org/1999/xlink" width="400" height="349.64370546318287" viewBox="0, 0, 400,349.64370546318287"><g id="svgg"><path id="path0" d="M28.794 25.752 C 27.285 26.242,26.284 27.120,24.922 29.148 C 24.249 30.150,19.253 37.282,13.820 44.998 C 8.387 52.713,3.692 59.471,3.387 60.015 C 0.813 64.606,5.325 69.916,10.485 68.370 C 12.085 67.891,13.048 66.756,18.765 58.619 L 24.347 50.673 24.466 176.583 C 24.577 295.095,24.608 302.547,24.994 303.399 C 25.661 304.874,26.331 305.660,27.510 306.353 L 28.622 307.007 196.485 307.126 L 364.348 307.245 358.265 311.520 C 350.448 317.014,350.186 317.280,349.948 319.932 C 349.554 324.311,353.842 327.678,357.808 326.105 C 358.586 325.796,385.783 306.785,387.098 305.631 C 389.782 303.275,389.425 298.719,386.380 296.461 C 380.459 292.070,358.415 276.844,357.555 276.551 C 352.761 274.917,348.283 280.050,350.448 284.699 C 351.117 286.135,351.533 286.483,357.957 290.975 C 360.635 292.848,363.082 294.575,363.393 294.815 C 363.942 295.236,358.950 295.249,200.151 295.249 L 36.342 295.249 36.343 238.539 L 36.343 181.829 79.748 151.930 L 123.153 122.031 156.767 138.819 C 193.747 157.288,191.195 156.153,193.746 155.253 C 194.258 155.073,213.939 141.655,237.481 125.436 C 261.023 109.217,280.424 95.894,280.594 95.828 C 280.782 95.756,281.367 96.390,282.079 97.435 C 285.023 101.757,287.785 102.915,291.030 101.188 C 292.339 100.491,328.497 62.397,329.382 60.782 C 331.603 56.731,327.954 51.401,323.453 52.120 C 322.243 52.314,273.542 73.257,272.511 74.028 C 269.649 76.166,269.602 79.473,272.377 83.537 C 273.225 84.780,273.828 85.886,273.717 85.996 C 273.606 86.106,255.024 98.934,232.423 114.503 L 191.330 142.810 157.939 126.119 C 121.407 107.858,123.329 108.716,120.844 109.563 C 120.237 109.770,102.399 121.907,78.176 138.595 C 55.282 154.367,36.503 167.224,36.446 167.166 C 36.388 167.109,36.368 140.734,36.401 108.557 L 36.461 50.052 42.253 58.289 C 45.438 62.819,48.462 66.883,48.973 67.320 C 53.295 71.020,60.084 66.513,58.290 61.134 C 57.830 59.753,36.715 29.346,34.834 27.354 C 33.313 25.744,30.837 25.087,28.794 25.752 M263.398 130.589 C 261.795 131.427,260.689 132.843,260.347 134.496 C 260.164 135.386,260.107 156.931,260.151 209.026 L 260.214 282.304 260.711 283.373 C 261.292 284.621,262.422 285.788,263.632 286.390 C 264.441 286.793,265.940 286.817,290.261 286.817 L 316.033 286.817 316.983 286.303 C 318.212 285.639,319.343 284.449,319.881 283.254 C 320.386 282.133,320.687 137.614,320.190 134.923 C 319.859 133.131,318.883 131.639,317.471 130.766 L 316.308 130.048 290.491 129.985 L 264.674 129.923 263.398 130.589 M308.551 208.432 L 308.551 275.059 290.261 275.059 L 271.971 275.059 271.971 208.432 L 271.971 141.805 290.261 141.805 L 308.551 141.805 308.551 208.432 M129.894 164.938 C 128.175 165.553,126.561 167.363,126.193 169.089 C 125.740 171.218,125.982 282.470,126.442 283.663 C 126.968 285.026,128.768 286.726,130.110 287.129 C 131.650 287.590,180.842 287.529,182.159 287.064 C 183.608 286.553,184.634 285.670,185.413 284.265 L 186.105 283.017 186.167 226.722 C 186.212 186.797,186.155 170.064,185.971 169.176 C 185.630 167.525,184.523 166.106,182.926 165.271 L 181.656 164.608 156.208 164.619 C 135.919 164.627,130.584 164.692,129.894 164.938 M174.347 226.010 L 174.347 275.534 156.057 275.534 L 137.767 275.534 137.767 226.010 L 137.767 176.485 156.057 176.485 L 174.347 176.485 174.347 226.010 M197.795 190.993 C 196.504 191.301,195.626 191.804,194.677 192.781 C 192.988 194.521,193.100 191.055,193.169 239.558 L 193.230 283.254 193.743 284.204 C 194.343 285.316,195.273 286.230,196.437 286.849 C 197.234 287.274,198.353 287.292,223.159 287.292 C 247.965 287.292,249.085 287.274,249.881 286.849 C 251.045 286.230,251.975 285.316,252.575 284.204 L 253.088 283.254 253.150 239.558 C 253.219 190.975,253.335 194.526,251.609 192.749 C 249.628 190.708,251.824 190.860,223.634 190.817 C 209.487 190.795,198.305 190.871,197.795 190.993 M241.330 239.074 L 241.330 275.534 223.159 275.534 L 204.988 275.534 204.988 239.074 L 204.988 202.613 223.159 202.613 L 241.330 202.613 241.330 239.074 M62.989 205.437 C 61.561 205.933,60.297 207.031,59.540 208.432 L 59.026 209.382 58.964 245.713 C 58.894 286.604,58.771 283.724,60.663 285.616 C 62.583 287.536,60.791 287.427,89.445 287.356 L 114.846 287.292 115.830 286.766 C 117.074 286.100,118.370 284.598,118.727 283.407 C 119.258 281.634,119.096 209.849,118.559 208.670 C 117.920 207.269,117.010 206.300,115.738 205.668 L 114.608 205.107 89.430 205.053 C 65.477 205.001,64.190 205.020,62.989 205.437 M107.126 246.200 L 107.126 275.534 88.955 275.534 L 70.784 275.534 70.784 246.200 L 70.784 216.865 88.955 216.865 L 107.126 216.865 107.126 246.200 " stroke="none" fill="#049444" fill-rule="evenodd"></path><path id="path1" d="M0.000 174.822 L 0.000 349.644 200.000 349.644 L 400.000 349.644 400.000 174.822 L 400.000 0.000 200.000 0.000 L 0.000 0.000 0.000 174.822 M33.135 25.982 C 33.789 26.291,34.603 26.851,34.945 27.226 C 36.002 28.388,57.760 59.443,58.223 60.451 C 60.273 64.915,55.811 69.957,51.046 68.563 C 49.034 67.974,48.456 67.314,42.399 58.696 L 36.698 50.583 36.638 79.686 C 36.605 95.692,36.605 121.892,36.638 137.907 L 36.698 167.024 78.147 138.456 C 107.634 118.131,119.968 109.758,120.884 109.440 C 123.304 108.600,121.671 107.870,157.955 126.003 L 191.330 142.682 226.960 118.129 C 246.556 104.625,265.121 91.832,268.216 89.700 L 273.843 85.823 272.560 84.012 C 269.536 79.744,269.383 76.904,272.037 74.327 C 273.333 73.068,321.842 52.214,323.821 52.064 C 328.343 51.723,331.676 56.740,329.598 60.759 C 329.259 61.414,301.267 91.292,294.087 98.661 C 289.522 103.347,286.137 103.250,282.584 98.331 C 281.690 97.093,280.862 96.046,280.744 96.003 C 280.625 95.960,261.316 109.159,237.834 125.335 C 190.969 157.619,193.873 155.709,191.686 155.681 L 190.143 155.660 156.651 138.909 L 123.159 122.158 79.869 151.986 L 36.580 181.813 36.580 238.531 L 36.580 295.249 200.178 295.237 C 341.663 295.226,363.713 295.179,363.302 294.887 C 363.040 294.701,360.217 292.702,357.028 290.446 C 350.265 285.659,349.793 285.122,349.783 282.203 C 349.769 277.953,354.162 274.904,357.957 276.530 C 358.935 276.949,385.968 295.909,387.143 297.000 C 389.477 299.167,389.675 302.982,387.574 305.305 C 386.446 306.553,358.837 325.863,357.557 326.299 C 351.989 328.196,347.234 321.020,351.178 316.672 C 351.616 316.190,354.639 313.925,357.898 311.639 L 363.821 307.482 196.341 307.363 L 28.860 307.245 27.910 306.731 C 26.790 306.126,25.644 304.961,25.027 303.800 C 24.597 302.993,24.581 299.275,24.466 176.921 L 24.347 50.873 18.663 58.957 C 12.638 67.528,12.089 68.139,9.963 68.649 C 5.297 69.768,1.112 64.863,3.031 60.525 C 3.606 59.225,25.299 28.252,26.487 27.035 C 28.089 25.393,30.936 24.942,33.135 25.982 M316.123 130.061 C 317.569 130.490,319.041 131.718,319.792 133.119 L 320.309 134.086 320.370 207.926 C 320.411 258.191,320.352 282.058,320.185 282.679 C 319.804 284.095,318.567 285.547,317.117 286.283 L 315.829 286.936 290.248 286.936 C 262.080 286.936,263.881 287.031,262.085 285.454 C 261.602 285.030,260.958 284.148,260.654 283.493 L 260.100 282.304 260.097 208.527 C 260.096 152.802,260.163 134.553,260.373 133.943 C 261.039 132.007,262.319 130.742,264.343 130.019 C 265.752 129.516,314.419 129.555,316.123 130.061 M272.209 208.314 L 272.209 274.822 290.261 274.822 L 308.314 274.822 308.314 208.314 L 308.314 141.805 290.261 141.805 L 272.209 141.805 272.209 208.314 M182.811 165.015 C 184.061 165.683,185.080 166.702,185.654 167.857 C 186.317 169.193,186.493 281.854,185.835 283.597 C 185.289 285.044,183.808 286.583,182.463 287.102 C 180.773 287.754,131.025 287.766,129.641 287.115 C 128.392 286.527,127.137 285.362,126.530 284.227 L 126.010 283.254 126.010 226.010 L 126.010 168.765 126.523 167.815 C 127.281 166.413,128.545 165.316,129.972 164.820 C 131.174 164.402,132.464 164.383,156.532 164.435 L 181.829 164.489 182.811 165.015 M138.005 226.010 L 138.005 275.534 156.057 275.534 L 174.109 275.534 174.109 226.010 L 174.109 176.485 156.057 176.485 L 138.005 176.485 138.005 226.010 M250.022 191.376 C 251.156 191.982,252.391 193.313,252.939 194.520 C 253.291 195.293,253.325 199.247,253.325 239.192 L 253.325 283.017 252.593 284.323 C 250.643 287.800,251.825 287.671,222.425 287.594 L 197.710 287.530 196.301 286.812 C 194.640 285.965,193.530 284.508,193.132 282.653 C 192.768 280.953,192.769 197.188,193.134 195.488 C 193.402 194.238,194.431 192.667,195.501 191.874 C 197.060 190.719,196.273 190.749,223.515 190.804 L 249.050 190.855 250.022 191.376 M204.988 239.192 L 204.988 275.534 223.159 275.534 L 241.330 275.534 241.330 239.192 L 241.330 202.850 223.159 202.850 L 204.988 202.850 204.988 239.192 M114.988 205.263 C 116.439 205.758,117.688 206.796,118.418 208.112 L 119.121 209.382 119.184 245.713 C 119.252 285.694,119.329 283.494,117.799 285.341 C 117.389 285.835,116.504 286.530,115.831 286.885 L 114.608 287.530 89.074 287.530 C 60.318 287.530,62.528 287.669,60.591 285.733 C 58.770 283.912,58.918 287.386,58.918 246.318 C 58.918 209.906,58.922 209.612,59.402 208.551 C 60.051 207.116,60.924 206.229,62.352 205.554 L 63.539 204.993 88.860 204.990 C 107.434 204.989,114.396 205.061,114.988 205.263 M71.021 246.318 L 71.021 275.534 89.074 275.534 L 107.126 275.534 107.126 246.318 L 107.126 217.102 89.074 217.102 L 71.021 217.102 71.021 246.318 " stroke="none" fill="#fcfcfc" fill-rule="evenodd"></path><path id="path2" d="M36.459 108.670 C 36.459 140.938,36.486 154.104,36.520 137.926 C 36.554 121.749,36.554 95.347,36.520 79.256 C 36.486 63.165,36.459 76.401,36.459 108.670 M277.969 129.869 C 284.730 129.904,295.793 129.904,302.553 129.869 C 309.314 129.834,303.783 129.806,290.261 129.806 C 276.740 129.806,271.208 129.834,277.969 129.869 M272.089 208.432 C 272.089 245.143,272.116 260.125,272.150 241.727 C 272.183 223.328,272.183 193.293,272.150 174.981 C 272.116 156.669,272.089 171.722,272.089 208.432 M308.431 208.432 C 308.431 245.143,308.458 260.125,308.492 241.727 C 308.525 223.328,308.525 193.293,308.492 174.981 C 308.458 156.669,308.431 171.722,308.431 208.432 M137.884 226.010 C 137.884 253.314,137.911 264.519,137.945 250.910 C 137.979 237.301,137.979 214.961,137.945 201.266 C 137.911 187.571,137.884 198.705,137.884 226.010 M174.226 226.010 C 174.226 253.314,174.254 264.519,174.287 250.910 C 174.321 237.301,174.321 214.961,174.287 201.266 C 174.254 187.571,174.226 198.705,174.226 226.010 M36.452 181.770 C 36.390 181.933,36.366 207.559,36.400 238.717 L 36.461 295.368 36.580 238.420 C 36.645 207.099,36.668 181.473,36.632 181.473 C 36.595 181.473,36.514 181.606,36.452 181.770 M214.091 202.791 C 219.163 202.827,227.394 202.827,232.381 202.791 C 237.368 202.755,233.219 202.726,223.159 202.726 C 213.100 202.726,209.019 202.755,214.091 202.791 M119.118 246.200 C 119.118 265.926,119.146 274.032,119.180 264.211 C 119.215 254.391,119.215 238.250,119.181 228.344 C 119.146 218.438,119.118 226.473,119.118 246.200 M79.887 217.043 C 84.959 217.078,93.189 217.078,98.177 217.043 C 103.164 217.007,99.014 216.978,88.955 216.978 C 78.895 216.978,74.815 217.007,79.887 217.043 M113.480 307.304 C 159.498 307.337,234.801 307.337,280.819 307.304 C 326.838 307.271,289.186 307.244,197.150 307.244 C 105.113 307.244,67.461 307.271,113.480 307.304 " stroke="none" fill="#7ccc9c" fill-rule="evenodd"></path><path id="path3" d="M270.126 78.622 C 270.126 79.080,270.175 79.267,270.235 79.038 C 270.295 78.809,270.295 78.435,270.235 78.207 C 270.175 77.978,270.126 78.165,270.126 78.622 M122.150 109.190 C 122.378 109.250,122.752 109.250,122.981 109.190 C 123.210 109.130,123.023 109.081,122.565 109.081 C 122.108 109.081,121.921 109.130,122.150 109.190 M143.527 164.549 C 150.419 164.584,161.695 164.584,168.587 164.549 C 175.478 164.514,169.840 164.485,156.057 164.485 C 142.274 164.485,136.636 164.514,143.527 164.549 M192.990 239.074 C 192.990 262.720,193.018 272.358,193.052 260.492 C 193.086 248.626,193.086 229.279,193.052 217.499 C 193.018 205.719,192.990 215.428,192.990 239.074 M253.323 239.192 C 253.323 262.904,253.351 272.604,253.385 260.748 C 253.419 248.893,253.419 229.492,253.385 217.637 C 253.351 205.781,253.323 215.481,253.323 239.192 M70.899 246.318 C 70.899 262.452,70.927 269.053,70.962 260.986 C 70.997 252.919,70.997 239.718,70.962 231.651 C 70.927 223.584,70.899 230.184,70.899 246.318 M281.176 275.000 C 286.173 275.036,294.350 275.036,299.347 275.000 C 304.344 274.964,300.255 274.935,290.261 274.935 C 280.267 274.935,276.179 274.964,281.176 275.000 M349.704 282.067 C 349.706 282.589,349.755 282.775,349.812 282.479 C 349.869 282.184,349.866 281.756,349.807 281.529 C 349.747 281.302,349.701 281.544,349.704 282.067 M76.681 287.589 C 83.517 287.624,94.633 287.624,101.384 287.589 C 108.135 287.554,102.542 287.525,88.955 287.525 C 75.368 287.525,69.845 287.554,76.681 287.589 M143.902 287.589 C 150.738 287.624,161.854 287.624,168.605 287.589 C 175.356 287.554,169.762 287.525,156.176 287.525 C 142.589 287.525,137.066 287.554,143.902 287.589 M210.885 287.589 C 217.721 287.624,228.838 287.624,235.588 287.589 C 242.339 287.554,236.746 287.525,223.159 287.525 C 209.572 287.525,204.049 287.554,210.885 287.589 M349.704 320.546 C 349.706 321.069,349.755 321.255,349.812 320.959 C 349.869 320.664,349.866 320.236,349.807 320.009 C 349.747 319.782,349.701 320.024,349.704 320.546 " stroke="none" fill="#bce4cc" fill-rule="evenodd"></path><path id="path4" d="" stroke="none" fill="#9dd7b7" fill-rule="evenodd"></path></g></svg>