<svg id="svg" version="1.1" xmlns="http://www.w3.org/2000/svg" xmlns:xlink="http://www.w3.org/1999/xlink" width="400" height="346.35294117647055" viewBox="0, 0, 400,346.35294117647055"><g id="svgg"><path id="path0" d="M73.207 0.264 C 67.899 1.150,63.128 5.512,61.771 10.718 C 61.220 12.836,61.223 308.824,61.775 310.942 C 63.098 316.022,67.485 320.222,72.588 321.293 C 75.067 321.814,292.219 321.817,294.676 321.296 C 299.921 320.185,304.563 315.566,305.626 310.400 C 305.796 309.573,305.882 303.823,305.882 293.300 L 305.882 277.447 309.235 275.712 C 351.191 254.000,368.459 202.406,348.101 159.581 C 339.780 142.078,325.041 127.023,307.941 118.561 L 305.882 117.542 305.881 101.771 C 305.880 84.884,305.884 84.948,304.640 83.205 C 303.110 81.060,221.541 1.594,220.079 0.824 L 218.739 0.118 146.605 0.085 C 105.004 0.067,73.936 0.142,73.207 0.264 M210.172 51.235 L 210.235 88.824 210.807 89.975 C 211.551 91.476,212.721 92.625,214.211 93.319 L 215.412 93.878 253.824 93.880 L 292.235 93.882 292.235 103.153 L 292.235 112.424 290.529 111.979 C 270.177 106.676,247.263 109.116,228.844 118.547 L 226.235 119.882 162.588 120.000 L 98.941 120.118 97.680 120.816 C 93.404 123.185,92.812 128.931,96.517 132.103 C 98.459 133.765,94.113 133.647,153.454 133.647 C 182.937 133.647,207.059 133.729,207.059 133.829 C 207.059 133.930,206.256 134.803,205.275 135.771 C 201.437 139.555,196.458 145.847,193.647 150.464 C 192.806 151.846,191.925 153.233,191.689 153.547 L 191.260 154.118 145.218 154.120 L 99.176 154.122 98.000 154.680 C 92.598 157.242,92.804 164.612,98.353 167.255 C 99.111 167.616,102.603 167.652,142.147 167.710 L 185.118 167.773 184.310 170.298 C 182.792 175.039,181.323 181.722,180.755 186.471 L 180.586 187.882 139.881 188.000 L 99.176 188.118 97.830 188.779 C 92.730 191.283,92.895 198.779,98.101 201.147 C 98.863 201.494,102.725 201.540,139.528 201.647 L 180.114 201.765 180.407 205.176 C 180.844 210.269,182.492 219.307,183.419 221.703 C 183.569 222.091,181.347 222.116,141.142 222.174 L 98.706 222.235 97.765 222.745 C 92.647 225.515,92.945 232.829,98.273 235.239 C 99.119 235.621,102.048 235.652,144.000 235.721 L 188.824 235.796 189.529 237.244 C 191.855 242.015,195.707 247.977,199.595 252.824 L 202.050 255.882 150.613 256.000 L 99.176 256.118 98.106 256.613 C 93.572 258.711,92.662 264.702,96.379 267.974 C 98.453 269.799,92.791 269.647,158.523 269.647 L 217.433 269.647 219.128 270.787 C 239.734 284.643,265.661 289.189,289.715 283.165 C 290.982 282.848,292.068 282.588,292.129 282.588 C 292.190 282.588,292.212 288.279,292.179 295.235 L 292.118 307.882 183.765 307.942 C 82.100 307.999,75.394 307.978,75.118 307.603 C 74.618 306.925,74.693 14.517,75.193 14.017 C 75.528 13.682,81.992 13.647,142.835 13.647 L 210.108 13.647 210.172 51.235 M250.260 48.917 C 264.611 62.945,277.676 75.730,279.293 77.329 L 282.233 80.235 252.999 80.235 L 223.765 80.235 223.765 51.745 C 223.765 36.075,223.855 23.290,223.966 23.333 C 224.076 23.376,235.909 34.889,250.260 48.917 M99.059 52.219 C 93.099 54.052,92.274 62.011,97.744 64.897 L 98.941 65.529 147.412 65.529 L 195.882 65.529 196.851 65.011 C 202.011 62.251,202.011 55.396,196.851 52.636 L 195.882 52.118 147.765 52.078 C 121.300 52.056,99.382 52.119,99.059 52.219 M97.995 86.672 C 92.594 89.188,92.869 97.168,98.427 99.217 C 99.883 99.754,199.414 99.625,200.604 99.085 C 205.682 96.778,205.882 89.329,200.931 86.856 L 199.454 86.118 149.315 86.120 L 99.176 86.122 97.995 86.672 M274.588 123.070 C 331.024 128.173,361.724 191.315,330.697 238.471 C 303.936 279.142,245.517 283.673,213.127 247.590 C 171.461 201.173,200.789 128.154,263.176 122.981 C 265.435 122.793,272.108 122.846,274.588 123.070 M307.476 150.295 C 307.123 150.521,296.453 162.565,283.765 177.059 C 271.077 191.553,260.606 203.443,260.495 203.481 C 260.384 203.518,254.763 197.218,248.004 189.481 C 233.731 173.139,234.436 173.882,233.191 173.882 C 231.643 173.882,231.513 174.011,221.529 185.431 C 211.373 197.048,211.142 197.349,211.384 198.639 C 211.513 199.327,246.336 239.540,257.331 251.697 C 259.244 253.813,260.067 254.204,261.423 253.643 C 262.392 253.241,330.243 175.791,330.422 174.882 C 330.701 173.467,330.348 172.999,320.678 161.942 C 309.394 149.040,309.413 149.056,307.476 150.295 " stroke="none" fill="#0d354d" fill-rule="evenodd"></path><path id="path1" d="M0.000 173.176 L 0.000 346.353 200.000 346.353 L 400.000 346.353 400.000 173.176 L 400.000 0.000 309.353 0.002 L 218.706 0.005 219.936 0.577 C 221.318 1.221,217.615 -2.352,270.824 49.687 C 297.897 76.167,304.728 82.967,305.294 84.002 L 306.000 85.294 306.068 101.412 L 306.136 117.529 309.244 119.118 C 332.286 130.892,349.525 153.585,354.918 179.242 C 363.214 218.712,343.335 259.424,307.192 276.984 L 306.118 277.506 306.114 293.047 C 306.109 310.518,306.112 310.479,304.441 313.869 C 302.703 317.394,299.428 320.076,295.294 321.358 C 293.429 321.937,76.144 322.112,73.059 321.537 C 67.588 320.519,63.009 316.266,61.646 310.939 C 61.002 308.420,60.899 13.797,61.541 11.071 C 62.752 5.933,66.855 1.768,72.101 0.353 C 73.125 0.077,68.098 0.029,36.647 0.015 L 0.000 0.000 0.000 173.176 M75.168 14.176 C 75.106 14.338,75.083 80.435,75.116 161.059 L 75.176 307.647 183.647 307.647 L 292.118 307.647 292.179 295.149 L 292.239 282.650 290.655 283.090 C 267.720 289.449,240.287 284.967,220.118 271.564 L 217.765 270.000 158.471 269.882 L 99.176 269.765 97.840 269.108 C 92.680 266.574,92.606 259.377,97.712 256.649 L 98.706 256.118 150.313 256.000 L 201.920 255.882 200.195 253.804 C 196.518 249.373,192.193 242.822,189.612 237.774 L 188.588 235.771 143.647 235.709 L 98.706 235.647 97.719 235.120 C 92.597 232.382,92.689 225.276,97.882 222.555 L 98.941 222.000 141.133 221.939 C 181.089 221.881,183.318 221.856,183.203 221.468 C 181.863 216.963,180.578 209.634,180.108 203.826 L 179.951 201.888 139.564 201.826 L 99.176 201.765 97.840 201.108 C 92.592 198.531,92.579 191.241,97.818 188.662 L 99.402 187.882 139.910 187.819 L 180.417 187.756 180.582 186.407 C 181.137 181.844,182.455 175.817,183.886 171.294 C 184.357 169.806,184.799 168.403,184.869 168.176 C 184.990 167.785,182.853 167.765,142.272 167.765 C 100.146 167.765,99.529 167.758,98.291 167.295 C 92.702 165.204,92.451 157.400,97.882 154.555 L 98.941 154.000 145.176 153.938 L 191.412 153.876 192.817 151.523 C 195.765 146.590,200.242 140.784,204.557 136.300 L 206.878 133.887 153.027 133.826 L 99.176 133.765 97.840 133.108 C 92.578 130.524,92.570 123.246,97.827 120.658 L 99.402 119.882 162.936 119.765 L 226.471 119.647 229.529 118.087 C 247.217 109.067,269.489 106.627,289.252 111.543 C 290.781 111.924,292.078 112.235,292.134 112.235 C 292.190 112.235,292.235 108.160,292.235 103.179 L 292.235 94.123 253.706 94.062 L 215.176 94.000 213.971 93.364 C 213.308 93.014,212.336 92.241,211.812 91.645 C 209.984 89.569,210.118 92.758,210.118 51.135 L 210.118 13.882 142.698 13.882 C 88.980 13.882,75.257 13.942,75.168 14.176 M224.000 51.844 L 224.000 80.235 252.941 80.235 C 268.859 80.235,281.882 80.194,281.882 80.144 C 281.882 80.094,270.579 69.004,256.765 55.500 C 242.950 41.996,229.926 29.261,227.824 27.200 L 224.000 23.453 224.000 51.844 M196.726 52.499 C 202.220 55.075,202.271 62.481,196.814 65.186 L 195.647 65.765 147.412 65.765 L 99.176 65.765 97.830 65.103 C 93.113 62.787,92.538 56.125,96.801 53.192 C 98.964 51.704,95.762 51.788,147.882 51.838 L 195.412 51.882 196.726 52.499 M199.997 86.256 C 205.978 88.032,206.218 97.080,200.341 99.278 C 198.498 99.968,100.472 100.057,98.454 99.370 C 92.189 97.240,92.607 88.072,99.059 86.102 C 100.372 85.702,198.634 85.851,199.997 86.256 M262.235 123.198 C 261.847 123.251,260.524 123.408,259.294 123.547 C 218.512 128.174,188.508 167.281,194.591 207.882 C 203.699 268.670,277.451 293.413,320.840 250.237 C 364.324 206.967,339.913 133.260,278.941 123.724 C 276.029 123.268,264.403 122.902,262.235 123.198 M310.474 150.293 C 310.913 150.630,327.672 169.686,329.941 172.430 C 330.423 173.012,330.588 173.468,330.588 174.211 C 330.588 175.535,333.801 171.757,295.667 215.273 C 259.445 256.608,261.533 254.373,259.642 253.851 C 258.910 253.649,213.225 202.056,211.586 199.581 C 211.029 198.740,211.135 197.311,211.820 196.417 C 213.778 193.863,231.432 174.054,231.915 173.870 C 233.932 173.103,233.416 172.610,247.739 188.994 L 260.436 203.518 283.453 177.230 C 296.113 162.772,306.718 150.710,307.019 150.426 C 307.936 149.565,309.445 149.506,310.474 150.293 " stroke="none" fill="#fbfbfb" fill-rule="evenodd"></path><path id="path2" d="M223.765 3.882 C 224.468 4.594,225.096 5.176,225.160 5.176 C 225.225 5.176,224.703 4.594,224.000 3.882 C 223.297 3.171,222.669 2.588,222.604 2.588 C 222.540 2.588,223.062 3.171,223.765 3.882 M65.279 4.294 L 64.588 5.059 65.353 4.368 C 65.774 3.988,66.118 3.644,66.118 3.603 C 66.118 3.421,65.923 3.581,65.279 4.294 M234.353 14.235 C 235.056 14.947,235.684 15.529,235.749 15.529 C 235.813 15.529,235.291 14.947,234.588 14.235 C 233.885 13.524,233.257 12.941,233.193 12.941 C 233.128 12.941,233.650 13.524,234.353 14.235 M109.118 13.824 C 127.656 13.857,157.991 13.857,176.529 13.824 C 195.068 13.790,179.900 13.763,142.824 13.763 C 105.747 13.763,90.579 13.790,109.118 13.824 M244.941 24.588 C 245.644 25.300,246.272 25.882,246.337 25.882 C 246.402 25.882,245.879 25.300,245.176 24.588 C 244.474 23.876,243.845 23.294,243.781 23.294 C 243.716 23.294,244.238 23.876,244.941 24.588 M227.059 26.471 C 227.762 27.182,228.390 27.765,228.455 27.765 C 228.519 27.765,227.997 27.182,227.294 26.471 C 226.591 25.759,225.963 25.176,225.898 25.176 C 225.834 25.176,226.356 25.759,227.059 26.471 M255.529 34.941 C 256.232 35.653,256.860 36.235,256.925 36.235 C 256.990 36.235,256.468 35.653,255.765 34.941 C 255.062 34.229,254.434 33.647,254.369 33.647 C 254.304 33.647,254.826 34.229,255.529 34.941 M237.647 36.824 C 238.350 37.535,238.978 38.118,239.043 38.118 C 239.107 38.118,238.585 37.535,237.882 36.824 C 237.179 36.112,236.551 35.529,236.487 35.529 C 236.422 35.529,236.944 36.112,237.647 36.824 M266.118 45.294 C 266.821 46.006,267.449 46.588,267.513 46.588 C 267.578 46.588,267.056 46.006,266.353 45.294 C 265.650 44.582,265.022 44.000,264.957 44.000 C 264.893 44.000,265.415 44.582,266.118 45.294 M248.235 47.176 C 248.938 47.888,249.566 48.471,249.631 48.471 C 249.696 48.471,249.174 47.888,248.471 47.176 C 247.768 46.465,247.140 45.882,247.075 45.882 C 247.010 45.882,247.532 46.465,248.235 47.176 M276.706 55.647 C 277.409 56.359,278.037 56.941,278.102 56.941 C 278.166 56.941,277.644 56.359,276.941 55.647 C 276.238 54.935,275.610 54.353,275.545 54.353 C 275.481 54.353,276.003 54.935,276.706 55.647 M258.824 57.529 C 259.526 58.241,260.155 58.824,260.219 58.824 C 260.284 58.824,259.762 58.241,259.059 57.529 C 258.356 56.818,257.728 56.235,257.663 56.235 C 257.598 56.235,258.121 56.818,258.824 57.529 M200.760 58.824 C 200.760 59.276,200.809 59.462,200.868 59.235 C 200.927 59.009,200.927 58.638,200.868 58.412 C 200.809 58.185,200.760 58.371,200.760 58.824 M287.294 66.000 C 287.997 66.712,288.625 67.294,288.690 67.294 C 288.755 67.294,288.232 66.712,287.529 66.000 C 286.826 65.288,286.198 64.706,286.134 64.706 C 286.069 64.706,286.591 65.288,287.294 66.000 M269.412 67.882 C 270.115 68.594,270.743 69.176,270.807 69.176 C 270.872 69.176,270.350 68.594,269.647 67.882 C 268.944 67.171,268.316 66.588,268.251 66.588 C 268.187 66.588,268.709 67.171,269.412 67.882 M297.882 76.353 C 298.585 77.065,299.213 77.647,299.278 77.647 C 299.343 77.647,298.821 77.065,298.118 76.353 C 297.415 75.641,296.787 75.059,296.722 75.059 C 296.657 75.059,297.179 75.641,297.882 76.353 M280.000 78.235 C 280.703 78.947,281.331 79.529,281.396 79.529 C 281.460 79.529,280.938 78.947,280.235 78.235 C 279.532 77.524,278.904 76.941,278.840 76.941 C 278.775 76.941,279.297 77.524,280.000 78.235 M305.993 101.882 C 305.993 110.488,306.023 114.009,306.059 109.706 C 306.095 105.403,306.095 98.362,306.059 94.059 C 306.023 89.756,305.993 93.276,305.993 101.882 M235.254 94.059 C 245.779 94.093,262.932 94.093,273.371 94.059 C 283.811 94.025,275.200 93.997,254.235 93.997 C 233.271 93.997,224.729 94.025,235.254 94.059 M265.356 122.990 C 265.648 123.046,266.072 123.044,266.297 122.985 C 266.522 122.926,266.282 122.880,265.765 122.883 C 265.247 122.885,265.063 122.934,265.356 122.990 M270.532 122.990 C 270.825 123.046,271.248 123.044,271.473 122.985 C 271.698 122.926,271.459 122.880,270.941 122.883 C 270.424 122.885,270.239 122.934,270.532 122.990 M127.136 133.824 C 141.867 133.857,165.903 133.857,180.548 133.824 C 195.194 133.790,183.141 133.763,153.765 133.763 C 124.388 133.763,112.406 133.790,127.136 133.824 M319.059 142.897 C 319.059 142.938,319.403 143.282,319.824 143.662 L 320.588 144.353 319.897 143.588 C 319.253 142.875,319.059 142.715,319.059 142.897 M215.529 144.824 C 214.565 145.794,213.829 146.588,213.894 146.588 C 213.959 146.588,214.801 145.794,215.765 144.824 C 216.729 143.853,217.465 143.059,217.400 143.059 C 217.335 143.059,216.494 143.853,215.529 144.824 M342.911 197.412 C 342.911 198.771,342.949 199.326,342.997 198.647 C 343.045 197.968,343.045 196.856,342.997 196.176 C 342.949 195.497,342.911 196.053,342.911 197.412 M193.731 197.529 C 193.730 198.694,193.770 199.200,193.819 198.654 C 193.868 198.108,193.869 197.155,193.820 196.537 C 193.772 195.918,193.731 196.365,193.731 197.529 M140.161 201.823 L 179.969 201.884 180.072 202.474 C 180.166 203.014,180.172 203.009,180.146 202.415 L 180.118 201.765 140.235 201.764 L 100.353 201.763 140.161 201.823 M120.765 222.059 C 132.250 222.093,151.044 222.093,162.529 222.059 C 174.015 222.025,164.618 221.997,141.647 221.997 C 118.676 221.997,109.279 222.025,120.765 222.059 M330.695 260.059 L 329.765 261.059 330.765 260.129 C 331.695 259.264,331.873 259.059,331.695 259.059 C 331.656 259.059,331.206 259.509,330.695 260.059 M129.471 269.824 C 145.615 269.857,172.032 269.857,188.176 269.824 C 204.321 269.790,191.112 269.763,158.824 269.763 C 126.535 269.763,113.326 269.790,129.471 269.824 M305.993 292.941 C 305.993 301.547,306.023 305.068,306.059 300.765 C 306.095 296.462,306.095 289.421,306.059 285.118 C 306.023 280.815,305.993 284.335,305.993 292.941 M301.750 317.471 L 301.059 318.235 301.824 317.544 C 302.536 316.900,302.696 316.706,302.515 316.706 C 302.474 316.706,302.130 317.050,301.750 317.471 M129.607 321.824 C 159.415 321.856,208.121 321.856,237.843 321.824 C 267.565 321.791,243.176 321.764,183.647 321.764 C 124.118 321.764,99.800 321.791,129.607 321.824 " stroke="none" fill="#849ca4" fill-rule="evenodd"></path><path id="path3" d="M231.647 11.529 C 232.415 12.306,233.097 12.941,233.162 12.941 C 233.226 12.941,232.651 12.306,231.882 11.529 C 231.114 10.753,230.432 10.118,230.368 10.118 C 230.303 10.118,230.879 10.753,231.647 11.529 M242.235 21.882 C 243.004 22.659,243.685 23.294,243.750 23.294 C 243.815 23.294,243.239 22.659,242.471 21.882 C 241.702 21.106,241.021 20.471,240.956 20.471 C 240.891 20.471,241.467 21.106,242.235 21.882 M229.647 29.059 C 230.350 29.771,230.978 30.353,231.043 30.353 C 231.107 30.353,230.585 29.771,229.882 29.059 C 229.179 28.347,228.551 27.765,228.487 27.765 C 228.422 27.765,228.944 28.347,229.647 29.059 M252.824 32.235 C 253.592 33.012,254.274 33.647,254.338 33.647 C 254.403 33.647,253.827 33.012,253.059 32.235 C 252.290 31.459,251.609 30.824,251.544 30.824 C 251.479 30.824,252.055 31.459,252.824 32.235 M240.235 39.412 C 240.938 40.124,241.566 40.706,241.631 40.706 C 241.696 40.706,241.174 40.124,240.471 39.412 C 239.768 38.700,239.140 38.118,239.075 38.118 C 239.010 38.118,239.532 38.700,240.235 39.412 M263.412 42.588 C 264.180 43.365,264.862 44.000,264.926 44.000 C 264.991 44.000,264.415 43.365,263.647 42.588 C 262.879 41.812,262.197 41.176,262.132 41.176 C 262.068 41.176,262.643 41.812,263.412 42.588 M250.824 49.765 C 251.526 50.476,252.155 51.059,252.219 51.059 C 252.284 51.059,251.762 50.476,251.059 49.765 C 250.356 49.053,249.728 48.471,249.663 48.471 C 249.598 48.471,250.121 49.053,250.824 49.765 M274.000 52.941 C 274.768 53.718,275.450 54.353,275.515 54.353 C 275.579 54.353,275.004 53.718,274.235 52.941 C 273.467 52.165,272.785 51.529,272.721 51.529 C 272.656 51.529,273.232 52.165,274.000 52.941 M123.842 51.941 C 136.891 51.975,158.173 51.975,171.136 51.941 C 184.100 51.908,173.424 51.880,147.412 51.880 C 121.400 51.880,110.794 51.908,123.842 51.941 M261.412 60.118 C 262.115 60.829,262.743 61.412,262.807 61.412 C 262.872 61.412,262.350 60.829,261.647 60.118 C 260.944 59.406,260.316 58.824,260.251 58.824 C 260.187 58.824,260.709 59.406,261.412 60.118 M284.588 63.294 C 285.357 64.071,286.038 64.706,286.103 64.706 C 286.168 64.706,285.592 64.071,284.824 63.294 C 284.055 62.518,283.374 61.882,283.309 61.882 C 283.244 61.882,283.820 62.518,284.588 63.294 M123.725 65.824 C 136.838 65.857,158.226 65.857,171.254 65.824 C 184.282 65.790,173.553 65.762,147.412 65.762 C 121.271 65.762,110.611 65.790,123.725 65.824 M272.000 70.471 C 272.703 71.182,273.331 71.765,273.396 71.765 C 273.460 71.765,272.938 71.182,272.235 70.471 C 271.532 69.759,270.904 69.176,270.840 69.176 C 270.775 69.176,271.297 69.759,272.000 70.471 M295.176 73.647 C 295.945 74.424,296.626 75.059,296.691 75.059 C 296.756 75.059,296.180 74.424,295.412 73.647 C 294.643 72.871,293.962 72.235,293.897 72.235 C 293.832 72.235,294.408 72.871,295.176 73.647 M267.009 109.116 C 267.823 109.162,269.094 109.161,269.833 109.115 C 270.572 109.068,269.906 109.031,268.353 109.031 C 266.800 109.031,266.195 109.070,267.009 109.116 M131.842 119.941 C 149.162 119.974,177.432 119.974,194.666 119.941 C 211.900 119.908,197.729 119.881,163.176 119.881 C 128.624 119.881,114.523 119.908,131.842 119.941 M267.477 122.996 C 268.030 123.046,268.877 123.045,269.359 122.995 C 269.841 122.944,269.388 122.903,268.353 122.904 C 267.318 122.905,266.923 122.946,267.477 122.996 M120.666 187.941 C 131.708 187.975,149.708 187.975,160.666 187.941 C 171.623 187.907,162.588 187.880,140.588 187.880 C 118.588 187.880,109.623 187.907,120.666 187.941 M129.607 307.941 C 159.415 307.974,208.121 307.974,237.843 307.941 C 267.565 307.908,243.176 307.881,183.647 307.881 C 124.118 307.881,99.800 307.908,129.607 307.941 " stroke="none" fill="#c4ccd4" fill-rule="evenodd"></path><path id="path4" d="M226.353 6.471 C 227.056 7.182,227.684 7.765,227.749 7.765 C 227.813 7.765,227.291 7.182,226.588 6.471 C 225.885 5.759,225.257 5.176,225.193 5.176 C 225.128 5.176,225.650 5.759,226.353 6.471 M61.293 160.824 C 61.293 242.094,61.320 275.306,61.353 234.628 C 61.386 193.949,61.386 127.455,61.353 86.863 C 61.320 46.271,61.293 79.553,61.293 160.824 M74.940 160.824 C 74.940 241.447,74.967 274.394,75.000 234.039 C 75.033 193.685,75.033 127.720,75.000 87.451 C 74.967 47.182,74.940 80.200,74.940 160.824 M236.941 16.824 C 237.644 17.535,238.272 18.118,238.337 18.118 C 238.402 18.118,237.879 17.535,237.176 16.824 C 236.474 16.112,235.845 15.529,235.781 15.529 C 235.716 15.529,236.238 16.112,236.941 16.824 M223.823 51.824 L 223.880 80.353 223.941 51.894 L 224.002 23.436 225.001 24.365 L 226.000 25.294 225.070 24.294 C 224.558 23.744,224.055 23.294,223.952 23.294 C 223.849 23.294,223.791 36.132,223.823 51.824 M247.529 27.176 C 248.232 27.888,248.860 28.471,248.925 28.471 C 248.990 28.471,248.468 27.888,247.765 27.176 C 247.062 26.465,246.434 25.882,246.369 25.882 C 246.304 25.882,246.826 26.465,247.529 27.176 M235.059 34.235 C 235.762 34.947,236.390 35.529,236.455 35.529 C 236.519 35.529,235.997 34.947,235.294 34.235 C 234.591 33.524,233.963 32.941,233.898 32.941 C 233.834 32.941,234.356 33.524,235.059 34.235 M258.118 37.529 C 258.821 38.241,259.449 38.824,259.513 38.824 C 259.578 38.824,259.056 38.241,258.353 37.529 C 257.650 36.818,257.022 36.235,256.957 36.235 C 256.893 36.235,257.415 36.818,258.118 37.529 M245.647 44.588 C 246.350 45.300,246.978 45.882,247.043 45.882 C 247.107 45.882,246.585 45.300,245.882 44.588 C 245.179 43.876,244.551 43.294,244.487 43.294 C 244.422 43.294,244.944 43.876,245.647 44.588 M268.706 47.882 C 269.409 48.594,270.037 49.176,270.102 49.176 C 270.166 49.176,269.644 48.594,268.941 47.882 C 268.238 47.171,267.610 46.588,267.545 46.588 C 267.481 46.588,268.003 47.171,268.706 47.882 M256.235 54.941 C 256.938 55.653,257.566 56.235,257.631 56.235 C 257.696 56.235,257.174 55.653,256.471 54.941 C 255.768 54.229,255.140 53.647,255.075 53.647 C 255.010 53.647,255.532 54.229,256.235 54.941 M279.294 58.235 C 279.997 58.947,280.625 59.529,280.690 59.529 C 280.755 59.529,280.232 58.947,279.529 58.235 C 278.826 57.524,278.198 56.941,278.134 56.941 C 278.069 56.941,278.591 57.524,279.294 58.235 M266.824 65.294 C 267.526 66.006,268.155 66.588,268.219 66.588 C 268.284 66.588,267.762 66.006,267.059 65.294 C 266.356 64.582,265.728 64.000,265.663 64.000 C 265.598 64.000,266.121 64.582,266.824 65.294 M289.882 68.588 C 290.585 69.300,291.213 69.882,291.278 69.882 C 291.343 69.882,290.821 69.300,290.118 68.588 C 289.415 67.876,288.787 67.294,288.722 67.294 C 288.657 67.294,289.179 67.876,289.882 68.588 M277.412 75.647 C 278.115 76.359,278.743 76.941,278.807 76.941 C 278.872 76.941,278.350 76.359,277.647 75.647 C 276.944 74.935,276.316 74.353,276.251 74.353 C 276.187 74.353,276.709 74.935,277.412 75.647 M300.471 78.941 C 301.174 79.653,301.802 80.235,301.866 80.235 C 301.931 80.235,301.409 79.653,300.706 78.941 C 300.003 78.229,299.375 77.647,299.310 77.647 C 299.245 77.647,299.768 78.229,300.471 78.941 M124.783 86.059 C 138.350 86.092,160.479 86.092,173.960 86.059 C 187.441 86.025,176.341 85.998,149.294 85.998 C 122.247 85.998,111.217 86.025,124.783 86.059 M204.538 92.824 C 204.540 93.471,204.585 93.707,204.639 93.350 C 204.694 92.992,204.692 92.463,204.636 92.173 C 204.580 91.884,204.536 92.176,204.538 92.824 M124.548 99.706 C 138.244 99.739,160.585 99.739,174.195 99.706 C 187.806 99.672,176.600 99.645,149.294 99.645 C 121.988 99.645,110.853 99.672,124.548 99.706 M330.706 135.059 C 331.605 135.965,332.393 136.706,332.458 136.706 C 332.523 136.706,331.840 135.965,330.941 135.059 C 330.042 134.153,329.254 133.412,329.189 133.412 C 329.124 133.412,329.807 134.153,330.706 135.059 M205.522 135.353 L 204.118 136.824 205.588 135.419 C 206.397 134.647,207.059 133.985,207.059 133.949 C 207.059 133.775,206.827 133.987,205.522 135.353 M123.118 154.059 C 135.638 154.092,156.126 154.092,168.647 154.059 C 181.168 154.025,170.924 153.998,145.882 153.998 C 120.841 153.998,110.597 154.025,123.118 154.059 M356.525 193.412 C 356.525 193.865,356.574 194.050,356.633 193.824 C 356.692 193.597,356.692 193.226,356.633 193.000 C 356.574 192.774,356.525 192.959,356.525 193.412 M342.878 194.353 C 342.878 194.806,342.927 194.991,342.986 194.765 C 343.045 194.538,343.045 194.168,342.986 193.941 C 342.927 193.715,342.878 193.900,342.878 194.353 M193.706 194.706 C 193.709 195.224,193.757 195.408,193.813 195.115 C 193.870 194.822,193.868 194.399,193.809 194.174 C 193.750 193.949,193.704 194.188,193.706 194.706 M193.702 200.235 C 193.702 200.688,193.750 200.874,193.809 200.647 C 193.868 200.421,193.868 200.050,193.809 199.824 C 193.750 199.597,193.702 199.782,193.702 200.235 M342.878 200.471 C 342.878 200.924,342.927 201.109,342.986 200.882 C 343.045 200.656,343.045 200.285,342.986 200.059 C 342.927 199.832,342.878 200.018,342.878 200.471 M215.412 250.118 C 216.049 250.765,216.623 251.294,216.688 251.294 C 216.753 251.294,216.284 250.765,215.647 250.118 C 215.010 249.471,214.435 248.941,214.371 248.941 C 214.306 248.941,214.774 249.471,215.412 250.118 M320.933 250.294 L 319.647 251.647 321.000 250.361 C 321.744 249.654,322.353 249.045,322.353 249.008 C 322.353 248.833,322.128 249.037,320.933 250.294 M267.009 272.174 C 267.823 272.221,269.094 272.220,269.833 272.174 C 270.572 272.127,269.906 272.089,268.353 272.090 C 266.800 272.090,266.195 272.128,267.009 272.174 M265.239 285.816 C 265.596 285.870,266.126 285.869,266.415 285.813 C 266.704 285.757,266.412 285.713,265.765 285.714 C 265.118 285.716,264.881 285.762,265.239 285.816 M270.415 285.816 C 270.773 285.870,271.302 285.869,271.591 285.813 C 271.881 285.757,271.588 285.713,270.941 285.714 C 270.294 285.716,270.057 285.762,270.415 285.816 M64.706 316.780 C 64.706 316.820,65.050 317.164,65.471 317.544 L 66.235 318.235 65.544 317.471 C 64.900 316.758,64.706 316.598,64.706 316.780 " stroke="none" fill="#748c9c" fill-rule="evenodd"></path></g></svg>