<svg id="Layer_1" data-name="Layer 1" xmlns="http://www.w3.org/2000/svg" viewBox="0 0 503.67 474.61"><path d="M507.76,233.47a3.18,3.18,0,0,0-1.17-2.13,51.13,51.13,0,0,0-6.43-4.58c-3.59-2-5.85-4.78-6.11-8.95a7.79,7.79,0,0,1,.31-3.38c1.64-3.92,3.52-7.74,5.19-11.64a2.88,2.88,0,0,0-.1-2.23q-4-7.14-8.15-14.17a2.76,2.76,0,0,0-1.74-1.22c-2.91-.37-5.84-.68-8.77-.79-3.46-.12-6.63-.66-8.64-3.92-.21-.35-.67-.55-.86-.91a8.31,8.31,0,0,1-1.28-2.76c-.5-4.23-.77-8.47-1.26-12.69a3.19,3.19,0,0,0-1.33-2.07q-6.93-4.17-14-8.09a3.24,3.24,0,0,0-2.45-.09,48.83,48.83,0,0,0-7,3.21c-3.68,2.19-7.37,2.84-11.3.94a6.44,6.44,0,0,1-2.38-1.65c-2.58-3.45-5-7-7.57-10.49a2.91,2.91,0,0,0-2-1.1q-8.26-.13-16.54,0a3,3,0,0,0-2,1.09,44.16,44.16,0,0,0-4.35,6.15c-2.15,4-5.29,6.3-9.78,6.72a4.75,4.75,0,0,1-2.38-.26c-2.23-1.09-4.34-2.44-6.58-3.51q-52.29-25.06-104.61-50.08c-7.82-3.74-15.64-7.5-23-11-.43-1.37-.67-2.37-1-3.32a21,21,0,0,0-1.37-2.92,6.06,6.06,0,0,1-.49-5.1,4.84,4.84,0,0,1,2.84-3c3.72-1.85,4.79-4.61,4.68-8.76-.09-3.59-.89-6-4.12-7.6a6.05,6.05,0,0,1-3.5-4.63c-.35-1.93.6-3.32,1.4-4.66,1.78-2.95,1.36-5.28-.22-8.35-2-3.89-4.55-5.44-8.75-5.4-3.48,0-5.31-2.08-5.52-5.59-.35-5.84-.48-5.64-5.39-8.84-2.85-1.85-5.22-2.22-8.12-.36-1.72,1.1-3.55,1.88-5.9,1a5.94,5.94,0,0,1-3.2-3.15c-1.77-3.41-4.28-4.46-8.17-4.41s-6.51.83-8.17,4.38a5.72,5.72,0,0,1-4.2,3.19c-2.09.51-3.61-.5-5-1.38-3-1.89-5.43-1.48-8.31.4-4.82,3.15-4.94,3-5.28,8.72a5.36,5.36,0,0,1-5.4,5.4,11.11,11.11,0,0,1-2,.19c-3.49-.43-5,1.68-6.71,4.33-2.26,3.45-2.54,6.34-.41,9.93,2,3.35,1.31,5.93-2.06,7.79-3.92,2.16-5.07,5-4.87,9.39.14,3.21.79,5.38,3.68,6.91,1.86,1,3.51,2.21,3.89,4.76a6,6,0,0,1-1.17,4.34c-2.08,3.25-1.82,6,.37,9.27,2.92,4.29,2.67,4.46,7.88,4.82,4.15.29,5.75,1.92,6,6.11a27.93,27.93,0,0,0,.43,4.11,3.73,3.73,0,0,0,1.33,2.07,47.79,47.79,0,0,0,5.59,3.24,25.49,25.49,0,0,0,3.75,1.18,8.7,8.7,0,0,1-.18.9Q172.92,157.9,162,197.05a2,2,0,0,1-2.37,1.72c-6.6-.07-13.19,0-19.79-.05A2.78,2.78,0,0,0,137.2,200q-5.83,8.42-11.88,16.69a4.45,4.45,0,0,1-2.26,1.48c-2.69.8-5.42,1.5-8.16,2.09a4.65,4.65,0,0,1-2.69-.23q-9.69-4.29-19.28-8.77a2.8,2.8,0,0,0-3,.11q-11,6.43-22.09,12.76a3,3,0,0,0-1.75,2.63c-.6,6.74-1.21,13.48-1.92,20.21A4.84,4.84,0,0,1,63,249.59c-1.88,2-3.85,3.95-5.92,5.77a5.26,5.26,0,0,1-2.76,1.28c-6.85.72-13.71,1.33-20.57,1.93a3.46,3.46,0,0,0-3,2q-6.16,11-12.56,21.8a3,3,0,0,0-.15,3.15c2.84,6.07,5.65,12.16,8.36,18.29a5.2,5.2,0,0,1,.2,3,75.3,75.3,0,0,1-2.18,7.77,5.67,5.67,0,0,1-1.83,2.64c-5.66,4.14-11.38,8.18-17.12,12.21a2.54,2.54,0,0,0-1.25,2.35q.06,13,0,26.08a2.46,2.46,0,0,0,1.24,2.31c5.59,3.92,11.17,7.87,16.68,11.9a4.77,4.77,0,0,1,1.6,2.37c.8,2.63,1.49,5.3,2,8a5.3,5.3,0,0,1-.26,3c-2.85,6.46-5.8,12.88-8.79,19.27a2.51,2.51,0,0,0,.13,2.63q6.53,11.18,13,22.4a2.77,2.77,0,0,0,2.37,1.57c6.86.6,13.72,1.22,20.57,1.9a3.66,3.66,0,0,1,2,.85q3.28,3.19,6.38,6.58a3.79,3.79,0,0,1,.94,2c.75,7.15,1.47,14.3,2.07,21.46a2.78,2.78,0,0,0,1.65,2.46c7.33,4.2,14.65,8.4,21.92,12.69a3.18,3.18,0,0,0,3.32.19c6-2.82,12-5.61,18.13-8.27a5.88,5.88,0,0,1,3.38-.2c2.51.54,4.94,1.45,7.44,2a4.37,4.37,0,0,1,2.83,1.94c4,5.7,8.05,11.33,12,17a2.69,2.69,0,0,0,2.51,1.29q12.85-.07,25.72,0a3,3,0,0,0,2.78-1.42q5.8-8.34,11.77-16.56a4.43,4.43,0,0,1,2.24-1.49q4-1.21,8.17-2.1a4.67,4.67,0,0,1,2.7.18c6.56,2.92,13.06,6,19.62,8.89a2.85,2.85,0,0,0,2.24-.05q11.47-6.51,22.86-13.21a3.12,3.12,0,0,0,1.29-2.08c.71-6.85,1.27-13.71,2-20.56a4.53,4.53,0,0,1,1.23-2.43c2-2.09,4-4.11,6.15-6a4.3,4.3,0,0,1,2.33-1q10.73-1.12,21.46-2.09A2.33,2.33,0,0,0,272,432q6.42-11.24,12.93-22.41a2.84,2.84,0,0,0,.15-3c-2.79-6-5.49-12-8.29-17.93a4.94,4.94,0,0,1-.29-3.93c.81-2.44,1.34-5,2.14-7.41a5,5,0,0,1,1.62-2.38c5.67-4.13,11.39-8.17,17.14-12.19a2.84,2.84,0,0,0,1.4-2.62q-.09-12.94,0-25.9a2.83,2.83,0,0,0-1.41-2.62c-5.66-3.94-11.27-7.93-16.88-11.93-1.64-1.17-1.56-1.88.26-2.72l48.56-22.46c.53-.24,1.09-.44,1.76-.71.85,1.74,1.79,3.06,4,3.06,2.62,0,5.25.67,7.87.64a9.74,9.74,0,0,1,8.48,3.94c1,1.24,2,2.25,2.08,4,.27,4.18.69,8.36,1.15,12.52a2.7,2.7,0,0,0,1.13,1.78q7.11,4.23,14.32,8.26a2.73,2.73,0,0,0,2.1.09,65.25,65.25,0,0,0,7.5-3.45c3.47-2,6.86-2.61,10.67-.93a6.43,6.43,0,0,1,3.09,2.17c2.34,3.41,4.79,6.74,7.15,10.14a2.32,2.32,0,0,0,2.17,1.18q8.1-.09,16.19,0a2.5,2.5,0,0,0,2.34-1.25c1.45-2.14,3.13-4.12,4.42-6.34,2-3.5,4.61-6,8.86-6.28.17,0,.34-.15.51-.14a8.5,8.5,0,0,1,2.7.25c4,1.72,7.83,3.6,11.77,5.33a3,3,0,0,0,2.29.07c4.87-2.7,9.68-5.51,14.48-8.34a2.39,2.39,0,0,0,1.05-1.47,59.82,59.82,0,0,0,.73-7.87c0-4.3,1-8,4.78-10.49a7.28,7.28,0,0,1,2.75-1.35c4.27-.53,8.57-.93,12.87-1.28a2.29,2.29,0,0,0,2.11-1.27c2.65-4.69,5.42-9.32,8-14a3.17,3.17,0,0,0,.12-2.42,56,56,0,0,0-3.43-7.51c-1.9-3.29-2.73-6.52-.94-10.09.13-.26.08-.62.23-.86a8.34,8.34,0,0,1,1.68-2.35c3.4-2.56,6.93-4.94,10.33-7.49a3.15,3.15,0,0,0,1.14-2.16Q507.91,241.65,507.76,233.47ZM171,70.6a33.13,33.13,0,1,1,33,33.17A33.24,33.24,0,0,1,171,70.6ZM150,439.84a94,94,0,0,1-92.39-94.27c.12-51.47,42.37-93.53,94-93.41a93.79,93.79,0,0,1,93.68,94C245.4,398,202.62,440.62,150,439.84ZM335,183.75a2.69,2.69,0,0,0-2.37,1.56c-2.6,4.65-5.32,9.23-7.91,13.89a2.93,2.93,0,0,0-.12,2.25c1.65,3.84,3.49,7.61,5.14,11.46a6.3,6.3,0,0,1,.2,2.88c-.39,4.44-3,7.27-6.72,9.41a57.09,57.09,0,0,0-6.72,4.8,2.94,2.94,0,0,0-1,2q-.12,8.19,0,16.37a2.7,2.7,0,0,0,1,1.84c3.37,2.5,6.85,4.85,10.2,7.38a9.39,9.39,0,0,1,1.73,2.51c.06.09,0,.24.07.34,1.77,3.75.54,7-.9,10.68a16.92,16.92,0,0,1-10,10c-11.28,4.79-22.31,10.18-33.45,15.33-.65.3-1.31.56-2.51,1.08,1.71-3.74,3.15-7,4.69-10.22a2.49,2.49,0,0,0-.05-2.64c-4.41-7.55-8.74-15.14-13.17-22.68a2.89,2.89,0,0,0-1.92-1.27c-6.79-.71-13.59-1.27-20.38-2a5.49,5.49,0,0,1-2.9-1.38c-2-1.86-3.94-3.86-5.78-5.9a4.68,4.68,0,0,1-1.2-2.45c-.71-7-1.32-14-1.93-20.93a3.14,3.14,0,0,0-1.79-2.78q-11-6.22-21.95-12.64a3.12,3.12,0,0,0-3.3-.13c-6,2.83-12,5.61-18.13,8.28a5.72,5.72,0,0,1-3.21.19c-1.75-.32-3.43-1.14-5.19-1.39-3.09-.43-4.91-2.24-6.76-4.63-2.17-2.8-2.48-5.25-1.51-8.64,7.8-27.32,15.4-54.7,23-82.07.41-1.48,1-2.19,2.56-1.89,4.65.91,7.77-.88,9.91-5.09,1.18-2.34,4.2-2.91,6.65-1.8,1.41.65,2.87,1.22,4.23,2a3,3,0,0,0,3.48-.1c1.85-1.21,3.79-2.29,5.75-3.32a2.75,2.75,0,0,0,1.61-2.55c.12-2.07.35-4.14.56-6.52,1.82.84,3.42,1.56,5,2.32q56.92,27.25,113.86,54.48c1.59.76,2.35,1.46,2,3.44-.58,3.6-.71,7.27-1.13,10.9a4.65,4.65,0,0,1-1,2c-.39.52-1.05.84-1.41,1.37-1.92,2.87-4.8,3.35-7.94,3.49S338.06,183.5,335,183.75Zm78,118.5a61.34,61.34,0,0,1-62.65-61c-.28-33.54,27.28-61.53,60.39-61.66,34.69-.12,62.23,27,62.36,61.3A61.36,61.36,0,0,1,412.93,302.25Z" transform="translate(-4.17 -18.69)"/><path d="M152.24,272.57c-40.37-.18-74.12,31.79-74.15,73.38a73.43,73.43,0,1,0,146.85,0C224.92,305.79,192.06,272.75,152.24,272.57Zm-.76,126.19A52.74,52.74,0,1,1,152,293.29c28.6,0,52.21,23.86,52.21,52.7A52.84,52.84,0,0,1,151.48,398.76Z" transform="translate(-4.17 -18.69)"/><path d="M411.34,193a47.69,47.69,0,0,0-47.61,48c0,27.73,22.64,48.2,48.82,47.93,25.77-.27,47.1-21.84,47.06-48.07A47.8,47.8,0,0,0,411.34,193Zm.07,82.39c-18.71,0-34.29-15.69-34.26-34.48a34.45,34.45,0,1,1,34.26,34.48Z" transform="translate(-4.17 -18.69)"/><path d="M230,70.74a25.84,25.84,0,1,0-25.91,25.73A25.93,25.93,0,0,0,230,70.74Zm-44.49-.08a18.65,18.65,0,0,1,18.74-18.52,18.42,18.42,0,0,1,18.41,18.55A18.61,18.61,0,0,1,204.2,89.3,18.89,18.89,0,0,1,185.49,70.66Z" transform="translate(-4.17 -18.69)"/></svg>