<svg id="svg" version="1.1" xmlns="http://www.w3.org/2000/svg" xmlns:xlink="http://www.w3.org/1999/xlink" width="400" height="360.38647342995165" viewBox="0, 0, 400,360.38647342995165"><g id="svgg"><path id="path0" d="M125.604 1.596 C 108.188 3.108,98.101 16.523,98.882 37.138 L 99.031 41.063 88.585 41.065 C 77.157 41.066,75.125 41.228,71.759 42.399 C 66.772 44.135,63.803 47.689,62.383 53.623 C 61.891 55.681,61.639 76.883,62.069 80.113 C 62.989 87.027,66.345 89.045,74.812 87.773 C 98.001 84.290,110.826 111.780,92.995 126.746 C 88.041 130.905,81.947 132.447,75.087 131.279 C 67.513 129.989,63.965 131.543,62.398 136.836 C 61.998 138.186,61.961 140.713,61.842 173.953 C 61.772 193.571,61.661 209.674,61.594 209.739 C 61.528 209.803,60.658 209.683,59.662 209.472 C 56.630 208.831,48.068 208.907,45.344 209.600 C 29.275 213.686,19.052 231.247,23.561 247.021 C 28.197 263.242,43.869 272.373,61.143 268.919 L 61.808 268.786 61.894 283.608 C 61.990 300.160,61.931 299.545,63.755 303.261 C 66.145 308.130,70.518 311.019,76.389 311.610 C 81.686 312.143,104.738 311.797,106.318 311.160 C 110.142 309.620,111.044 306.373,109.417 300.000 C 106.190 287.361,111.926 277.015,124.331 273.102 C 132.112 270.647,139.749 272.758,146.035 279.101 C 151.844 284.962,153.731 292.288,151.606 300.725 C 150.181 306.378,150.945 309.442,154.127 310.850 C 156.234 311.782,158.366 311.832,196.642 311.834 L 233.742 311.836 233.892 316.244 C 234.561 335.879,243.129 348.244,257.866 350.846 C 274.793 353.834,290.970 342.872,293.829 326.477 C 294.413 323.130,294.266 315.348,293.575 312.998 C 293.289 312.026,294.005 311.963,306.763 311.823 C 318.312 311.697,319.062 311.662,320.846 311.165 C 326.719 309.532,330.713 305.421,332.043 299.638 C 332.626 297.105,332.733 267.480,332.165 265.876 C 330.986 262.543,328.232 261.832,323.105 263.536 C 313.723 266.654,306.251 265.255,299.913 259.194 C 282.925 242.949,299.732 215.292,322.293 222.365 C 327.960 224.142,330.142 223.904,331.567 221.355 C 332.589 219.527,332.605 218.886,332.607 178.295 L 332.609 139.319 333.514 139.469 C 354.572 142.944,372.076 129.240,372.052 109.300 C 372.027 89.408,353.588 75.438,333.168 79.839 L 332.639 79.953 332.550 67.211 C 332.462 54.808,332.445 54.421,331.914 52.661 C 330.219 47.050,326.291 43.074,320.997 41.612 C 318.962 41.050,289.540 40.950,287.728 41.499 C 284.152 42.581,283.158 46.050,284.899 51.365 C 291.245 70.735,270.876 87.660,253.261 77.655 C 243.943 72.363,239.926 62.101,243.004 51.450 C 244.764 45.359,244.094 42.890,240.338 41.630 C 239.071 41.205,237.145 41.181,198.641 41.119 L 158.272 41.053 158.149 35.321 C 157.662 12.805,145.204 -0.105,125.604 1.596 M132.975 10.359 C 143.544 12.541,151.413 22.531,150.215 32.246 C 149.841 35.281,147.531 43.831,146.325 46.645 L 145.250 49.155 168.107 49.275 C 193.534 49.410,191.744 49.282,192.679 51.029 C 193.055 51.730,193.240 80.732,192.871 81.118 C 192.830 81.162,191.472 81.026,189.854 80.816 C 176.789 79.121,165.935 83.561,158.895 93.478 C 146.303 111.218,156.841 137.056,178.154 140.698 C 181.804 141.322,189.406 141.174,192.452 140.420 L 192.995 140.286 192.995 155.397 C 192.995 165.959,192.914 170.686,192.727 171.097 C 192.138 172.389,192.950 172.349,169.256 172.267 L 147.287 172.191 148.655 174.683 C 153.298 183.136,154.473 188.048,153.272 193.979 C 149.072 214.726,120.942 218.229,111.711 199.155 C 108.160 191.817,108.655 185.538,113.493 176.570 L 115.644 172.585 93.088 172.523 L 70.531 172.461 70.531 156.075 L 70.531 139.689 74.577 139.537 C 97.427 138.682,109.508 128.434,109.514 109.903 C 109.521 89.405,93.309 76.540,71.345 79.616 L 70.347 79.755 70.175 71.460 C 69.855 56.029,70.346 52.629,73.154 50.872 C 75.588 49.348,74.737 49.410,94.106 49.330 L 111.763 49.258 109.862 44.213 C 107.082 36.836,106.924 36.153,106.921 31.522 C 106.913 17.465,119.169 7.510,132.975 10.359 M234.127 49.698 C 234.180 49.798,234.086 51.021,233.918 52.415 C 231.142 75.403,248.571 92.413,270.634 88.249 C 285.617 85.422,293.984 73.224,294.013 54.167 L 294.020 49.758 304.679 49.767 C 319.743 49.779,321.066 49.956,322.560 52.156 C 324.085 54.402,324.027 53.558,324.104 74.577 C 324.142 85.106,324.229 93.720,324.296 93.720 C 324.363 93.720,326.125 92.811,328.212 91.701 C 334.686 88.254,336.841 87.594,341.667 87.577 C 361.199 87.512,370.921 111.050,357.126 125.003 C 349.180 133.040,340.033 133.803,328.190 127.419 C 326.092 126.288,324.326 125.362,324.265 125.362 C 324.204 125.362,324.155 135.851,324.155 148.671 L 324.155 171.981 308.492 171.981 L 292.830 171.981 292.668 167.693 C 291.805 144.813,281.634 132.852,263.043 132.852 C 243.224 132.852,229.793 148.956,232.727 169.203 C 232.919 170.531,233.080 171.754,233.084 171.920 C 233.090 172.159,229.771 172.222,217.271 172.222 L 201.449 172.222 201.449 149.396 C 201.449 136.842,201.382 126.570,201.300 126.570 C 201.217 126.570,200.538 126.939,199.790 127.389 C 188.373 134.266,178.917 134.754,171.256 128.861 C 159.657 119.938,158.360 106.016,168.173 95.752 C 176.672 86.862,187.478 86.387,199.944 94.355 C 200.644 94.803,201.269 95.169,201.333 95.169 C 201.397 95.169,201.449 84.897,201.449 72.343 L 201.449 49.517 217.739 49.517 C 226.699 49.517,234.073 49.598,234.127 49.698 M267.960 141.639 C 278.031 144.468,284.825 153.092,284.822 163.043 C 284.821 167.670,283.971 170.474,280.787 176.359 C 279.663 178.435,278.744 180.201,278.744 180.284 C 278.744 180.367,288.853 180.435,301.208 180.435 L 323.671 180.435 323.671 196.846 C 323.671 206.162,323.579 213.314,323.457 213.389 C 323.339 213.462,322.714 213.415,322.068 213.284 C 301.697 209.157,282.779 225.705,284.753 245.923 C 286.544 264.260,302.577 276.179,321.168 272.993 L 323.616 272.574 323.780 281.395 C 324.057 296.239,323.678 299.855,321.660 301.581 C 319.418 303.501,319.858 303.461,298.792 303.630 C 288.496 303.712,280.043 303.799,280.007 303.822 C 279.970 303.846,280.968 305.903,282.223 308.394 C 285.586 315.068,286.386 318.425,285.783 323.333 C 283.194 344.398,255.155 350.157,244.700 331.771 C 240.127 323.730,240.700 316.891,246.880 305.761 C 247.533 304.585,248.068 303.568,248.068 303.502 C 248.068 303.436,237.633 303.382,224.879 303.382 L 201.691 303.382 201.692 287.621 L 201.693 271.860 206.704 271.837 C 228.605 271.739,241.406 260.079,240.755 240.821 C 240.133 222.414,227.292 212.077,205.047 212.077 L 201.691 212.077 201.691 196.378 L 201.691 180.679 224.345 180.617 L 247.000 180.556 244.756 176.329 C 240.743 168.768,239.846 164.167,241.213 158.156 C 243.861 146.512,256.821 138.509,267.960 141.639 M191.024 181.081 C 191.336 181.279,191.919 182.144,192.321 183.003 L 193.051 184.564 193.049 205.406 L 193.046 226.247 195.723 224.729 C 209.332 217.011,220.159 218.537,228.299 229.320 C 234.593 237.658,233.976 248.512,226.736 256.793 C 219.761 264.771,212.588 265.448,196.658 259.630 C 194.886 258.983,193.392 258.454,193.337 258.454 C 193.282 258.454,193.237 268.454,193.237 280.676 L 193.237 302.899 176.658 302.899 L 160.079 302.899 160.238 301.751 C 162.307 286.754,158.115 276.405,146.981 269.024 C 134.195 260.548,119.494 262.173,108.308 273.298 C 101.269 280.298,98.616 289.382,100.475 300.117 C 100.727 301.576,100.902 302.802,100.863 302.841 C 100.632 303.072,77.632 302.939,75.845 302.696 C 72.553 302.249,70.943 300.630,70.281 297.101 C 70.050 295.869,70.224 278.783,70.654 260.565 L 70.789 254.826 68.547 256.056 C 64.598 258.221,61.011 259.864,58.797 260.520 C 44.116 264.872,28.941 251.659,31.251 236.537 C 33.818 219.731,48.201 213.173,65.840 220.767 C 68.008 221.700,69.842 222.464,69.915 222.464 C 69.988 222.464,70.048 213.062,70.048 201.570 L 70.048 180.676 85.829 180.676 C 94.509 180.676,101.668 180.734,101.738 180.804 C 101.808 180.874,101.768 181.390,101.649 181.951 C 101.265 183.771,101.118 191.791,101.429 193.987 C 103.846 211.039,119.511 222.373,136.957 219.693 C 152.615 217.287,161.383 205.076,161.455 185.575 L 161.473 180.692 164.372 180.601 C 171.640 180.374,190.446 180.713,191.024 181.081 " stroke="none" fill="#ecc404" fill-rule="evenodd"></path><path id="path1" d="M0.000 180.193 L 0.000 360.386 200.000 360.386 L 400.000 360.386 400.000 180.193 L 400.000 0.000 200.000 0.000 L 0.000 0.000 0.000 180.193 M134.317 1.838 C 149.526 4.431,157.919 16.150,158.389 35.447 L 158.520 40.821 197.195 40.823 C 237.730 40.825,239.205 40.861,241.446 41.887 C 244.517 43.293,244.792 45.669,242.748 53.140 C 240.142 62.661,244.967 73.161,254.121 77.892 C 271.540 86.895,291.111 70.026,284.746 51.497 C 282.624 45.319,284.234 41.739,289.437 41.063 C 291.686 40.771,313.673 40.767,317.648 41.057 C 325.188 41.609,330.195 45.735,332.166 53.019 C 332.662 54.855,332.693 55.573,332.791 67.345 L 332.895 79.739 333.537 79.601 C 357.800 74.404,378.145 95.911,370.763 118.953 C 367.221 130.010,357.722 137.924,345.773 139.771 C 343.215 140.166,335.988 140.094,333.883 139.653 L 332.863 139.439 332.794 179.200 C 332.730 216.632,332.701 219.036,332.295 220.233 C 331.069 223.845,328.360 224.515,322.579 222.637 C 299.706 215.204,282.974 243.018,300.429 259.459 C 306.346 265.032,314.178 266.411,322.891 263.414 C 328.200 261.587,331.339 262.435,332.415 265.989 C 332.941 267.727,332.840 296.821,332.299 299.396 C 331.046 305.358,326.797 309.736,320.652 311.395 C 318.830 311.887,318.019 311.925,306.473 312.057 C 298.821 312.145,294.137 312.289,293.987 312.440 C 293.830 312.599,293.865 313.503,294.092 315.097 C 296.860 334.571,283.889 350.699,264.907 351.386 C 245.939 352.073,234.074 338.598,233.752 316.005 L 233.696 312.082 214.734 312.050 C 204.306 312.033,186.751 311.946,175.725 311.858 L 155.676 311.699 154.306 311.153 C 150.847 309.775,149.897 306.246,151.434 300.483 C 155.972 283.473,140.199 268.007,123.856 273.442 C 111.975 277.392,106.518 287.360,109.502 299.659 C 111.231 306.786,110.233 310.079,105.918 311.484 C 103.875 312.150,77.156 312.179,74.155 311.519 C 69.589 310.515,65.574 307.423,63.586 303.382 C 61.766 299.679,61.793 299.962,61.661 283.609 L 61.542 269.029 60.570 269.184 C 48.064 271.184,37.148 267.756,30.365 259.701 C 18.925 246.114,19.663 229.226,32.239 216.787 C 39.083 210.018,48.880 207.307,59.420 209.265 C 60.417 209.450,61.286 209.552,61.353 209.491 C 61.419 209.430,61.531 193.438,61.602 173.953 C 61.721 141.071,61.761 138.422,62.155 137.077 C 63.784 131.526,67.374 129.798,74.664 131.054 C 96.063 134.743,109.866 110.271,95.201 94.643 C 89.913 89.007,82.977 86.823,74.245 88.043 C 66.709 89.096,63.372 87.307,62.042 81.500 C 61.433 78.840,61.598 56.535,62.249 53.558 C 63.709 46.884,67.585 42.974,74.208 41.493 C 76.252 41.036,77.432 40.983,87.584 40.886 L 98.719 40.780 98.718 35.547 C 98.714 11.908,113.160 -1.771,134.317 1.838 M123.828 10.525 C 113.720 12.780,106.995 21.194,107.008 31.572 C 107.012 35.235,107.595 37.711,109.876 43.768 C 110.954 46.630,111.836 49.094,111.836 49.244 C 111.836 49.444,107.252 49.517,94.616 49.517 C 69.372 49.517,70.611 48.801,70.359 63.527 C 70.285 67.844,70.306 73.210,70.405 75.451 L 70.585 79.525 71.826 79.371 C 94.824 76.521,111.269 90.980,109.645 112.621 C 108.369 129.626,96.433 138.800,74.336 139.759 L 70.531 139.925 70.531 156.073 L 70.531 172.222 93.237 172.222 C 105.725 172.222,115.942 172.265,115.942 172.317 C 115.942 172.369,115.081 173.982,114.030 175.900 C 108.437 186.101,108.152 193.778,113.084 201.379 C 122.487 215.868,143.814 214.628,151.342 199.155 C 154.853 191.939,154.184 185.063,149.075 175.845 L 147.133 172.343 169.279 172.222 C 192.021 172.098,191.913 172.103,192.517 171.191 C 192.840 170.704,193.271 140.574,192.955 140.582 C 192.911 140.583,191.679 140.744,190.217 140.939 C 181.371 142.123,173.946 140.797,167.713 136.918 C 152.846 127.668,148.793 107.413,158.958 93.160 C 166.139 83.089,177.408 78.727,190.992 80.761 L 192.975 81.058 192.925 66.303 C 192.878 52.678,192.842 51.499,192.449 50.900 C 191.481 49.422,192.731 49.493,167.864 49.511 C 148.601 49.525,145.169 49.476,145.169 49.190 C 145.169 49.005,145.606 47.869,146.140 46.666 C 148.158 42.119,150.466 31.868,150.133 28.927 C 148.747 16.671,136.061 7.797,123.828 10.525 M201.449 72.612 L 201.449 95.466 200.817 95.052 C 186.968 85.978,175.222 86.985,166.405 98.004 C 158.638 107.710,161.044 121.397,171.874 129.125 C 179.653 134.677,189.938 133.732,201.059 126.446 L 201.691 126.031 201.691 149.127 L 201.691 172.222 217.350 172.222 L 233.009 172.222 232.653 170.229 C 228.977 149.669,242.777 132.711,263.164 132.734 C 279.327 132.753,289.364 142.025,292.154 159.512 C 292.570 162.116,292.976 169.071,292.808 170.713 L 292.703 171.739 308.308 171.739 L 323.913 171.739 323.913 148.430 C 323.913 135.610,324.005 125.121,324.118 125.121 C 324.230 125.121,325.725 125.898,327.439 126.848 C 336.930 132.109,343.297 132.877,350.361 129.613 C 368.552 121.208,367.372 95.171,348.508 88.754 C 342.312 86.646,337.171 87.354,329.164 91.417 C 326.406 92.816,324.100 93.961,324.040 93.961 C 323.979 93.961,323.899 85.239,323.861 74.577 L 323.792 55.193 323.232 53.806 C 321.739 50.109,321.896 50.145,306.853 50.046 L 294.262 49.963 294.141 55.235 C 293.648 76.777,282.815 88.933,264.131 88.913 C 243.936 88.892,230.175 71.387,233.969 50.543 L 234.112 49.758 217.781 49.758 L 201.449 49.758 201.449 72.612 M260.259 141.314 C 247.604 142.969,238.730 155.030,241.248 167.151 C 241.865 170.124,242.623 171.989,245.086 176.594 C 246.195 178.666,247.101 180.433,247.101 180.519 C 247.101 180.606,236.938 180.676,224.517 180.676 L 201.932 180.676 201.932 196.256 L 201.932 211.836 204.650 211.836 C 227.850 211.838,240.912 222.753,240.923 242.150 C 240.934 261.316,226.180 273.356,204.167 272.144 L 201.691 272.008 201.691 287.574 L 201.691 303.140 225.000 303.140 C 237.820 303.140,248.309 303.212,248.309 303.300 C 248.309 303.389,247.338 305.264,246.151 307.467 C 242.771 313.743,241.973 316.315,241.984 320.894 C 242.035 340.577,266.086 350.099,279.725 335.836 C 286.861 328.374,287.638 319.569,282.129 308.593 C 280.800 305.947,279.776 303.718,279.853 303.642 C 279.929 303.565,288.488 303.442,298.873 303.369 C 325.102 303.184,323.313 304.135,323.590 290.217 C 323.672 286.099,323.658 280.493,323.559 277.759 L 323.380 272.789 321.654 273.148 C 309.668 275.639,296.253 270.361,289.811 260.620 C 274.225 237.052,294.665 207.592,322.712 213.202 L 323.430 213.345 323.430 196.890 L 323.430 180.435 300.966 180.435 C 288.611 180.435,278.502 180.382,278.502 180.317 C 278.502 180.252,279.120 179.083,279.874 177.720 C 283.732 170.753,284.640 167.919,284.617 162.923 C 284.558 150.103,272.802 139.674,260.259 141.314 M161.740 182.997 C 162.179 189.878,160.588 198.671,157.843 204.525 C 146.152 229.463,107.361 223.592,101.570 196.007 C 100.840 192.534,100.870 183.191,101.617 181.246 C 101.722 180.972,99.138 180.918,85.895 180.918 L 70.048 180.918 70.048 201.837 C 70.048 218.478,69.987 222.732,69.746 222.634 C 69.580 222.566,67.772 221.788,65.728 220.905 C 51.295 214.668,38.912 217.900,33.571 229.299 C 28.054 241.072,32.429 253.474,44.082 259.094 C 50.959 262.411,56.419 261.987,65.431 257.437 C 68.139 256.070,70.463 254.911,70.596 254.860 C 70.757 254.799,70.767 259.882,70.624 270.078 C 70.507 278.498,70.411 288.158,70.411 291.546 L 70.411 297.705 71.099 299.196 C 72.380 301.968,73.177 302.335,78.694 302.692 C 82.085 302.912,100.413 302.808,100.653 302.567 C 100.688 302.532,100.554 301.696,100.355 300.708 C 98.205 290.048,101.310 279.560,108.654 272.673 C 120.467 261.596,135.463 260.485,148.360 269.731 C 158.039 276.670,162.511 287.960,160.567 300.543 L 160.240 302.657 176.739 302.657 L 193.237 302.657 193.237 280.409 C 193.237 259.316,193.259 258.170,193.659 258.333 C 208.832 264.526,217.529 264.811,223.956 259.327 C 232.983 251.625,235.090 239.026,228.822 230.242 C 220.466 218.532,208.781 216.950,194.541 225.601 L 193.049 226.507 192.960 205.464 L 192.870 184.420 192.209 183.070 C 191.019 180.639,192.563 180.863,176.086 180.727 L 161.587 180.608 161.740 182.997 " stroke="none" fill="#fcfcfc" fill-rule="evenodd"></path><path id="path2" d="M107.729 9.300 C 107.143 9.897,106.717 10.386,106.783 10.386 C 106.850 10.386,107.384 9.897,107.971 9.300 C 108.558 8.702,108.983 8.213,108.917 8.213 C 108.851 8.213,108.316 8.702,107.729 9.300 M144.082 16.425 C 144.736 17.089,145.326 17.633,145.392 17.633 C 145.459 17.633,144.978 17.089,144.324 16.425 C 143.669 15.761,143.080 15.217,143.013 15.217 C 142.947 15.217,143.428 15.761,144.082 16.425 M112.789 16.365 L 111.957 17.271 112.862 16.438 C 113.361 15.980,113.768 15.573,113.768 15.532 C 113.768 15.348,113.564 15.522,112.789 16.365 M158.302 36.715 C 158.302 38.110,158.342 38.681,158.391 37.983 C 158.439 37.286,158.439 36.144,158.391 35.447 C 158.342 34.749,158.302 35.320,158.302 36.715 M302.488 41.001 C 303.657 41.046,305.504 41.045,306.594 41.001 C 307.683 40.956,306.727 40.920,304.469 40.920 C 302.210 40.920,301.319 40.957,302.488 41.001 M327.778 45.531 C 328.228 45.996,328.652 46.377,328.718 46.377 C 328.784 46.377,328.470 45.996,328.019 45.531 C 327.569 45.066,327.146 44.686,327.079 44.686 C 327.013 44.686,327.327 45.066,327.778 45.531 M283.882 46.860 C 283.882 47.458,283.929 47.702,283.987 47.403 C 284.044 47.104,284.044 46.615,283.987 46.316 C 283.929 46.018,283.882 46.262,283.882 46.860 M209.619 49.698 C 214.179 49.735,221.570 49.735,226.044 49.698 C 230.518 49.661,226.787 49.631,217.754 49.631 C 208.720 49.631,205.059 49.661,209.619 49.698 M295.238 49.937 C 296.007 49.985,297.203 49.985,297.895 49.936 C 298.588 49.888,297.959 49.848,296.498 49.849 C 295.036 49.849,294.470 49.889,295.238 49.937 M315.036 49.925 C 315.269 49.986,315.649 49.986,315.882 49.925 C 316.114 49.864,315.924 49.814,315.459 49.814 C 314.994 49.814,314.804 49.864,315.036 49.925 M294.027 52.174 C 294.027 52.772,294.074 53.016,294.132 52.717 C 294.189 52.418,294.189 51.929,294.132 51.630 C 294.074 51.332,294.027 51.576,294.027 52.174 M193.072 55.556 C 193.072 56.419,193.116 56.772,193.170 56.341 C 193.223 55.909,193.223 55.202,193.170 54.771 C 193.116 54.339,193.072 54.692,193.072 55.556 M294.027 56.039 C 294.027 56.636,294.074 56.881,294.132 56.582 C 294.189 56.283,294.189 55.794,294.132 55.495 C 294.074 55.196,294.027 55.441,294.027 56.039 M324.025 69.324 C 324.025 76.298,324.056 79.152,324.094 75.664 C 324.132 72.177,324.132 66.470,324.094 62.983 C 324.056 59.496,324.025 62.349,324.025 69.324 M241.865 58.454 C 241.865 59.318,241.909 59.671,241.962 59.239 C 242.016 58.807,242.016 58.101,241.962 57.669 C 241.909 57.237,241.865 57.591,241.865 58.454 M70.152 66.063 C 70.152 69.118,70.187 70.335,70.229 68.767 C 70.271 67.198,70.271 64.698,70.228 63.211 C 70.186 61.724,70.152 63.007,70.152 66.063 M77.604 79.163 C 78.239 79.213,79.217 79.213,79.778 79.162 C 80.338 79.111,79.819 79.071,78.623 79.071 C 77.428 79.072,76.969 79.113,77.604 79.163 M338.949 79.152 C 339.182 79.213,339.562 79.213,339.795 79.152 C 340.027 79.091,339.837 79.042,339.372 79.042 C 338.907 79.042,338.717 79.091,338.949 79.152 M342.572 79.152 C 342.805 79.213,343.185 79.213,343.418 79.152 C 343.650 79.091,343.460 79.042,342.995 79.042 C 342.530 79.042,342.340 79.091,342.572 79.152 M162.311 89.312 L 160.990 90.700 162.379 89.380 C 163.143 88.654,163.768 88.029,163.768 87.991 C 163.768 87.812,163.537 88.021,162.311 89.312 M153.467 110.507 C 153.467 111.703,153.507 112.222,153.558 111.662 C 153.609 111.101,153.609 110.123,153.559 109.488 C 153.510 108.853,153.468 109.312,153.467 110.507 M363.583 109.662 C 363.583 110.127,363.632 110.317,363.693 110.085 C 363.754 109.852,363.754 109.472,363.693 109.239 C 363.632 109.007,363.583 109.197,363.583 109.662 M94.436 125.302 L 93.116 126.691 94.505 125.371 C 95.795 124.144,96.004 123.913,95.825 123.913 C 95.787 123.913,95.162 124.538,94.436 125.302 M323.970 148.611 C 324.002 161.531,324.056 168.297,324.091 163.647 C 324.257 141.447,324.258 125.121,324.094 125.121 C 323.995 125.121,323.939 135.691,323.970 148.611 M201.389 141.123 C 201.423 149.260,201.478 159.614,201.513 164.130 C 201.548 168.647,201.602 161.990,201.634 149.336 C 201.665 136.682,201.609 126.328,201.510 126.328 C 201.410 126.328,201.356 132.986,201.389 141.123 M162.077 132.246 C 162.933 133.110,163.688 133.816,163.754 133.816 C 163.821 133.816,163.175 133.110,162.319 132.246 C 161.463 131.383,160.708 130.676,160.642 130.676 C 160.576 130.676,161.221 131.383,162.077 132.246 M182.428 133.023 C 182.793 133.079,183.391 133.079,183.756 133.023 C 184.121 132.968,183.822 132.923,183.092 132.923 C 182.361 132.923,182.062 132.968,182.428 133.023 M339.440 140.033 C 340.075 140.083,341.053 140.082,341.614 140.032 C 342.174 139.981,341.655 139.940,340.459 139.941 C 339.263 139.942,338.805 139.983,339.440 140.033 M182.068 141.234 C 182.368 141.291,182.803 141.289,183.034 141.229 C 183.265 141.168,183.019 141.121,182.488 141.124 C 181.957 141.126,181.768 141.176,182.068 141.234 M184.964 141.233 C 185.263 141.291,185.752 141.291,186.051 141.233 C 186.350 141.176,186.105 141.129,185.507 141.129 C 184.909 141.129,184.665 141.176,184.964 141.233 M278.382 147.826 C 279.036 148.490,279.626 149.034,279.692 149.034 C 279.758 149.034,279.277 148.490,278.623 147.826 C 277.969 147.162,277.379 146.618,277.313 146.618 C 277.246 146.618,277.727 147.162,278.382 147.826 M232.198 163.285 C 232.198 164.016,232.243 164.315,232.299 163.949 C 232.354 163.584,232.354 162.986,232.299 162.621 C 232.243 162.255,232.198 162.554,232.198 163.285 M172.283 172.403 C 175.704 172.441,181.301 172.441,184.722 172.403 C 188.143 172.365,185.344 172.334,178.502 172.334 C 171.661 172.334,168.862 172.365,172.283 172.403 M169.988 180.615 C 171.615 180.657,174.278 180.657,175.906 180.615 C 177.533 180.573,176.202 180.539,172.947 180.539 C 169.692 180.539,168.361 180.573,169.988 180.615 M323.544 196.860 C 323.544 205.960,323.574 209.683,323.611 205.133 C 323.648 200.583,323.648 193.137,323.611 188.587 C 323.574 184.037,323.544 187.760,323.544 196.860 M75.604 180.852 C 90.318 181.020,101.876 181.022,101.774 180.857 C 101.713 180.758,94.522 180.701,85.795 180.732 C 77.068 180.763,72.482 180.817,75.604 180.852 M101.043 189.130 C 101.043 189.994,101.087 190.347,101.141 189.915 C 101.194 189.484,101.194 188.777,101.141 188.345 C 101.087 187.914,101.043 188.267,101.043 189.130 M193.096 205.072 C 193.096 207.663,193.132 208.723,193.175 207.428 C 193.219 206.132,193.219 204.013,193.175 202.717 C 193.132 201.422,193.096 202.482,193.096 205.072 M51.625 208.870 C 52.054 208.923,52.815 208.924,53.316 208.872 C 53.817 208.820,53.466 208.776,52.536 208.775 C 51.606 208.774,51.196 208.817,51.625 208.870 M203.687 212.009 C 204.054 212.065,204.598 212.063,204.895 212.006 C 205.192 211.948,204.891 211.903,204.227 211.905 C 203.563 211.907,203.320 211.954,203.687 212.009 M314.556 221.188 C 314.924 221.243,315.467 221.242,315.764 221.185 C 316.061 221.127,315.761 221.082,315.097 221.084 C 314.432 221.085,314.189 221.132,314.556 221.188 M37.307 223.490 L 36.353 224.517 37.379 223.562 C 38.334 222.674,38.517 222.464,38.334 222.464 C 38.295 222.464,37.833 222.926,37.307 223.490 M299.626 227.597 L 298.671 228.623 299.698 227.668 C 300.653 226.780,300.836 226.570,300.653 226.570 C 300.613 226.570,300.151 227.032,299.626 227.597 M22.303 239.130 C 22.303 240.127,22.346 240.534,22.398 240.036 C 22.450 239.538,22.450 238.723,22.398 238.225 C 22.346 237.726,22.303 238.134,22.303 239.130 M30.974 238.889 C 30.974 239.354,31.024 239.544,31.084 239.312 C 31.145 239.079,31.145 238.699,31.084 238.466 C 31.024 238.234,30.974 238.424,30.974 238.889 M30.974 240.821 C 30.974 241.286,31.024 241.476,31.084 241.244 C 31.145 241.011,31.145 240.631,31.084 240.399 C 31.024 240.166,30.974 240.356,30.974 240.821 M37.077 254.348 C 37.732 255.012,38.321 255.556,38.388 255.556 C 38.454 255.556,37.973 255.012,37.319 254.348 C 36.665 253.684,36.075 253.140,36.008 253.140 C 35.942 253.140,36.423 253.684,37.077 254.348 M225.232 258.273 L 224.034 259.541 225.302 258.342 C 226.480 257.229,226.681 257.005,226.501 257.005 C 226.462 257.005,225.892 257.575,225.232 258.273 M70.616 261.111 C 70.616 262.240,70.657 262.702,70.708 262.138 C 70.759 261.573,70.759 260.649,70.708 260.085 C 70.657 259.520,70.616 259.982,70.616 261.111 M130.012 272.154 C 130.377 272.209,130.975 272.209,131.341 272.154 C 131.706 272.098,131.407 272.053,130.676 272.053 C 129.946 272.053,129.647 272.098,130.012 272.154 M107.835 273.490 L 107.126 274.275 107.911 273.566 C 108.642 272.905,108.807 272.705,108.620 272.705 C 108.579 272.705,108.225 273.059,107.835 273.490 M314.553 273.603 C 314.918 273.658,315.516 273.658,315.882 273.603 C 316.247 273.548,315.948 273.502,315.217 273.502 C 314.487 273.502,314.188 273.548,314.553 273.603 M70.374 276.570 C 70.374 277.699,70.416 278.161,70.467 277.597 C 70.518 277.032,70.518 276.108,70.467 275.543 C 70.416 274.979,70.374 275.441,70.374 276.570 M332.715 282.850 C 332.715 286.636,332.748 288.185,332.789 286.292 C 332.830 284.399,332.830 281.301,332.789 279.408 C 332.748 277.515,332.715 279.064,332.715 282.850 M145.773 278.986 C 146.427 279.650,147.017 280.193,147.083 280.193 C 147.150 280.193,146.669 279.650,146.014 278.986 C 145.360 278.321,144.771 277.778,144.704 277.778 C 144.638 277.778,145.119 278.321,145.773 278.986 M114.115 279.046 L 113.406 279.831 114.191 279.121 C 114.923 278.460,115.087 278.261,114.900 278.261 C 114.859 278.261,114.505 278.614,114.115 279.046 M323.763 284.058 C 323.763 285.586,323.802 286.211,323.850 285.447 C 323.898 284.683,323.898 283.433,323.850 282.669 C 323.802 281.905,323.763 282.530,323.763 284.058 M323.756 290.338 C 323.756 291.467,323.798 291.929,323.848 291.365 C 323.899 290.800,323.899 289.876,323.848 289.312 C 323.798 288.747,323.756 289.209,323.756 290.338 M70.130 290.580 C 70.130 291.576,70.172 291.984,70.224 291.486 C 70.276 290.987,70.276 290.172,70.224 289.674 C 70.172 289.176,70.130 289.583,70.130 290.580 M99.841 293.599 C 99.842 294.662,99.885 295.067,99.936 294.498 C 99.987 293.930,99.986 293.061,99.934 292.566 C 99.882 292.071,99.840 292.536,99.841 293.599 M84.349 303.077 C 85.240 303.124,86.762 303.124,87.731 303.078 C 88.700 303.032,87.971 302.994,86.111 302.994 C 84.251 302.993,83.458 303.031,84.349 303.077 M298.249 303.563 C 301.470 303.601,306.742 303.601,309.964 303.563 C 313.185 303.525,310.550 303.493,304.106 303.493 C 297.663 303.493,295.027 303.525,298.249 303.563 M150.794 305.435 C 150.796 306.099,150.842 306.342,150.898 305.975 C 150.953 305.608,150.952 305.064,150.895 304.767 C 150.837 304.470,150.792 304.771,150.794 305.435 M297.283 312.016 C 298.777 312.058,301.223 312.058,302.717 312.016 C 304.212 311.974,302.989 311.939,300.000 311.939 C 297.011 311.939,295.788 311.974,297.283 312.016 M294.289 320.652 C 294.288 321.848,294.329 322.367,294.379 321.807 C 294.430 321.246,294.431 320.268,294.381 319.633 C 294.331 318.998,294.289 319.457,294.289 320.652 M243.478 343.599 C 243.929 344.064,244.352 344.444,244.418 344.444 C 244.485 344.444,244.170 344.064,243.720 343.599 C 243.269 343.134,242.846 342.754,242.780 342.754 C 242.713 342.754,243.028 343.134,243.478 343.599 M261.775 351.378 C 262.074 351.436,262.563 351.436,262.862 351.378 C 263.161 351.321,262.917 351.274,262.319 351.274 C 261.721 351.274,261.476 351.321,261.775 351.378 M264.435 351.379 C 264.736 351.436,265.170 351.434,265.401 351.374 C 265.632 351.313,265.386 351.266,264.855 351.269 C 264.324 351.271,264.135 351.321,264.435 351.379 " stroke="none" fill="#f4d651" fill-rule="evenodd"></path><path id="path3" d="M148.309 8.530 C 148.309 8.571,148.662 8.925,149.094 9.315 L 149.879 10.024 149.170 9.239 C 148.508 8.507,148.309 8.343,148.309 8.530 M158.269 33.575 C 158.269 34.040,158.318 34.230,158.379 33.998 C 158.440 33.765,158.440 33.385,158.379 33.152 C 158.318 32.920,158.269 33.110,158.269 33.575 M85.582 41.002 C 87.550 41.043,90.702 41.043,92.587 41.002 C 94.472 40.961,92.862 40.928,89.010 40.928 C 85.157 40.928,83.615 40.961,85.582 41.002 M200.543 41.002 C 205.160 41.039,212.714 41.039,217.331 41.002 C 221.947 40.966,218.170 40.936,208.937 40.936 C 199.704 40.936,195.927 40.966,200.543 41.002 M296.075 41.000 C 296.905 41.047,298.264 41.047,299.094 41.000 C 299.925 40.953,299.245 40.914,297.585 40.914 C 295.924 40.914,295.245 40.953,296.075 41.000 M309.610 41.000 C 310.311 41.049,311.398 41.048,312.025 40.998 C 312.652 40.949,312.077 40.909,310.749 40.909 C 309.420 40.910,308.908 40.951,309.610 41.000 M78.686 49.446 C 78.987 49.504,79.422 49.502,79.653 49.441 C 79.884 49.381,79.638 49.334,79.106 49.336 C 78.575 49.339,78.386 49.388,78.686 49.446 M167.468 49.456 C 170.233 49.495,174.690 49.495,177.371 49.456 C 180.053 49.417,177.790 49.386,172.343 49.386 C 166.896 49.386,164.702 49.418,167.468 49.456 M300.060 49.936 C 300.691 49.986,301.724 49.986,302.355 49.936 C 302.986 49.886,302.470 49.846,301.208 49.846 C 299.946 49.846,299.429 49.886,300.060 49.936 M312.862 49.931 C 313.228 49.987,313.825 49.987,314.191 49.931 C 314.556 49.876,314.257 49.831,313.527 49.831 C 312.796 49.831,312.497 49.876,312.862 49.931 M286.059 58.575 C 286.061 59.239,286.108 59.482,286.164 59.115 C 286.219 58.748,286.218 58.204,286.160 57.907 C 286.103 57.610,286.058 57.911,286.059 58.575 M332.715 66.908 C 332.715 70.694,332.748 72.243,332.789 70.350 C 332.830 68.457,332.830 65.359,332.789 63.466 C 332.748 61.573,332.715 63.122,332.715 66.908 M279.333 74.215 L 278.623 75.000 279.408 74.291 C 280.140 73.629,280.304 73.430,280.118 73.430 C 280.076 73.430,279.723 73.783,279.333 74.215 M183.635 80.366 C 184.001 80.422,184.598 80.422,184.964 80.366 C 185.329 80.311,185.030 80.266,184.300 80.266 C 183.569 80.266,183.270 80.311,183.635 80.366 M323.963 87.862 C 323.935 91.217,323.995 93.961,324.094 93.962 C 324.194 93.962,324.247 92.141,324.213 89.916 C 324.099 82.429,324.013 81.725,323.963 87.862 M341.123 87.613 C 341.489 87.668,342.086 87.668,342.452 87.613 C 342.817 87.557,342.518 87.512,341.787 87.512 C 341.057 87.512,340.758 87.557,341.123 87.613 M70.112 88.338 C 70.479 88.393,71.023 88.392,71.320 88.334 C 71.617 88.277,71.316 88.232,70.652 88.233 C 69.988 88.235,69.745 88.282,70.112 88.338 M261.896 132.786 C 262.527 132.836,263.560 132.836,264.191 132.786 C 264.822 132.736,264.306 132.696,263.043 132.696 C 261.781 132.696,261.265 132.736,261.896 132.786 M283.092 140.217 C 283.542 140.682,283.966 141.063,284.032 141.063 C 284.098 141.063,283.784 140.682,283.333 140.217 C 282.883 139.752,282.460 139.372,282.393 139.372 C 282.327 139.372,282.641 139.752,283.092 140.217 M332.726 175.845 C 332.726 195.972,332.755 204.206,332.790 194.143 C 332.825 184.079,332.825 167.612,332.790 157.548 C 332.755 147.485,332.726 155.719,332.726 175.845 M241.063 141.425 C 240.476 142.023,240.050 142.512,240.117 142.512 C 240.183 142.512,240.718 142.023,241.304 141.425 C 241.891 140.827,242.317 140.338,242.250 140.338 C 242.184 140.338,241.650 140.827,241.063 141.425 M240.641 162.923 C 240.643 163.454,240.693 163.643,240.751 163.343 C 240.808 163.042,240.806 162.607,240.746 162.376 C 240.685 162.145,240.638 162.391,240.641 162.923 M232.182 165.217 C 232.182 165.682,232.231 165.873,232.292 165.640 C 232.353 165.408,232.353 165.027,232.292 164.795 C 232.231 164.562,232.182 164.752,232.182 165.217 M188.228 180.850 C 188.595 180.905,189.139 180.904,189.436 180.846 C 189.733 180.789,189.432 180.744,188.768 180.745 C 188.104 180.747,187.861 180.794,188.228 180.850 M109.476 188.889 C 109.476 189.354,109.526 189.544,109.587 189.312 C 109.648 189.079,109.648 188.699,109.587 188.466 C 109.526 188.234,109.476 188.424,109.476 188.889 M109.476 190.580 C 109.476 191.045,109.526 191.235,109.587 191.002 C 109.648 190.770,109.648 190.389,109.587 190.157 C 109.526 189.925,109.476 190.115,109.476 190.580 M130.611 211.769 C 131.039 211.822,131.800 211.823,132.301 211.770 C 132.803 211.718,132.452 211.675,131.522 211.673 C 130.592 211.672,130.182 211.715,130.611 211.769 M205.861 212.009 C 206.228 212.065,206.771 212.063,207.069 212.006 C 207.366 211.948,207.065 211.903,206.401 211.905 C 205.737 211.907,205.494 211.954,205.861 212.009 M315.040 212.734 C 315.407 212.789,315.950 212.788,316.247 212.730 C 316.544 212.673,316.244 212.628,315.580 212.629 C 314.915 212.631,314.672 212.678,315.040 212.734 M210.568 219.981 C 210.999 220.035,211.706 220.035,212.138 219.981 C 212.569 219.928,212.216 219.884,211.353 219.884 C 210.489 219.884,210.136 219.928,210.568 219.981 M130.864 220.225 C 131.432 220.277,132.302 220.276,132.796 220.224 C 133.291 220.172,132.826 220.130,131.763 220.131 C 130.700 220.132,130.296 220.174,130.864 220.225 M225.483 226.329 C 226.002 226.860,226.481 227.295,226.547 227.295 C 226.614 227.295,226.244 226.860,225.725 226.329 C 225.206 225.797,224.727 225.362,224.660 225.362 C 224.594 225.362,224.964 225.797,225.483 226.329 M240.902 242.271 C 240.902 243.267,240.945 243.675,240.997 243.176 C 241.049 242.678,241.049 241.863,240.997 241.365 C 240.945 240.867,240.902 241.274,240.902 242.271 M293.070 243.357 C 293.071 244.155,293.116 244.452,293.170 244.017 C 293.224 243.583,293.223 242.931,293.168 242.568 C 293.113 242.205,293.069 242.560,293.070 243.357 M70.616 264.976 C 70.616 266.105,70.657 266.567,70.708 266.002 C 70.759 265.438,70.759 264.514,70.708 263.949 C 70.657 263.385,70.616 263.847,70.616 264.976 M292.754 264.327 C 292.754 264.368,293.107 264.722,293.539 265.112 L 294.324 265.821 293.614 265.036 C 292.953 264.304,292.754 264.140,292.754 264.327 M332.690 274.396 C 332.690 275.393,332.733 275.800,332.785 275.302 C 332.837 274.804,332.837 273.989,332.785 273.490 C 332.733 272.992,332.690 273.400,332.690 274.396 M70.373 280.314 C 70.374 281.377,70.416 281.782,70.467 281.213 C 70.518 280.645,70.517 279.776,70.465 279.281 C 70.414 278.786,70.372 279.251,70.373 280.314 M323.732 287.560 C 323.735 288.092,323.785 288.281,323.842 287.980 C 323.900 287.680,323.898 287.245,323.837 287.014 C 323.777 286.783,323.730 287.029,323.732 287.560 M332.681 290.821 C 332.681 291.552,332.726 291.851,332.782 291.486 C 332.837 291.120,332.837 290.522,332.782 290.157 C 332.726 289.792,332.681 290.091,332.681 290.821 M70.130 293.961 C 70.130 294.958,70.172 295.365,70.224 294.867 C 70.276 294.369,70.276 293.554,70.224 293.056 C 70.172 292.557,70.130 292.965,70.130 293.961 M99.155 302.657 L 97.464 302.813 99.080 302.856 C 99.969 302.879,100.763 302.790,100.845 302.657 C 100.928 302.524,100.961 302.435,100.920 302.458 C 100.879 302.482,100.085 302.571,99.155 302.657 M209.903 303.318 C 231.757 303.484,248.309 303.485,248.309 303.321 C 248.309 303.222,237.793 303.166,224.940 303.197 C 212.086 303.229,205.320 303.283,209.903 303.318 M286.292 303.561 C 287.455 303.606,289.357 303.606,290.519 303.561 C 291.682 303.517,290.731 303.481,288.406 303.481 C 286.081 303.481,285.130 303.517,286.292 303.561 M65.700 306.597 C 65.700 306.639,66.054 306.992,66.486 307.382 L 67.271 308.092 66.561 307.307 C 65.900 306.575,65.700 306.411,65.700 306.597 M307.307 312.016 C 308.469 312.060,310.371 312.060,311.534 312.016 C 312.696 311.971,311.745 311.935,309.420 311.935 C 307.095 311.935,306.144 311.971,307.307 312.016 M285.810 320.894 C 285.812 321.425,285.862 321.614,285.920 321.314 C 285.977 321.013,285.975 320.578,285.915 320.347 C 285.854 320.116,285.807 320.362,285.810 320.894 " stroke="none" fill="#f7e692" fill-rule="evenodd"></path><path id="path4" d="M127.717 10.078 C 128.149 10.132,128.856 10.132,129.287 10.078 C 129.719 10.025,129.366 9.981,128.502 9.981 C 127.639 9.981,127.286 10.025,127.717 10.078 M106.838 31.522 C 106.839 32.319,106.885 32.616,106.938 32.182 C 106.992 31.748,106.991 31.095,106.936 30.732 C 106.881 30.369,106.837 30.725,106.838 31.522 M98.638 35.024 C 98.638 36.286,98.679 36.803,98.728 36.171 C 98.778 35.540,98.778 34.508,98.728 33.877 C 98.679 33.246,98.638 33.762,98.638 35.024 M98.792 40.447 C 98.792 40.708,98.402 40.820,97.283 40.884 L 95.773 40.970 97.403 41.016 C 98.888 41.059,99.034 41.020,99.034 40.580 C 99.034 40.314,98.979 40.097,98.913 40.097 C 98.847 40.097,98.792 40.254,98.792 40.447 M158.275 40.580 C 158.361 40.897,160.470 40.942,175.382 40.945 L 192.391 40.947 175.496 40.882 C 162.365 40.832,158.554 40.751,158.389 40.518 C 158.232 40.297,158.202 40.313,158.275 40.580 M79.415 40.998 C 79.983 41.049,80.852 41.049,81.347 40.997 C 81.842 40.945,81.377 40.903,80.314 40.904 C 79.251 40.905,78.846 40.947,79.415 40.998 M228.321 41.002 C 229.882 41.044,232.437 41.044,233.998 41.002 C 235.559 40.960,234.281 40.925,231.159 40.925 C 228.037 40.925,226.760 40.960,228.321 41.002 M291.614 40.999 C 292.249 41.049,293.227 41.048,293.787 40.998 C 294.348 40.947,293.829 40.906,292.633 40.907 C 291.437 40.908,290.979 40.949,291.614 40.999 M313.712 40.996 C 314.146 41.050,314.798 41.049,315.161 40.994 C 315.524 40.939,315.169 40.895,314.372 40.896 C 313.575 40.897,313.278 40.943,313.712 40.996 M244.027 46.377 C 244.027 46.975,244.074 47.219,244.132 46.920 C 244.189 46.621,244.189 46.132,244.132 45.833 C 244.074 45.534,244.027 45.779,244.027 46.377 M87.862 49.456 C 92.280 49.493,99.508 49.493,103.925 49.456 C 108.342 49.420,104.728 49.389,95.894 49.389 C 87.059 49.389,83.445 49.420,87.862 49.456 M149.457 49.456 C 151.881 49.496,155.848 49.496,158.273 49.456 C 160.697 49.417,158.714 49.385,153.865 49.385 C 149.016 49.385,147.032 49.417,149.457 49.456 M183.514 49.454 C 184.345 49.501,185.704 49.501,186.534 49.454 C 187.364 49.407,186.685 49.368,185.024 49.368 C 183.364 49.368,182.684 49.407,183.514 49.454 M305.628 49.939 C 306.931 49.982,308.996 49.982,310.218 49.938 C 311.440 49.895,310.374 49.859,307.850 49.859 C 305.326 49.859,304.326 49.895,305.628 49.939 M233.420 57.729 C 233.420 58.992,233.461 59.508,233.511 58.877 C 233.561 58.246,233.561 57.213,233.511 56.582 C 233.461 55.951,233.420 56.467,233.420 57.729 M332.684 58.816 C 332.685 59.614,332.730 59.910,332.784 59.476 C 332.838 59.042,332.836 58.390,332.781 58.027 C 332.726 57.664,332.682 58.019,332.684 58.816 M61.704 68.357 C 61.704 73.605,61.736 75.752,61.775 73.128 C 61.814 70.504,61.814 66.211,61.775 63.587 C 61.736 60.963,61.704 63.110,61.704 68.357 M192.843 65.459 C 192.843 66.854,192.883 67.425,192.932 66.727 C 192.980 66.030,192.980 64.888,192.932 64.191 C 192.883 63.493,192.843 64.064,192.843 65.459 M332.703 76.691 C 332.703 78.418,332.741 79.093,332.788 78.190 C 332.835 77.288,332.834 75.875,332.787 75.050 C 332.740 74.226,332.702 74.964,332.703 76.691 M70.338 77.597 C 70.295 79.468,70.338 79.710,70.713 79.706 C 71.001 79.704,71.043 79.644,70.844 79.518 C 70.670 79.407,70.520 78.560,70.470 77.408 L 70.387 75.483 70.338 77.597 M185.809 80.360 C 186.042 80.420,186.422 80.420,186.655 80.360 C 186.887 80.299,186.697 80.249,186.232 80.249 C 185.767 80.249,185.577 80.299,185.809 80.360 M363.043 87.802 C 363.494 88.267,363.917 88.647,363.984 88.647 C 364.050 88.647,363.736 88.267,363.285 87.802 C 362.834 87.337,362.411 86.957,362.345 86.957 C 362.278 86.957,362.593 87.337,363.043 87.802 M100.242 87.274 C 100.242 87.315,100.595 87.668,101.027 88.059 L 101.812 88.768 101.102 87.983 C 100.441 87.251,100.242 87.087,100.242 87.274 M78.325 87.613 C 78.692 87.668,79.235 87.667,79.532 87.610 C 79.829 87.552,79.529 87.507,78.865 87.509 C 78.200 87.511,77.957 87.557,78.325 87.613 M356.884 93.961 C 357.403 94.493,357.882 94.928,357.948 94.928 C 358.015 94.928,357.645 94.493,357.126 93.961 C 356.607 93.430,356.128 92.995,356.061 92.995 C 355.995 92.995,356.365 93.430,356.884 93.961 M101.283 109.783 C 101.284 110.580,101.329 110.877,101.383 110.443 C 101.437 110.008,101.435 109.356,101.380 108.993 C 101.325 108.630,101.281 108.986,101.283 109.783 M109.718 109.903 C 109.718 110.368,109.768 110.559,109.828 110.326 C 109.889 110.094,109.889 109.713,109.828 109.481 C 109.768 109.248,109.718 109.438,109.718 109.903 M161.667 110.870 C 161.667 111.600,161.712 111.899,161.767 111.534 C 161.823 111.168,161.823 110.571,161.767 110.205 C 161.712 109.840,161.667 110.139,161.667 110.870 M168.589 126.389 C 169.590 127.455,169.807 127.647,169.807 127.466 C 169.807 127.427,169.290 126.911,168.659 126.318 L 167.512 125.242 168.589 126.389 M71.558 139.791 C 72.189 139.841,73.222 139.841,73.853 139.791 C 74.484 139.741,73.967 139.701,72.705 139.701 C 71.443 139.701,70.927 139.741,71.558 139.791 M61.712 173.430 C 61.712 191.298,61.740 198.608,61.775 189.674 C 61.810 180.740,61.810 166.120,61.775 157.186 C 61.740 148.252,61.712 155.562,61.712 173.430 M192.826 169.082 C 192.826 169.813,192.871 170.112,192.927 169.746 C 192.982 169.381,192.982 168.783,192.927 168.418 C 192.871 168.053,192.826 168.351,192.826 169.082 M300.561 171.920 C 304.922 171.957,311.987 171.957,316.261 171.920 C 320.536 171.883,316.969 171.853,308.333 171.853 C 299.698 171.853,296.201 171.883,300.561 171.920 M78.502 172.400 C 99.699 172.566,115.942 172.567,115.942 172.403 C 115.942 172.304,105.697 172.248,93.176 172.279 C 80.655 172.311,74.052 172.365,78.502 172.400 M185.200 180.851 C 185.629 180.904,186.390 180.905,186.891 180.853 C 187.392 180.800,187.041 180.757,186.111 180.756 C 185.181 180.755,184.771 180.797,185.200 180.851 M201.805 196.256 C 201.805 204.891,201.835 208.389,201.872 204.028 C 201.909 199.668,201.909 192.603,201.872 188.328 C 201.835 184.053,201.805 187.621,201.805 196.256 M161.685 184.903 C 161.685 186.365,161.725 186.931,161.773 186.163 C 161.821 185.394,161.821 184.198,161.772 183.506 C 161.723 182.813,161.684 183.442,161.685 184.903 M192.842 188.043 C 192.842 189.372,192.883 189.885,192.932 189.183 C 192.981 188.481,192.980 187.394,192.931 186.767 C 192.881 186.141,192.841 186.715,192.842 188.043 M332.698 214.734 C 332.698 216.129,332.738 216.700,332.787 216.002 C 332.836 215.305,332.836 214.164,332.787 213.466 C 332.738 212.769,332.698 213.339,332.698 214.734 M313.345 212.727 C 313.578 212.788,313.958 212.788,314.191 212.727 C 314.423 212.666,314.233 212.616,313.768 212.616 C 313.303 212.616,313.113 212.666,313.345 212.727 M316.969 212.727 C 317.201 212.788,317.582 212.788,317.814 212.727 C 318.046 212.666,317.856 212.616,317.391 212.616 C 316.926 212.616,316.736 212.666,316.969 212.727 M31.996 216.969 L 30.797 218.237 32.065 217.038 C 32.763 216.379,33.333 215.808,33.333 215.770 C 33.333 215.590,33.110 215.790,31.996 216.969 M232.436 241.667 C 232.438 242.331,232.485 242.574,232.540 242.207 C 232.596 241.840,232.595 241.296,232.537 240.999 C 232.480 240.702,232.434 241.002,232.436 241.667 M31.884 261.473 C 32.335 261.938,32.758 262.319,32.824 262.319 C 32.891 262.319,32.576 261.938,32.126 261.473 C 31.675 261.008,31.252 260.628,31.185 260.628 C 31.119 260.628,31.433 261.008,31.884 261.473 M233.092 262.681 C 232.505 263.279,232.079 263.768,232.146 263.768 C 232.212 263.768,232.747 263.279,233.333 262.681 C 233.920 262.083,234.346 261.594,234.279 261.594 C 234.213 261.594,233.679 262.083,233.092 262.681 M326.751 262.489 C 327.050 262.547,327.539 262.547,327.838 262.489 C 328.137 262.432,327.893 262.385,327.295 262.385 C 326.697 262.385,326.452 262.432,326.751 262.489 M212.862 263.452 C 213.095 263.512,213.475 263.512,213.708 263.452 C 213.940 263.391,213.750 263.341,213.285 263.341 C 212.820 263.341,212.630 263.391,212.862 263.452 M70.616 268.841 C 70.616 269.970,70.657 270.432,70.708 269.867 C 70.759 269.303,70.759 268.379,70.708 267.814 C 70.657 267.249,70.616 267.711,70.616 268.841 M61.707 281.763 C 61.707 288.804,61.738 291.650,61.775 288.087 C 61.813 284.524,61.813 278.763,61.775 275.285 C 61.737 271.807,61.707 274.722,61.707 281.763 M52.842 269.740 C 53.277 269.794,53.929 269.793,54.292 269.738 C 54.655 269.683,54.300 269.639,53.502 269.640 C 52.705 269.641,52.408 269.687,52.842 269.740 M332.686 271.256 C 332.686 272.120,332.730 272.473,332.783 272.041 C 332.837 271.609,332.837 270.903,332.783 270.471 C 332.730 270.039,332.686 270.393,332.686 271.256 M203.687 272.154 C 204.054 272.210,204.598 272.208,204.895 272.151 C 205.192 272.093,204.891 272.048,204.227 272.050 C 203.563 272.052,203.320 272.098,203.687 272.154 M207.069 272.154 C 207.436 272.210,207.979 272.208,208.276 272.151 C 208.573 272.093,208.273 272.048,207.609 272.050 C 206.944 272.052,206.701 272.098,207.069 272.154 M152.405 273.249 C 153.406 274.315,153.623 274.507,153.623 274.326 C 153.623 274.287,153.107 273.771,152.476 273.178 L 151.329 272.101 152.405 273.249 M323.519 275.121 C 323.519 276.516,323.559 277.086,323.608 276.389 C 323.657 275.691,323.657 274.550,323.608 273.853 C 323.559 273.155,323.519 273.726,323.519 275.121 M70.371 283.816 C 70.371 284.813,70.414 285.220,70.466 284.722 C 70.518 284.224,70.518 283.409,70.466 282.911 C 70.414 282.412,70.371 282.820,70.371 283.816 M332.674 292.995 C 332.674 293.593,332.722 293.838,332.779 293.539 C 332.837 293.240,332.837 292.751,332.779 292.452 C 332.722 292.153,332.674 292.397,332.674 292.995 M323.486 294.686 C 323.486 295.151,323.536 295.341,323.596 295.109 C 323.657 294.876,323.657 294.496,323.596 294.263 C 323.536 294.031,323.486 294.221,323.486 294.686 M79.287 302.824 C 79.520 302.884,79.900 302.884,80.133 302.824 C 80.365 302.763,80.175 302.713,79.710 302.713 C 79.245 302.713,79.055 302.763,79.287 302.824 M94.512 302.835 C 95.147 302.885,96.125 302.884,96.686 302.834 C 97.247 302.783,96.727 302.742,95.531 302.743 C 94.336 302.743,93.877 302.785,94.512 302.835 M168.436 302.838 C 173.062 302.875,180.562 302.875,185.102 302.838 C 189.643 302.801,185.857 302.771,176.691 302.771 C 167.524 302.771,163.809 302.801,168.436 302.838 M283.152 303.548 C 283.385 303.609,283.765 303.609,283.998 303.548 C 284.230 303.487,284.040 303.438,283.575 303.438 C 283.110 303.438,282.920 303.487,283.152 303.548 M86.429 312.017 C 88.995 312.056,93.125 312.056,95.608 312.017 C 98.090 311.977,95.990 311.945,90.942 311.945 C 85.894 311.945,83.863 311.977,86.429 312.017 M201.510 312.017 C 207.455 312.053,217.183 312.053,223.128 312.017 C 229.073 311.981,224.209 311.951,212.319 311.951 C 200.429 311.951,195.565 311.981,201.510 312.017 M314.185 312.010 C 314.614 312.063,315.375 312.064,315.876 312.012 C 316.377 311.960,316.027 311.916,315.097 311.915 C 314.167 311.914,313.757 311.957,314.185 312.010 M233.663 314.614 C 233.664 315.942,233.704 316.455,233.753 315.753 C 233.802 315.051,233.802 313.964,233.752 313.337 C 233.703 312.711,233.662 313.285,233.663 314.614 M248.068 336.111 C 248.518 336.576,248.941 336.957,249.008 336.957 C 249.074 336.957,248.760 336.576,248.309 336.111 C 247.859 335.646,247.435 335.266,247.369 335.266 C 247.303 335.266,247.617 335.646,248.068 336.111 M279.336 336.292 L 278.382 337.319 279.408 336.364 C 280.363 335.476,280.546 335.266,280.363 335.266 C 280.324 335.266,279.862 335.728,279.336 336.292 M285.371 342.572 L 284.662 343.357 285.447 342.648 C 286.179 341.987,286.343 341.787,286.156 341.787 C 286.115 341.787,285.761 342.141,285.371 342.572 M263.349 342.927 C 263.716 342.982,264.259 342.981,264.556 342.924 C 264.854 342.866,264.553 342.821,263.889 342.823 C 263.225 342.825,262.982 342.871,263.349 342.927 " stroke="none" fill="#fcf4c7" fill-rule="evenodd"></path></g></svg>